<?xml version="1.0" encoding="utf-8"?>
<!-- Generator: Adobe Illustrator 17.0.2, SVG Export Plug-In . SVG Version: 6.00 Build 0)  -->
<!DOCTYPE svg PUBLIC "-//W3C//DTD SVG 1.1//EN" "http://www.w3.org/Graphics/SVG/1.1/DTD/svg11.dtd">
<svg version="1.1" id="Calque_1" xmlns="http://www.w3.org/2000/svg" xmlns:xlink="http://www.w3.org/1999/xlink" x="0px" y="0px"
	 width="180px" height="180px" viewBox="0 0 180 180" enable-background="new 0 0 180 180" xml:space="preserve">
<g>
	<path fill="#3D3D3D" d="M102.871,20.795c21.62,0.001,31.697,9.93,36.54,14.701c0.343,0.338,0.659,0.649,0.92,0.899l12.041,12.041
		c0.812,0.91,0.885,3.234,0.955,5.483c0.11,3.495,0.246,7.843,3.118,10.888c1.804,2.018,4.208,3.227,7.145,3.595l0.97,0.121
		l0.692-0.691c1.053-1.053,2.333-1.274,3.222-1.274c1.406,0,2.807,0.561,3.747,1.501l2.506,2.506
		c1.126,1.126,1.311,2.383,1.268,3.239c-0.06,1.189-0.605,2.382-1.495,3.271l-13.667,13.667c-1.02,1.02-2.292,1.582-3.582,1.582
		c-1.179,0-2.27-0.468-3.156-1.354l-2.506-2.506c-0.945-0.944-1.465-2.181-1.465-3.483c0-1.302,0.52-2.538,1.465-3.483l0.367-0.367
		l0.142-0.499c0.835-2.921-1.598-6.696-4.153-9.255c-3.498-3.498-7.627-5.424-11.626-5.424c-2.606,0-4.963,0.856-6.638,2.412
		l-0.036,0.033l-0.034,0.035l-8.214,8.414l-0.51,0.533l-0.322,0.319l-0.415,0.425l-0.007-0.007l-1.434,1.419L99.108,98.933
		l-1.512,1.497l1.587,1.417l40.276,35.953c2.359,2.379,3.643,5.505,3.618,8.81c-0.026,3.357-1.406,6.571-3.886,9.051
		c-2.376,2.376-5.565,3.685-8.978,3.685c-3.411,0-6.654-1.305-9.138-3.677l-36.41-38.913l-1.551-1.658l-1.449,1.748l-34.127,41.182
		c-1.193,1.254-2.924,1.973-4.76,1.973c-1.816,0-3.427-0.698-4.536-1.965l-0.035-0.04l-0.037-0.038l-8.656-8.884l-0.031-0.032
		l-0.033-0.031c-1.344-1.261-2.1-2.967-2.13-4.806c-0.029-1.83,0.654-3.542,1.925-4.827l39.378-36.647l1.556-1.448l-1.539-1.465
		l-18.924-18.01c-4.81-4.466-8.684-7.234-13.13-7.234c-1.243,0-2.51,0.211-3.871,0.644l-0.039,0.012l-0.038,0.014
		c-1.856,0.675-3.942,1.032-6.033,1.032c-3.783,0-7.541-1.152-10.885-3.343C4.883,66.005,3.585,53.284,3.442,49.554l12.386,8.061
		l0.021,0.014l0.021,0.013c0.114,0.07,2.841,1.722,6.542,1.722c3.243,0,7.94-1.274,11.916-7.371c3.09-4.907,4.16-9.406,3.181-13.371
		c-1.068-4.326-4.256-6.416-4.728-6.705l-12.4-7.873c1.544-0.83,6.132-2.979,12.286-2.978c4.742,0,9.378,1.28,13.751,3.788
		c8.837,5.26,13.225,15.558,10.909,25.666c-1.561,7.545,0.33,10.473,5.726,16.338l0.032,0.035l0.034,0.034l19.134,18.906
		l1.436,1.419l1.405-1.448L104.97,65.32l0.493-0.522l0.307-0.302l0.235-0.242l0.006,0.006l1.414-1.39l8.616-8.468l0.021-0.021
		l0.021-0.021c5.239-5.465,1.806-11.539-0.713-13.96c-12.43-12.43-29.005-14.365-34.574-14.659l-0.083-1.98
		C88.642,21.792,96.089,20.795,102.871,20.795 M102.871,18.795c-6.898,0-14.911,0.987-24.224,3.43l0.228,5.467
		c0,0,0.071-0.002,0.207-0.002c2.183,0,21.152,0.403,34.873,14.124c0,0,5.924,5.695,0.683,11.161l-8.616,8.468l-0.04-0.04
		l-1.649,1.699l-0.819,0.805l0.019,0.02L83.659,84.409L64.525,65.504c-5.239-5.695-6.606-7.973-5.239-14.578
		c2.506-10.934-2.278-22.095-11.845-27.79c-5.345-3.066-10.421-4.07-14.774-4.07c-8.262,0-13.927,3.614-13.927,3.614l-1.367,1.824
		l14.35,9.111c0,0,8.656,5.011,0.911,17.312c-3.344,5.127-7.179,6.437-10.224,6.437c-3.177,0-5.493-1.425-5.493-1.425l-14.35-9.339
		l-1.139,1.822c0,0-0.683,17.312,13.211,26.195c4.006,2.625,8.18,3.658,11.962,3.658c2.455,0,4.744-0.435,6.716-1.152
		c1.143-0.364,2.215-0.55,3.265-0.55c3.552,0,6.846,2.128,11.769,6.7l18.906,17.993l-39.407,36.673
		c-3.417,3.419-3.417,9.111,0.228,12.53l8.656,8.884c1.569,1.792,3.8,2.648,6.041,2.648c2.314,0,4.639-0.912,6.259-2.648
		l34.167-41.231l36.447,38.953c2.96,2.847,6.775,4.271,10.562,4.271c3.787,0,7.545-1.424,10.392-4.271
		c5.924-5.922,5.924-15.034,0.23-20.728l-40.32-35.992l19.597-19.396l0.032,0.032l1.849-1.894l0.847-0.838l-0.014-0.014l8.214-8.413
		c1.293-1.201,3.149-1.877,5.277-1.877c3.12,0,6.827,1.453,10.212,4.838c2.732,2.735,4.1,5.696,3.645,7.291
		c-2.735,2.733-2.735,7.061,0,9.795l2.506,2.506c1.31,1.31,2.934,1.94,4.57,1.94c1.779,0,3.573-0.744,4.996-2.167l13.667-13.667
		c2.506-2.506,2.961-6.606,0.228-9.339l-2.506-2.506c-1.334-1.334-3.249-2.087-5.161-2.087c-1.68,0-3.356,0.581-4.636,1.859
		c-1.82-0.228-4.098-0.913-5.921-2.963c-4.328-4.556-1.139-13.211-4.1-16.4l-12.073-12.072
		C137.323,30.735,126.853,18.796,102.871,18.795L102.871,18.795z"/>
</g>
</svg>
