<?xml version="1.0" encoding="utf-8"?>
<!-- Generator: Adobe Illustrator 17.0.2, SVG Export Plug-In . SVG Version: 6.00 Build 0)  -->
<!DOCTYPE svg PUBLIC "-//W3C//DTD SVG 1.1//EN" "http://www.w3.org/Graphics/SVG/1.1/DTD/svg11.dtd">
<svg version="1.1" id="Calque_1" xmlns="http://www.w3.org/2000/svg" xmlns:xlink="http://www.w3.org/1999/xlink" x="0px" y="0px"
	 width="160px" height="290px" viewBox="0 0 160 290" enable-background="new 0 0 160 290" xml:space="preserve">
<g>
	<path fill="#6FAADA" stroke="#3C3C3C" stroke-miterlimit="10" d="M119.986,235.992"/>
	<path fill="#1D9F4D" stroke="#3C3C3C" stroke-width="2" stroke-miterlimit="10" d="M143.578,256.515
		c0-17.253-33.887-29.396-51.69-34.586l-10.549,14.664l-12.563-14.656c-18.141,4.752-49.676,15.723-49.676,34.578
		c0,6.102,0,6.138,0,6.138c0,13.029,10.562,23.591,23.591,23.591h75.761c13.029,0,25.126-10.562,25.126-23.591
		C143.578,262.652,143.578,263.384,143.578,256.515z"/>
	<path fill="#F7E8E9" stroke="#3C3C3C" stroke-width="2" stroke-miterlimit="10" d="M93.518,220.361
		c0,6.832,15.848,26.181-12.371,26.181s-12.371-19.348-12.371-26.181v-14.577c0-6.832,5.539-12.371,12.371-12.371l0,0
		c6.832,0,12.371,5.539,12.371,12.371V220.361z"/>
	<path fill="#F7E8E9" stroke="#3C3C3C" stroke-width="2" stroke-miterlimit="10" d="M31.436,153.819L31.436,153.819
		c-6.915,0-14.149-5.606-14.149-12.521v-14.387c0-6.915,7.234-12.521,14.149-12.521"/>
	<path fill="#F7E8E9" stroke="#3C3C3C" stroke-width="2" stroke-miterlimit="10" d="M130.857,114.39L130.857,114.39
		c6.915,0,14.149,5.606,14.149,12.521v14.387c0,6.915-7.234,12.521-14.149,12.521"/>
	<g id="face_3_">
		<path fill="#F7E8E9" d="M81.452,213.255c-22.673,0-54.128-36.317-54.128-52.311c0-22.885-2.376-74.955-2.75-82.996h114.026
			c-0.393,8.475-3.021,65.757-3.021,82.996C135.58,176.938,104.126,213.255,81.452,213.255z"/>
		<g>
			<path fill="#3C3C3C" d="M137.554,78.948c-0.523,11.333-2.974,65.33-2.974,81.996c0,7.668-7.462,20.417-18.567,31.722
				c-12.049,12.266-24.969,19.589-34.56,19.589s-22.511-7.323-34.56-19.589c-11.106-11.305-18.568-24.054-18.568-31.722
				c0-22.075-2.207-71.254-2.702-81.996H137.554 M139.649,76.948H23.527c0,0,2.797,59.023,2.797,83.996
				c0,17.249,32.666,53.311,55.128,53.311s55.128-36.062,55.128-53.311C136.58,142.214,139.649,76.948,139.649,76.948
				L139.649,76.948z"/>
		</g>
	</g>
	<circle fill="#3D3D3D" cx="50.755" cy="131.397" r="5.497"/>
	<circle fill="#3D3D3D" cx="110.52" cy="131.397" r="5.497"/>
	<path fill="none" stroke="#3C3C3C" stroke-width="3" stroke-miterlimit="10" d="M39.26,116.987c0,0,4.683-1.629,9.976-1.629
		s11.51,0.094,11.51,0.094"/>
	<path fill="none" stroke="#3C3C3C" stroke-width="3" stroke-miterlimit="10" d="M97.679,115.453c0,0,6.217-0.094,11.51-0.094
		c5.293,0,9.976,1.629,9.976,1.629"/>
	<path fill="#F4D5DB" d="M60.25,158.328c0,4.237-3.435,7.672-7.672,7.672h-6.955c-4.237,0-7.672-3.435-7.672-7.672l0,0
		c0-4.237,3.435-7.672,7.672-7.672h6.955C56.815,150.656,60.25,154.09,60.25,158.328L60.25,158.328z"/>
	<path fill="#F4D5DB" d="M123.845,158.328c0,4.237-3.435,7.672-7.672,7.672h-6.955c-4.237,0-7.672-3.435-7.672-7.672l0,0
		c0-4.237,3.435-7.672,7.672-7.672h6.955C120.41,150.656,123.845,154.09,123.845,158.328L123.845,158.328z"/>
	<path fill="none" stroke="#3C3C3C" stroke-width="2" stroke-miterlimit="10" d="M67.231,184.331c0,0,0.242,1.912,13.611,1.912
		s13.611-3.446,13.611-3.446"/>
	<path fill="none" stroke="#3C3C3C" stroke-width="2" stroke-miterlimit="10" d="M74.421,163.308c0,0,0.081,4.226,6.718,4.226
		c6.638,0,6.718-4.226,6.718-4.226"/>
	<path fill="#CA7C33" stroke="#3C3C3C" stroke-width="2" stroke-miterlimit="10" d="M86.75,21.202c0,0,1.918-4.987,4.603-4.987
		s3.836,2.493,3.836,2.493s3.452-6.629,7.672-7.247s5.37,4.87,5.37,4.87s-0.767-3.582,7.672-4.918s6.138,7.103,6.138,7.103
		s9.59-1.918,11.508,2.685c1.918,4.603-5.37,4.22-5.37,4.22s2.685,1.918,0,5.37c-2.685,3.452-6.521,4.987-6.521,4.987
		s6.014-0.767,12.213,0c6.2,0.767,4.282,3.836,4.282,3.836s6.138-1.918,8.056,1.918s2.302,7.672,2.302,7.672s5.37-2.685,7.288,1.918
		s0,4.603,0,4.603s10.741,1.918,6.905,8.056c-3.836,6.138-9.59,0-9.59,0s-1.151,2.302-2.302,4.603
		c-1.151,2.302-7.288-4.22-7.288-4.22s9.59,8.056,9.206,11.508c-0.384,3.452-3.069,4.603-3.069,4.603s6.138,1.534,5.754,5.37
		c-0.384,3.836-3.452,7.672-3.452,7.672s4.987,3.069,3.069,7.672c-1.918,4.603-4.603,5.754-4.603,5.754s3.452,2.302,2.302,7.672
		s-3.069,4.394-3.069,4.394s2.302,6.73-1.534,6.73c0,0-5.243-0.895-5.498-3.708c-0.256-2.813,0.511-3.836,0.511-3.836
		s-4.859,0-5.37-3.325c-0.511-3.325-0.256-5.37-0.256-5.37s-4.603-1.79-5.882-3.836c-1.279-2.046-2.302,6.138-2.302,6.138
		s-0.767,2.046-3.069,2.302c-2.302,0.256,0.256,5.115-3.325,5.115s-5.115-4.859-5.115-4.859s-3.836-0.767-3.836-3.58
		c0-2.813-2.557-6.138-2.557-6.138s-1.023-1.79-1.79-5.626c-0.767-3.836-3.325-2.557-3.325-2.557s1.023,2.046-1.534,4.603
		c-2.557,2.557-4.092,2.302-4.092,2.302s2.557,5.37-1.023,8.183s-6.905,2.046-6.905,2.046s0,5.882-4.092,5.882
		c-4.092,0-4.347-6.905-4.347-6.905s-3.58-2.046-4.092-4.603c-0.511-2.557,0-4.092,0-4.092s-3.836-1.023-4.603-3.836
		c-0.767-2.813-3.325-7.416-3.325-7.416s-1.023,7.161-4.859,8.183s-8.439-1.279-8.439-1.279s2.046,4.603-1.79,5.882
		c-3.836,1.279-6.393,0-6.393,0s-0.511,3.836-3.58,5.115c-3.069,1.279-5.882-0.767-5.882-0.767s1.023,2.557-2.557,5.37
		c-3.58,2.813-6.138,0-6.138,0s2.557,6.393,0,7.672c-2.557,1.279-5.37-0.767-5.37-0.767s3.069,4.603,0,6.138
		c-3.069,1.534-4.092,0-4.092,0s-0.767,6.649-5.115,4.347s-1.534-6.393-1.534-6.393s-3.325-1.534-4.092-5.626
		c-0.767-4.092,1.79-3.836,1.79-3.836s-2.589-2.046-1.934-5.626c0.655-3.58,3.468-3.836,3.468-3.836s-3.824-2.046-3.574-5.882
		s3.83-5.882,3.83-5.882l-1.79-5.115c0,0-1.534,1.279-5.115,1.279s-3.58,0-3.58,0s3.325,4.347,0,5.626
		C2.23,98.306-0.328,98.05-0.328,98.05s-2.302,6.649-6.649,3.58s0-7.928,0-7.928s0.256-4.092,1.023-6.905
		c0.767-2.813,3.069-3.069,3.069-3.069s-2.557-4.092-1.023-9.718c1.534-5.626,5.115-4.603,5.115-4.603s1.534,0.256,4.092-2.302
		s-2.046-5.115,2.046-7.928c4.092-2.813,7.928-2.302,7.928-2.302s1.279-2.557-0.511-4.347c-1.79-1.79-4.603,0-5.37-1.79
		c-0.767-1.79-0.767-3.069-0.767-3.069s-1.279,3.069-6.138,2.046s-4.347-5.37-4.347-5.37s0-3.836,4.347-5.115
		c4.347-1.279-1.79-1.534,4.603-5.115c6.393-3.58,8.183-2.557,8.183-2.557s-0.256-3.069,3.58-4.859
		c3.836-1.79,8.951,1.279,8.951,1.279s-1.023-4.859,3.836-6.138c4.859-1.279,9.718,0.256,9.718,0.256s-3.069-2.302-3.069-6.138
		s0-3.836,0-3.836s-6.138-2.302-4.603-5.626s10.229-1.023,10.229-1.023s4.603,3.069,6.138,3.069c1.534,0,2.302-2.302,6.649-2.302
		s5.882,3.836,5.882,3.836s4.092-2.302,8.951-1.023s4.092,5.115,4.092,5.115s1.279,0.511,5.37,1.534
		C85.087,16.727,86.75,21.202,86.75,21.202z"/>
	
		<rect x="33.364" y="121.324" fill="none" stroke="#3C3C3C" stroke-width="2" stroke-miterlimit="10" width="41.173" height="26.341"/>
	
		<rect x="88.602" y="121.324" fill="none" stroke="#3C3C3C" stroke-width="2" stroke-miterlimit="10" width="41.173" height="26.341"/>
	<polyline fill="none" stroke="#3C3C3C" stroke-width="2" stroke-miterlimit="10" points="74.537,126.822 81.588,125.288 
		88.602,126.822 	"/>
</g>
</svg>
