<?xml version="1.0" encoding="utf-8"?>
<!-- Generator: Adobe Illustrator 17.0.2, SVG Export Plug-In . SVG Version: 6.00 Build 0)  -->
<!DOCTYPE svg PUBLIC "-//W3C//DTD SVG 1.1//EN" "http://www.w3.org/Graphics/SVG/1.1/DTD/svg11.dtd">
<svg version="1.1" id="Calque_1" xmlns="http://www.w3.org/2000/svg" xmlns:xlink="http://www.w3.org/1999/xlink" x="0px" y="0px"
	 width="180px" height="180px" viewBox="0 0 180 180" enable-background="new 0 0 180 180" xml:space="preserve">
<path fill="none" stroke="#8DC34D" stroke-width="3" stroke-miterlimit="10" d="M175.579,47.593l-9.511-1.871
	c-1.079-4.438-2.827-8.658-5.223-12.58l5.408-8.057c0.584-0.862,0.468-2.018-0.267-2.753l-9.203-9.203
	c-0.421-0.421-0.977-0.636-1.54-0.636c-0.421,0-0.841,0.122-1.212,0.369l-8.057,5.408c-3.918-2.393-8.14-4.144-12.578-5.22
	l-1.871-9.511c-0.201-1.022-1.097-1.757-2.135-1.757h-13.019c-1.04,0-1.936,0.735-2.135,1.757l-1.873,9.511
	c-4.435,1.077-8.654,2.827-12.574,5.22l-8.061-5.408c-0.366-0.247-0.792-0.369-1.21-0.369c-0.561,0-1.122,0.217-1.543,0.636
	l-9.201,9.203c-0.737,0.735-0.848,1.891-0.269,2.753l5.408,8.057c-2.391,3.922-4.144,8.143-5.218,12.58l-9.511,1.871
	c-1.02,0.199-1.757,1.095-1.757,2.135v13.017c0,1.04,0.737,1.934,1.757,2.135l9.511,1.871c1.074,4.435,2.827,8.656,5.218,12.578
	l-5.408,8.057c-0.579,0.866-0.468,2.02,0.269,2.755l9.201,9.206c0.421,0.421,0.982,0.636,1.543,0.636c0.421,0,0.844-0.12,1.21-0.371
	l8.061-5.408c3.918,2.395,8.138,4.144,12.574,5.223l1.873,9.507c0.199,1.025,1.095,1.757,2.135,1.757h13.017
	c1.038,0,1.934-0.733,2.135-1.757l1.871-9.507c4.435-1.079,8.658-2.827,12.578-5.223l8.057,5.408
	c0.371,0.247,0.794,0.371,1.212,0.371c0.563,0,1.12-0.217,1.54-0.636l9.203-9.206c0.735-0.735,0.85-1.889,0.267-2.755l-5.408-8.057
	c2.395-3.922,4.144-8.143,5.223-12.578l9.511-1.871c1.02-0.201,1.755-1.095,1.755-2.135V49.728
	C177.335,48.688,176.599,47.792,175.579,47.593z M122.88,86.725c-16.815,0-30.488-13.677-30.488-30.488S106.068,25.75,122.88,25.75
	c16.81,0,30.488,13.677,30.488,30.488S139.691,86.725,122.88,86.725z"/>
<path fill="none" stroke="#8DC34D" stroke-width="3" stroke-miterlimit="10" d="M91.624,141.666l-6.338-4.214
	c0.403-3.176,0.405-6.378,0.002-9.547l6.335-4.214c0.864-0.579,1.203-1.687,0.805-2.646l-4.983-12.024
	c-0.339-0.826-1.145-1.348-2.011-1.348c-0.14,0-0.287,0.018-0.427,0.045l-7.457,1.502c-1.961-2.531-4.227-4.793-6.754-6.754
	l1.497-7.462c0.208-1.016-0.339-2.04-1.303-2.438l-12.019-4.983c-0.274-0.111-0.552-0.165-0.835-0.165
	c-0.71,0-1.4,0.348-1.814,0.973l-4.216,6.335c-1.583-0.199-3.185-0.301-4.779-0.301c-1.586,0-3.185,0.102-4.766,0.301l-4.214-6.335
	c-0.414-0.62-1.099-0.973-1.812-0.973c-0.283,0-0.563,0.054-0.835,0.165l-12.024,4.983c-0.964,0.398-1.506,1.423-1.303,2.438
	l1.502,7.462c-2.526,1.957-4.788,4.223-6.754,6.754l-7.457-1.502c-0.145-0.027-0.287-0.045-0.432-0.045
	c-0.864,0-1.665,0.52-2.011,1.348l-4.978,12.024c-0.398,0.959-0.061,2.067,0.803,2.646l6.335,4.214c-0.4,3.171-0.403,6.374,0,9.547
	l-6.335,4.214c-0.866,0.579-1.201,1.687-0.803,2.646l4.978,12.024c0.344,0.826,1.147,1.348,2.011,1.348
	c0.145,0,0.287-0.018,0.432-0.045l7.457-1.502c1.961,2.526,4.223,4.793,6.754,6.754l-1.502,7.457
	c-0.204,1.02,0.339,2.045,1.303,2.443l12.024,4.983c0.271,0.111,0.552,0.163,0.835,0.163c0.71,0,1.398-0.348,1.812-0.973
	l4.214-6.335c1.586,0.199,3.189,0.301,4.779,0.301s3.189-0.102,4.77-0.301l4.212,6.335c0.414,0.622,1.102,0.973,1.814,0.973
	c0.283,0,0.561-0.052,0.835-0.163l12.024-4.983c0.959-0.398,1.506-1.423,1.298-2.443l-1.497-7.457
	c2.526-1.956,4.788-4.223,6.749-6.754l7.462,1.502c0.14,0.027,0.287,0.045,0.427,0.045c0.866,0,1.669-0.52,2.011-1.348l4.983-12.024
	C92.827,143.353,92.486,142.245,91.624,141.666z M47.325,96.601c0.31,0,0.617,0.009,0.927,0.018
	c-0.314-0.009-0.631-0.018-0.945-0.018H47.325z M47.339,168.756c-0.319,0-0.636-0.009-0.959-0.018
	c0.328,0.009,0.654,0.018,0.982,0.018H47.339z M70.064,142.096c-3.823,9.228-12.75,15.193-22.741,15.193
	c-3.234,0-6.397-0.627-9.409-1.877c-12.533-5.191-18.506-19.61-13.316-32.148c3.825-9.228,12.75-15.193,22.743-15.193
	c3.23,0,6.397,0.631,9.405,1.877c6.075,2.513,10.8,7.245,13.32,13.316C72.581,129.337,72.581,136.02,70.064,142.096z"/>
</svg>
