<?xml version="1.0" encoding="utf-8"?>
<!-- Generator: Adobe Illustrator 17.0.2, SVG Export Plug-In . SVG Version: 6.00 Build 0)  -->
<!DOCTYPE svg PUBLIC "-//W3C//DTD SVG 1.1//EN" "http://www.w3.org/Graphics/SVG/1.1/DTD/svg11.dtd">
<svg version="1.1" id="avatar_3" xmlns="http://www.w3.org/2000/svg" xmlns:xlink="http://www.w3.org/1999/xlink" x="0px" y="0px"
	 width="399.355px" height="374.483px" viewBox="0 0 399.355 374.483" enable-background="new 0 0 399.355 374.483"
	 xml:space="preserve">
<g id="clothes_-_copie_2">
</g>
<g id="neck_-_copie_2">
</g>
<g id="face_-_copie_2">
</g>
<g id="eyes_-_copie_2">
</g>
<g id="eyebrows_-_copie_2">
</g>
<g id="cheeks_-_copie_2">
</g>
<g id="mouth_-_copie_2">
</g>
<g id="nose_-_copie_2">
</g>
<g id="hair_1_">
</g>
<g id="ears_-_copie_2">
</g>
<path fill="#FF7B52" stroke="#3C3C3C" stroke-width="2" stroke-miterlimit="10" d="M130.269,343.938
	c0-22.468-59.853-35.912-59.853-35.912s-59.668,10.497-59.668,35.912v5.893c0,12.51,10.142,22.652,22.652,22.652h72.744
	c12.51,0,24.125-10.142,24.125-22.652V343.938z"/>
<path fill="#65AEF1" stroke="#3C3C3C" stroke-miterlimit="10" d="M107.617,324.232"/>
<path fill="#D1B9B6" stroke="#3C3C3C" stroke-width="2" stroke-miterlimit="10" d="M82.203,319.536
	c0,6.56-11.878,17.772-11.878,17.772s-11.878-11.211-11.878-17.772v-16.943c0-6.56,5.318-11.878,11.878-11.878l0,0
	c6.56,0,11.878,5.318,11.878,11.878V319.536z"/>
<g id="face_3_">
	<path fill="#D1B9B6" d="M70.429,303.834c-13.889,0-27.437-5.794-38.146-16.315c-9.938-9.764-15.872-22.426-15.872-33.873
		c0-22.108,0.225-81.527,0.257-89.964h103.608v89.964C120.276,271.275,99.72,303.834,70.429,303.834z"/>
	<path fill="#3C3C3C" d="M119.276,164.682v88.964c0,17.277-20.144,49.187-48.847,49.187c-13.626,0-26.924-5.692-37.445-16.028
		c-9.751-9.579-15.572-21.975-15.572-33.159c0-21.379,0.21-77.652,0.253-88.964H119.276 M121.276,162.682H15.672
		c0,0-0.261,66.985-0.261,90.964s24.783,51.187,55.018,51.187s50.847-33.203,50.847-51.187S121.276,162.682,121.276,162.682
		L121.276,162.682z"/>
</g>
<circle fill="#3C3C3C" cx="38.869" cy="223.803" r="5.278"/>
<circle fill="#3C3C3C" cx="97.728" cy="223.803" r="5.278"/>
<path fill="none" stroke="#3C3C3C" stroke-width="3" stroke-miterlimit="10" d="M29.305,205.547c0,0,4.496-1.564,9.579-1.564
	s11.052,3.037,11.052,3.037"/>
<path fill="none" stroke="#3C3C3C" stroke-width="3" stroke-miterlimit="10" d="M83.925,207.02c0,0,5.969-3.037,11.052-3.037
	c5.083,0,9.579,1.564,9.579,1.564"/>
<circle fill="#C99A97" cx="39.835" cy="252.607" r="7.366"/>
<circle fill="#C99A97" cx="94.347" cy="252.607" r="7.366"/>
<path fill="none" stroke="#3C3C3C" stroke-width="2" stroke-miterlimit="10" d="M48.796,270.208c0,0,6.125,6.255,18.962,6.255
	s18.962-6.255,18.962-6.255"/>
<path fill="none" stroke="#3C3C3C" stroke-width="2" stroke-miterlimit="10" d="M58.646,252.97c0,0,3.024-6.255,9.397-6.255
	s9.397,6.255,9.397,6.255"/>
<path fill="#7F6969" stroke="#3C3C3C" stroke-width="2" stroke-miterlimit="10" d="M120.43,221.849c0,0,16.181-53.449,9.576-62.615
	c-6.605-9.166-11.532-11.532-11.532-11.532L120.43,221.849z"/>
<path fill="#7F6969" stroke="#3C3C3C" stroke-width="2" stroke-miterlimit="10" d="M16.474,243.949V182.07
	c0,0,37.111,8.471,70.165,8.471s47.419-57.827,47.419-57.827s-100.73-2.578-116.111,9.208S2.934,171.389,2.934,192.015
	S16.474,243.949,16.474,243.949z"/>
<path fill="#D1B9B6" stroke="#3C3C3C" stroke-width="2" stroke-miterlimit="10" d="M15.9,251.225L15.9,251.225
	c-6.64,0-13.586-5.382-13.586-12.022v-13.814c0-6.64,6.946-12.022,13.586-12.022"/>
<path fill="#D1B9B6" stroke="#3C3C3C" stroke-width="2" stroke-miterlimit="10" d="M120.201,213.366L120.201,213.366
	c6.64,0,13.586,5.382,13.586,12.022v13.814c0,6.64-6.946,12.022-13.586,12.022"/>
<path fill="#FCC472" stroke="#3C3C3C" stroke-width="2" stroke-miterlimit="10" d="M363.21,371.804H219.118
	c-15.086,0-34.145-15.496-34.145-44.966c0-29.47,9.561-41.893,27.316-55.998s78.682-90.143,78.682-90.143
	s63.703,76.249,79.068,88.777c15.365,12.528,27.316,33.226,27.316,57.364S378.297,371.804,363.21,371.804z"/>
<path fill="#43ADEF" stroke="#3C3C3C" stroke-width="2" stroke-miterlimit="10" d="M348.016,345.683
	c0-20.828-55.486-33.291-55.486-33.291s-55.315,9.731-55.315,33.291v5.463c0,11.598,9.402,20.999,20.999,20.999h67.436
	c11.598,0,22.365-9.402,22.365-20.999V345.683z"/>
<path fill="#65AEF1" stroke="#3C3C3C" stroke-miterlimit="10" d="M327.017,327.416"/>
<path fill="#F7DADE" stroke="#3C3C3C" stroke-width="2" stroke-miterlimit="10" d="M303.457,328.525
	c0,6.082-4.93,11.012-11.012,11.012l0,0c-6.082,0-11.012-4.93-11.012-11.012v-15.707c0-6.082,4.93-11.012,11.012-11.012l0,0
	c6.082,0,11.012,4.93,11.012,11.012V328.525z"/>
<g id="face_4_">
	<path fill="#F7DADE" d="M292.542,308.432c-27.195,0-58.198-24.746-58.198-46.453c0-20.434,0.207-75.247,0.238-83.327h112.292
		v83.327C346.874,278.631,319.488,308.432,292.542,308.432z"/>
	<path fill="#3C3C3C" d="M345.874,179.653v82.327c0,7.702-6.643,19.165-16.53,28.526c-11.362,10.757-24.776,16.927-36.802,16.927
		c-26.728,0-57.198-24.213-57.198-45.453c0-19.729,0.193-71.514,0.234-82.327H345.874 M347.874,177.653H233.585
		c0,0-0.242,62.098-0.242,84.327s31.17,47.453,59.198,47.453s55.332-30.781,55.332-47.453
		C347.874,245.308,347.874,177.653,347.874,177.653L347.874,177.653z"/>
</g>
<circle fill="#3C3C3C" cx="259.187" cy="234.314" r="4.893"/>
<circle fill="#3C3C3C" cx="320.581" cy="234.314" r="4.893"/>
<path fill="none" stroke="#3C3C3C" stroke-width="2" stroke-miterlimit="10" d="M248.955,216.024c0,0,4.168-1.45,8.88-1.45
	c4.712,0,12.977,4.181,12.977,4.181"/>
<path fill="none" stroke="#3C3C3C" stroke-width="2" stroke-miterlimit="10" d="M306.419,218.756c0,0,8.265-4.181,12.977-4.181
	s8.88,1.45,8.88,1.45"/>
<path fill="#F7C9D0" d="M272.188,266.245c0,3.87-3.137,7.007-7.007,7.007h-9.303c-3.87,0-7.007-3.137-7.007-7.007l0,0
	c0-3.87,3.137-7.007,7.007-7.007h9.303C269.051,259.238,272.188,262.375,272.188,266.245L272.188,266.245z"/>
<path fill="#F7C9D0" d="M332.467,266.245c0,3.87-3.137,7.007-7.007,7.007h-9.303c-3.87,0-7.007-3.137-7.007-7.007l0,0
	c0-3.87,3.137-7.007,7.007-7.007h9.303C329.33,259.238,332.467,262.375,332.467,266.245L332.467,266.245z"/>
<path fill="none" stroke="#3C3C3C" stroke-width="2" stroke-miterlimit="10" d="M272.487,280.065c0,0,5.678,5.799,17.578,5.799
	s17.578-5.799,17.578-5.799"/>
<path fill="none" stroke="#3C3C3C" stroke-width="2" stroke-miterlimit="10" d="M288.797,251.107c0,0,5.799,0.072,5.799,5.98
	c0,5.908-5.799,5.98-5.799,5.98"/>
<path fill="#FCC472" stroke="#3C3C3C" stroke-width="2" stroke-miterlimit="10" d="M225.37,189.456
	c0-31.627,31.946-58.715,67.776-58.715s63.427,27.088,63.427,58.715c0,5.936,0,46.398,0,46.398l-7.974-10.4
	c0,0-55.753-19.252-55.753-50.911c0,31.659-58.536,37.384-58.536,37.384l-0.242,15.228l-8.699,1.444
	C225.37,228.599,225.37,221.082,225.37,189.456z"/>
<path fill="#F7DADE" stroke="#3C3C3C" stroke-width="2" stroke-miterlimit="10" d="M233.797,259.735L233.797,259.735
	c-6.155,0-12.595-4.99-12.595-11.145v-12.806c0-6.155,6.44-11.145,12.595-11.145"/>
<path fill="#F7DADE" stroke="#3C3C3C" stroke-width="2" stroke-miterlimit="10" d="M346.877,224.639L346.877,224.639
	c6.155,0,12.595,4.99,12.595,11.145v12.806c0,6.155-6.44,11.145-12.595,11.145"/>
<path fill="none" stroke="#3C3C3C" stroke-width="3" stroke-miterlimit="10" d="M282.742,245.354c0,10.12-9.57,18.324-19.69,18.324
	h-8.422c-18.552,0-26.51-36.649-16.39-36.649h27.544C275.904,227.029,282.742,235.234,282.742,245.354L282.742,245.354z"/>
<path fill="none" stroke="#3C3C3C" stroke-width="3" stroke-miterlimit="10" d="M296.637,245.354c0,10.12,9.57,18.324,19.69,18.324
	h8.422c18.552,0,26.51-36.649,16.39-36.649h-27.544C303.475,227.029,296.637,235.234,296.637,245.354L296.637,245.354z"/>
<path fill="none" stroke="#3C3C3C" stroke-width="3" stroke-miterlimit="10" d="M281.995,239.731c0,0,3.148-1.366,7.601-1.366
	s7.601,1.366,7.601,1.366"/>
<path fill="none" stroke="#3C3C3C" stroke-width="2" stroke-miterlimit="10" d="M280.523,33l5,14.132l15,0.383l-11.91,9.117
	L292.884,71l-12.361-8.497L268.163,71l4.271-14.368l-11.91-9.117l15-0.383L280.523,33z"/>
<path fill="#3C3C3C" stroke="#3C3C3C" stroke-width="2" stroke-miterlimit="10" d="M230.523,33l5,14.132l15,0.383l-11.91,9.117
	L242.884,71l-12.361-8.497L218.163,71l4.27-14.368l-11.91-9.117l15-0.383L230.523,33z"/>
<path fill="#3C3C3C" stroke="#3C3C3C" stroke-width="2" stroke-miterlimit="10" d="M180.523,33l5,14.132l15,0.383l-11.91,9.117
	L192.884,71l-12.361-8.497L168.163,71l4.271-14.368l-11.91-9.117l15-0.383L180.523,33z"/>
<path fill-rule="evenodd" clip-rule="evenodd" fill="none" stroke="#3C3C3C" stroke-width="2" stroke-miterlimit="10" d="M130.523,1
	h200v103.337H200.261L163.101,141l0.428-36.662h-33.006V1z"/>
</svg>
