<?xml version="1.0" encoding="utf-8"?>
<!-- Generator: Adobe Illustrator 17.0.2, SVG Export Plug-In . SVG Version: 6.00 Build 0)  -->
<!DOCTYPE svg PUBLIC "-//W3C//DTD SVG 1.1//EN" "http://www.w3.org/Graphics/SVG/1.1/DTD/svg11.dtd">
<svg version="1.1" id="JC" xmlns="http://www.w3.org/2000/svg" xmlns:xlink="http://www.w3.org/1999/xlink" x="0px" y="0px"
	 width="463.333px" height="188.776px" viewBox="0 0 463.333 188.776" enable-background="new 0 0 463.333 188.776"
	 xml:space="preserve">
<path fill="#65AEF1" stroke="#3C3C3C" stroke-miterlimit="10" d="M442.794,154.565"/>
<path fill="#D8192F" stroke="#3C3C3C" stroke-width="2" stroke-miterlimit="10" d="M444.148,149.362
	c0,7.554-10.124,13.679-17.679,13.679h-19.976c-7.554,0-16.679-6.124-16.679-13.679l0,0c0-7.554,9.124-13.679,16.679-13.679h19.976
	C434.024,135.683,444.148,141.808,444.148,149.362L444.148,149.362z"/>
<path fill="#D8192F" stroke="#3C3C3C" stroke-width="2" stroke-miterlimit="10" d="M458.169,167.94
	c0-11.244-22.085-19.158-33.688-22.54l-6.875,9.557l-8.188-9.552c-11.823,3.097-32.375,10.247-32.375,22.535c0,3.977,0,4,0,4
	c0,8.491,6.884,15.375,15.375,15.375h49.375c8.491,0,16.375-6.884,16.375-15.375C458.169,171.94,458.169,172.417,458.169,167.94z"/>
<path fill="#D8192F" stroke="#3C3C3C" stroke-width="2" stroke-miterlimit="10" d="M436.57,143.604c0,4.66,4.983,24.437-18.8,24.437
	s-19.533-19.777-19.533-24.437"/>
<line fill="#FFFFFF" stroke="#FFFFFF" stroke-width="2" stroke-miterlimit="10" x1="406.982" y1="160.521" x2="406.982" y2="179.315"/>
<line fill="#FFFFFF" stroke="#FFFFFF" stroke-width="2" stroke-miterlimit="10" x1="426.982" y1="160.521" x2="426.982" y2="179.315"/>
<path fill="#F9E4E6" stroke="#3C3C3C" stroke-width="2" stroke-miterlimit="10" d="M425.544,146.377
	c0,4.453,0.683,12.062-8.062,12.062c-8.745,0-8.062-7.61-8.062-12.062v-11.5c0-4.453,3.61-8.062,8.062-8.062l0,0
	c4.453,0,8.062,3.61,8.062,8.062V146.377z"/>
<path fill="#F9E4E6" stroke="#3C3C3C" stroke-width="2" stroke-miterlimit="10" d="M385.084,105.011L385.084,105.011
	c-4.507,0-9.222-3.653-9.222-8.16v-9.376c0-4.507,4.715-8.16,9.222-8.16"/>
<path fill="#F9E4E6" stroke="#3C3C3C" stroke-width="2" stroke-miterlimit="10" d="M449.879,79.314L449.879,79.314
	c4.507,0,9.221,3.653,9.221,8.16v9.376c0,4.507-4.715,8.16-9.221,8.16"/>
<g id="face_18_">
	<path fill="#F9E4E6" d="M417.681,139.398c-14.631,0-34.929-23.427-34.929-33.743c0-14.611-1.485-47.459-1.775-53.742h73.584
		c-0.307,6.625-1.952,42.722-1.952,53.742C452.609,115.971,432.312,139.398,417.681,139.398z"/>
	<g>
		<path fill="#3C3C3C" d="M453.514,52.913c-0.401,8.726-1.905,42.188-1.905,52.742c0,9.75-20.076,32.744-33.928,32.744
			s-33.928-22.993-33.928-32.744c0-13.951-1.351-44.48-1.728-52.742H453.514 M455.609,50.913H379.93c0,0,1.823,38.466,1.823,54.742
			c0,11.241,21.289,34.744,35.928,34.744s35.928-23.502,35.928-34.744C453.609,93.448,455.609,50.913,455.609,50.913L455.609,50.913
			z"/>
	</g>
</g>
<circle fill="#3C3C3C" cx="397.675" cy="86.398" r="3.582"/>
<circle fill="#3C3C3C" cx="436.625" cy="86.398" r="3.582"/>
<path fill="none" stroke="#3C3C3C" stroke-width="3" stroke-miterlimit="10" d="M390.183,75.007c0,0,3.052-1.061,6.501-1.061
	s7.501,0.061,7.501,0.061"/>
<path fill="none" stroke="#3C3C3C" stroke-width="3" stroke-miterlimit="10" d="M428.256,74.007c0,0,4.052-0.061,7.501-0.061
	s6.501,1.061,6.501,1.061"/>
<path fill="#F4CED3" d="M403.863,103.949c0,2.761-2.239,5-5,5h-4.533c-2.761,0-5-2.239-5-5l0,0c0-2.761,2.239-5,5-5h4.533
	C401.624,98.949,403.863,101.188,403.863,103.949L403.863,103.949z"/>
<path fill="#F4CED3" d="M445.309,103.949c0,2.761-2.239,5-5,5h-4.533c-2.761,0-5-2.239-5-5l0,0c0-2.761,2.239-5,5-5h4.533
	C443.07,98.949,445.309,101.188,445.309,103.949L445.309,103.949z"/>
<path fill="none" stroke="#3C3C3C" stroke-width="2" stroke-miterlimit="10" d="M406.412,119.896c0,0,2.157,2.246,10.87,2.246
	c8.713,0,11.87-5.246,11.87-5.246"/>
<path fill="none" stroke="#3C3C3C" stroke-width="2" stroke-miterlimit="10" d="M411.098,107.195c0,0,2.053,2.754,6.379,2.754
	s6.379-2.754,6.379-2.754"/>
<path fill="#CF9236" stroke="#3C3C3C" stroke-width="2" stroke-miterlimit="10" d="M385.095,84.169l-2.199,0.647
	c0,0-3.104-5.561-3.104-12.415c0-6.854-2.716-17.718,0-23.408s9.958-12.027,9.958-12.027l-2.845-6.078h4.526l1.035-8.406
	l6.337,6.208l28.064-8.147l-3.233,4.268l25.865,6.078l-8.018,1.552c0,0,5.044,7.372,8.794,9.441s10.346,6.596,10.346,6.596
	l-6.078,1.164c0,0,2.586,2.845,2.586,5.69c0,2.845-3.362,28.193-3.362,28.193l-3.492,0.388c0,0,2.586-13.45,0.647-22.503
	c-1.94-9.053-5.561-7.889-5.561-7.889s-7.372,5.044-23.537,5.044c-16.166,0-27.288-6.466-31.297-4.914
	c-4.009,1.552-5.302,5.82-5.69,10.346C384.448,68.521,385.095,84.169,385.095,84.169z"/>
<path fill="#65AEF1" stroke="#3C3C3C" stroke-miterlimit="10" d="M371.181,154.482"/>
<path fill="#149E0D" stroke="#3C3C3C" stroke-width="2" stroke-miterlimit="10" d="M386.556,167.857
	c0-11.244-22.085-19.158-33.688-22.54l-6.875,9.557l-8.188-9.552c-11.823,3.097-32.375,10.247-32.375,22.535c0,3.977,0,4,0,4
	c0,8.491,6.884,15.375,15.375,15.375h49.375c8.491,0,16.375-6.884,16.375-15.375C386.556,171.857,386.556,172.334,386.556,167.857z"
	/>
<path fill="#F7E8EA" stroke="#3C3C3C" stroke-width="2" stroke-miterlimit="10" d="M353.931,144.295
	c0,4.453,10.328,17.062-8.062,17.062s-8.062-12.61-8.062-17.062v-9.5c0-4.453,3.61-8.062,8.062-8.062l0,0
	c4.453,0,8.062,3.61,8.062,8.062V144.295z"/>
<path fill="#F7E8EA" stroke="#3C3C3C" stroke-width="2" stroke-miterlimit="10" d="M322.471,100.928L322.471,100.928
	c-4.507,0-9.221-3.653-9.221-8.16v-9.376c0-4.507,4.715-8.16,9.221-8.16"/>
<path fill="#F7E8EA" stroke="#3C3C3C" stroke-width="2" stroke-miterlimit="10" d="M378.265,75.232L378.265,75.232
	c4.507,0,9.221,3.653,9.221,8.16v9.376c0,4.507-4.715,8.16-9.221,8.16"/>
<g id="face_1_">
	<path fill="#F7E8EA" d="M346.067,139.315c-14.631,0-34.928-23.427-34.928-33.743c0-14.611-1.485-47.459-1.775-53.742h73.583
		c-0.307,6.625-1.952,42.722-1.952,53.742C380.995,115.888,360.698,139.315,346.067,139.315z"/>
	<g>
		<path fill="#3C3C3C" d="M381.9,52.83c-0.401,8.726-1.905,42.188-1.905,52.742c0,9.75-20.076,32.744-33.928,32.744
			s-33.928-22.993-33.928-32.744c0-13.951-1.351-44.48-1.728-52.742H381.9 M383.995,50.83h-75.679c0,0,1.823,38.466,1.823,54.742
			c0,11.241,21.289,34.744,35.928,34.744s35.928-23.502,35.928-34.744C381.995,93.365,383.995,50.83,383.995,50.83L383.995,50.83z"
			/>
	</g>
</g>
<circle fill="#3C3C3C" cx="326.061" cy="86.316" r="3.582"/>
<circle fill="#3C3C3C" cx="365.012" cy="86.316" r="3.582"/>
<path fill="none" stroke="#3C3C3C" stroke-width="3" stroke-miterlimit="10" d="M318.569,76.924c0,0,3.052-1.061,6.501-1.061
	s7.501,0.061,7.501,0.061"/>
<path fill="none" stroke="#3C3C3C" stroke-width="3" stroke-miterlimit="10" d="M356.643,75.924c0,0,4.052-0.061,7.501-0.061
	s6.501,1.061,6.501,1.061"/>
<path fill="#F4D4DA" d="M332.249,103.867c0,2.761-2.239,5-5,5h-4.533c-2.761,0-5-2.239-5-5l0,0c0-2.761,2.239-5,5-5h4.533
	C330.011,98.867,332.249,101.105,332.249,103.867L332.249,103.867z"/>
<path fill="#F4D4DA" d="M373.695,103.867c0,2.761-2.239,5-5,5h-4.533c-2.761,0-5-2.239-5-5l0,0c0-2.761,2.239-5,5-5h4.533
	C371.457,98.867,373.695,101.105,373.695,103.867L373.695,103.867z"/>
<path fill="none" stroke="#3C3C3C" stroke-width="2" stroke-miterlimit="10" d="M336.799,120.813c0,0,0.157,1.246,8.87,1.246
	s8.87-2.246,8.87-2.246"/>
<path fill="none" stroke="#3C3C3C" stroke-width="2" stroke-miterlimit="10" d="M341.485,107.112c0,0,0.053,2.754,4.379,2.754
	s4.379-2.754,4.379-2.754"/>
<path fill="#CC7A0D" stroke="#3C3C3C" stroke-width="2" stroke-miterlimit="10" d="M349.52,14.499c0,0,1.25-3.25,3-3.25
	s2.5,1.625,2.5,1.625s2.25-4.321,5-4.723c2.75-0.402,3.5,3.174,3.5,3.174s-0.5-2.335,5-3.205s4,4.629,4,4.629s6.25-1.25,7.5,1.75
	s-3.5,2.75-3.5,2.75s1.75,1.25,0,3.5s-4.25,3.25-4.25,3.25s3.919-0.5,7.96,0s2.79,2.5,2.79,2.5s4-1.25,5.25,1.25s1.5,5,1.5,5
	s3.5-1.75,4.75,1.25s0,3,0,3s7,1.25,4.5,5.25s-6.25,0-6.25,0s-0.75,1.5-1.5,3s-4.75-2.75-4.75-2.75s6.25,5.25,6,7.5s-2,3-2,3
	s4,1,3.75,3.5s-2.25,5-2.25,5s3.25,2,2,5s-3,3.75-3,3.75s2.25,1.5,1.5,5s-2,2.864-2,2.864s1.5,4.386-1,4.386
	c0,0-3.417-0.583-3.583-2.417c-0.167-1.833,0.333-2.5,0.333-2.5s-3.167,0-3.5-2.167c-0.333-2.167-0.167-3.5-0.167-3.5
	s-3-1.167-3.833-2.5c-0.833-1.333-1.5,4-1.5,4s-0.5,1.333-2,1.5c-1.5,0.167,0.167,3.333-2.167,3.333
	c-2.333,0-3.333-3.167-3.333-3.167s-2.5-0.5-2.5-2.333c0-1.833-1.667-4-1.667-4s-0.667-1.167-1.167-3.667s-2.167-1.667-2.167-1.667
	s0.667,1.333-1,3c-1.667,1.667-2.667,1.5-2.667,1.5s1.667,3.5-0.667,5.333c-2.333,1.833-4.5,1.333-4.5,1.333s0,3.833-2.667,3.833
	c-2.667,0-2.833-4.5-2.833-4.5s-2.333-1.333-2.667-3c-0.333-1.667,0-2.667,0-2.667s-2.5-0.667-3-2.5
	c-0.5-1.833-2.167-4.833-2.167-4.833s-0.667,4.667-3.167,5.333s-5.5-0.833-5.5-0.833s1.333,3-1.167,3.833
	c-2.5,0.833-4.167,0-4.167,0s-0.333,2.5-2.333,3.333c-2,0.833-3.833-0.5-3.833-0.5s0.667,1.667-1.667,3.5c-2.333,1.833-4,0-4,0
	s1.667,4.167,0,5c-1.667,0.833-3.5-0.5-3.5-0.5s2,3,0,4s-2.667,0-2.667,0s-0.5,4.333-3.333,2.833c-2.833-1.5-1-4.167-1-4.167
	s-2.167-1-2.667-3.667c-0.5-2.667,1.167-2.5,1.167-2.5s-1.687-1.333-1.26-3.667c0.427-2.333,2.26-2.5,2.26-2.5
	s-2.492-1.333-2.329-3.833c0.163-2.5,2.496-3.833,2.496-3.833l-1.167-3.333c0,0-1,0.833-3.333,0.833s-2.333,0-2.333,0
	s2.167,2.833,0,3.667c-2.167,0.833-3.833,0.667-3.833,0.667s-1.5,4.333-4.333,2.333s0-5.167,0-5.167s0.167-2.667,0.667-4.5
	c0.5-1.833,2-2,2-2s-1.667-2.667-0.667-6.333s3.333-3,3.333-3s1,0.167,2.667-1.5s-1.333-3.333,1.333-5.167
	c2.667-1.833,5.167-1.5,5.167-1.5s0.833-1.667-0.333-2.833c-1.167-1.167-3,0-3.5-1.167c-0.5-1.167-0.5-2-0.5-2s-0.833,2-4,1.333
	c-3.167-0.667-2.833-3.5-2.833-3.5s0-2.5,2.833-3.333c2.833-0.833-1.167-1,3-3.333c4.167-2.333,5.333-1.667,5.333-1.667
	s-0.167-2,2.333-3.167c2.5-1.167,5.833,0.833,5.833,0.833s-0.667-3.167,2.5-4c3.167-0.833,6.333,0.167,6.333,0.167s-2-1.5-2-4
	s0-2.5,0-2.5s-4-1.5-3-3.667s6.667-0.667,6.667-0.667s3,2,4,2s1.5-1.5,4.333-1.5s3.833,2.5,3.833,2.5s2.667-1.5,5.833-0.667
	c3.167,0.833,2.667,3.333,2.667,3.333s0.833,0.333,3.5,1C348.436,11.583,349.52,14.499,349.52,14.499z"/>
<rect x="314.727" y="79.751" fill="none" stroke="#3C3C3C" stroke-width="2" stroke-miterlimit="10" width="26.833" height="17.167"/>
<rect x="350.727" y="79.751" fill="none" stroke="#3C3C3C" stroke-width="2" stroke-miterlimit="10" width="26.833" height="17.167"/>
<polyline fill="none" stroke="#3C3C3C" stroke-width="2" stroke-miterlimit="10" points="341.56,83.334 346.156,82.334 
	350.727,83.334 "/>
<path fill="#65AEF1" stroke="#3C3C3C" stroke-miterlimit="10" d="M68.225,154.565"/>
<path fill="#FFFFFF" stroke="#3C3C3C" stroke-width="2" stroke-miterlimit="10" d="M83.6,167.94
	c0-11.244-22.085-19.158-33.688-22.54l-6.875,9.557l-8.188-9.552c-11.823,3.097-32.375,10.247-32.375,22.535c0,3.977,0,4,0,4
	c0,8.491,6.884,15.375,15.375,15.375h49.375c8.491,0,16.375-6.884,16.375-15.375C83.6,171.94,83.6,172.417,83.6,167.94z"/>
<path fill="#F9E4E6" stroke="#3C3C3C" stroke-width="2" stroke-miterlimit="10" d="M50.975,146.377
	c0,4.453-8.062,24.062-8.062,24.062s-8.062-19.61-8.062-24.062v-11.5c0-4.453,3.61-8.062,8.062-8.062l0,0
	c4.453,0,8.062,3.61,8.062,8.062V146.377z"/>
<path fill="#F9E4E6" stroke="#3C3C3C" stroke-width="2" stroke-miterlimit="10" d="M10.515,105.011L10.515,105.011
	c-4.507,0-9.221-3.653-9.221-8.16v-9.376c0-4.507,4.715-8.16,9.221-8.16"/>
<path fill="#F9E4E6" stroke="#3C3C3C" stroke-width="2" stroke-miterlimit="10" d="M75.309,79.314L75.309,79.314
	c4.507,0,9.221,3.653,9.221,8.16v9.376c0,4.507-4.715,8.16-9.221,8.16"/>
<g id="face_13_">
	<path fill="#F9E4E6" d="M43.111,139.398c-19.828,0-34.928-22.489-34.928-33.743c0-14.915-1.547-47.136-1.792-52.137l31.315-15.528
		L80.005,51.63c-0.27,5.8-1.966,42.836-1.966,54.025C78.039,116.909,62.939,139.398,43.111,139.398z"/>
	<g>
		<path fill="#3C3C3C" d="M37.786,39.066L78.97,52.347c-0.356,7.731-1.931,42.51-1.931,53.308c0,5.451-3.962,13.787-9.636,20.27
			c-4.076,4.658-12.653,12.473-24.292,12.473c-11.64,0-20.216-7.815-24.292-12.473c-5.673-6.484-9.636-14.819-9.636-20.27
			c0-14.394-1.438-44.853-1.761-51.532L37.786,39.066 M37.626,36.913l-32.266,16c0,0,1.823,36.466,1.823,52.742
			c0,11.241,15.039,34.744,35.928,34.744c20.889,0,35.928-23.502,35.928-34.744c0-12.207,2-54.742,2-54.742L37.626,36.913
			L37.626,36.913z"/>
	</g>
</g>
<circle fill="#3C3C3C" cx="23.105" cy="86.398" r="3.582"/>
<circle fill="#3C3C3C" cx="62.056" cy="86.398" r="3.582"/>
<path fill="none" stroke="#3C3C3C" stroke-width="3" stroke-miterlimit="10" d="M15.613,72.007c3.291-1.145,2.773-1.061,6.501-1.061
	c3.592,0,3.314-0.002,7.501,0.061"/>
<path fill="none" stroke="#3C3C3C" stroke-width="3" stroke-miterlimit="10" d="M53.687,72.007c0,0,4.052-0.061,7.501-0.061
	s6.501,1.061,6.501,1.061"/>
<path fill="#F4CED3" d="M29.293,101.949c0,2.761-2.239,5-5,5h-4.533c-2.761,0-5-2.239-5-5l0,0c0-2.761,2.239-5,5-5h4.533
	C27.055,96.949,29.293,99.188,29.293,101.949L29.293,101.949z"/>
<path fill="#F4CED3" d="M70.739,101.949c0,2.761-2.239,5-5,5h-4.533c-2.761,0-5-2.239-5-5l0,0c0-2.761,2.239-5,5-5h4.533
	C68.501,96.949,70.739,99.188,70.739,101.949L70.739,101.949z"/>
<path fill="none" stroke="#3C3C3C" stroke-width="2" stroke-miterlimit="10" d="M33.843,120.896c0,0,0.209,2.169,4.31,1.789
	c1.213-0.112,2.766-1.185,4.755-1.185c1.753,0,3.151,1.056,4.268,1.147c4.432,0.358,4.409-1.751,4.409-1.751"/>
<path fill="none" stroke="#3C3C3C" stroke-width="2" stroke-miterlimit="10" d="M37.529,107.195c0,0,1.053-1.246,5.379-1.246
	s5.379,1.246,5.379,1.246"/>
<path fill="#603102" stroke="#3C3C3C" stroke-width="2" stroke-miterlimit="10" d="M8.812,84.274c0,0-2.958-17.4,7.699-26.839
	s22.227-13.093,22.227-13.093s1.304,6.003,11.352,8.134c10.048,2.131,14.224-0.218,14.224-0.218s7.308,3.349,10.961,11.875
	s3.74,19.618,3.74,19.618l4.785,0.654c0,0,1.827-28.188-3.349-36.409s-8.525-7.308-8.525-7.308s0.304-10.657-4.567-14.006
	s-7.916-3.349-7.916-3.349s0.913,2.131-1.827,4.263s-31.057-0.913-38.365,4.872s-7.916,12.788-7.916,12.788s-4.263,0.913-6.09,8.221
	s0,27.929,0,27.929L8.812,84.274z"/>
<path fill="none" stroke="#3C3C3C" stroke-width="3" stroke-miterlimit="10" d="M8.631,89.227c0,6.532,6.177,11.828,12.709,11.828
	h5.436c11.975,0,13.585-23.655,7.053-23.655H19.577C13.044,77.399,8.631,82.695,8.631,89.227L8.631,89.227z"/>
<path fill="none" stroke="#3C3C3C" stroke-width="3" stroke-miterlimit="10" d="M79.145,89.659c0,6.771-6.403,12.26-13.174,12.26
	h-5.635c-12.412,0-15.909-24.52-9.138-24.52h16.6C74.57,77.399,79.145,82.888,79.145,89.659L79.145,89.659z"/>
<path fill="none" stroke="#3C3C3C" stroke-width="3" stroke-miterlimit="10" d="M37.079,82.699c0,0,2.305-1,5.566-1s5.566,1,5.566,1
	"/>
<g id="neck_-_copie_4">
	<path fill="#C1A6A3" stroke="#3C3C3C" stroke-width="2" stroke-miterlimit="10" d="M124.975,151.377
		c0,4.453-8.062,12.062-8.062,12.062s-8.062-7.61-8.062-12.062v-11.5c0-4.453,3.61-8.062,8.062-8.062l0,0
		c4.453,0,8.062,3.61,8.062,8.062V151.377z"/>
</g>
<g id="clothes_-_copie_4">
	<path fill="#B9DFF9" stroke="#3C3C3C" stroke-width="2" stroke-miterlimit="10" d="M157.6,167.94
		c0-11.244-22.085-19.158-33.688-22.54l-6.875,9.557l-8.188-9.552c-11.823,3.097-32.375,10.247-32.375,22.535c0,3.977,0,4,0,4
		c0,8.491,6.884,15.375,15.375,15.375h49.375c8.491,0,16.375-6.884,16.375-15.375C157.6,171.94,157.6,172.417,157.6,167.94z"/>
	<path fill="#65AEF1" stroke="#3C3C3C" stroke-miterlimit="10" d="M142.225,154.565"/>
	<polygon fill="#910930" stroke="#3C3C3C" stroke-width="2" stroke-miterlimit="10" points="118.917,187 114.917,187 
		112.917,184.771 113.917,154.565 119.917,154.565 120.917,184.708 	"/>
	<polyline fill="#B9DFF9" stroke="#3C3C3C" stroke-width="2" stroke-miterlimit="10" points="108.85,143.167 116.912,154.565 
		113.833,160.583 102.917,146.583 108.85,143.167 	"/>
	<polyline fill="#B9DFF9" stroke="#3C3C3C" stroke-width="2" stroke-miterlimit="10" points="124.979,143.167 116.917,154.565 
		119.995,160.583 130.912,146.583 124.979,143.167 	"/>
</g>
<g id="face_-_copie_4">
	<g id="face_4_">
		<path fill="#C1A6A3" d="M117.111,140.398c-20.026,0-34.928-28.323-34.928-33.743c0-14.752,0.147-53.98,0.173-60.742h69.683v60.742
			C152.039,112.264,137.574,140.398,117.111,140.398z"/>
		<path fill="#3C3C3C" d="M151.039,46.913v59.742c0,2.688-3.496,10.856-9.817,18.595c-4.316,5.284-13.187,14.148-24.111,14.148
			c-19.022,0-33.928-27.659-33.928-32.744c0-14.143,0.135-50.787,0.169-59.742H151.039 M153.039,44.913H81.36
			c0,0-0.177,45.466-0.177,61.742c0,5.845,15.406,34.744,35.928,34.744s35.928-28.107,35.928-34.744
			C153.039,94.448,153.039,44.913,153.039,44.913L153.039,44.913z"/>
	</g>
</g>
<g id="eyes_-_copie_4">
	<circle fill="#3C3C3C" cx="97.105" cy="86.398" r="3.582"/>
	<circle fill="#3C3C3C" cx="136.056" cy="86.398" r="3.582"/>
</g>
<g id="eyebrows_-_copie_4">
	<path fill="none" stroke="#3C3C3C" stroke-width="3" stroke-miterlimit="10" d="M89.613,74.007c0,0,3.052-1.061,6.501-1.061
		s7.501,2.061,7.501,2.061"/>
	<path fill="none" stroke="#3C3C3C" stroke-width="3" stroke-miterlimit="10" d="M127.687,75.007c0,0,4.052-2.061,7.501-2.061
		s6.501,1.061,6.501,1.061"/>
</g>
<g id="cheeks_-_copie_4">
	<path fill="#BC9895" d="M103.293,103.949c0,2.761-2.239,5-5,5h-4.533c-2.761,0-5-2.239-5-5l0,0c0-2.761,2.239-5,5-5h4.533
		C101.055,98.949,103.293,101.188,103.293,103.949L103.293,103.949z"/>
	<path fill="#BC9895" d="M144.739,103.949c0,2.761-2.239,5-5,5h-4.533c-2.761,0-5-2.239-5-5l0,0c0-2.761,2.239-5,5-5h4.533
		C142.501,98.949,144.739,101.188,144.739,103.949L144.739,103.949z"/>
</g>
<g id="mouth_-_copie_4">
	<path fill="none" stroke="#3C3C3C" stroke-width="2" stroke-miterlimit="10" d="M103.843,117.896c0,0,4.157,4.246,12.87,4.246
		s12.87-4.246,12.87-4.246"/>
</g>
<g id="nose_-_copie_4">
	<path fill="none" stroke="#3C3C3C" stroke-width="2" stroke-miterlimit="10" d="M112.529,107.195c0,0,0.053-0.246,4.379-0.246
		c4.326,0,4.379,0.246,4.379,0.246"/>
</g>
<g id="hair_-_copie_3">
	<path fill="#494949" stroke="#3C3C3C" stroke-width="2" stroke-miterlimit="10" d="M82.46,89.346V55.369
		c0,0,5.253,10.839,21.512,10.839s21.261-10.839,21.261-10.839s2.084,1.459,4.586,1.459c2.501,0,4.794-1.459,4.794-1.459
		s2.501,3.335,7.504,3.335s10.214-3.335,10.214-3.335v32.934l5.42,3.544c0,0,0-35.644,0-39.396c0-3.752-3.752-3.96-3.752-3.96
		s0.521-2.814-2.501-5.836c-3.022-3.022-4.377-2.501-4.377-2.501s4.169-6.462-10.005-13.132s-18.76,2.084-18.76,2.084
		s-15.216-11.256-29.182-1.668S78.542,49.324,78.542,49.324s-2.918,1.251-2.918,5.003s0,38.771,0,38.771L82.46,89.346z"/>
</g>
<g id="ears_-_copie_4">
	<path fill="#C1A6A3" stroke="#3C3C3C" stroke-width="2" stroke-miterlimit="10" d="M81.515,105.011L81.515,105.011
		c-4.507,0-9.221-3.653-9.221-8.16v-9.376c0-4.507,4.715-8.16,9.221-8.16"/>
	<path fill="#C1A6A3" stroke="#3C3C3C" stroke-width="2" stroke-miterlimit="10" d="M152.309,79.314L152.309,79.314
		c4.507,0,9.221,3.653,9.221,8.16v9.376c0,4.507-4.715,8.16-9.221,8.16"/>
</g>
<path fill="#65AEF1" stroke="#3C3C3C" stroke-miterlimit="10" d="M299.673,154.565"/>
<path fill="#34AFCC" stroke="#3C3C3C" stroke-width="2" stroke-miterlimit="10" d="M315.048,167.94
	c0-11.244-22.085-19.158-33.688-22.54l-6.875,9.557l-8.188-9.552c-11.823,3.097-32.375,10.247-32.375,22.535c0,3.977,0,4,0,4
	c0,8.491,6.884,15.375,15.375,15.375h49.375c8.491,0,16.375-6.884,16.375-15.375C315.048,171.94,315.048,172.417,315.048,167.94z"/>
<path fill="#F4D7DB" stroke="#3C3C3C" stroke-width="2" stroke-miterlimit="10" d="M282.423,146.377
	c0,4.453-8.062,16.062-8.062,16.062s-8.062-11.61-8.062-16.062v-11.5c0-4.453,3.61-8.062,8.062-8.062l0,0
	c4.453,0,8.062,3.61,8.062,8.062V146.377z"/>
<path fill="#F4D7DB" stroke="#3C3C3C" stroke-width="2" stroke-miterlimit="10" d="M241.963,106.011L241.963,106.011
	c-4.507,0-9.221-3.653-9.221-8.16v-9.376c0-4.507,4.715-8.16,9.221-8.16"/>
<path fill="#F4D7DB" stroke="#3C3C3C" stroke-width="2" stroke-miterlimit="10" d="M306.757,79.314L306.757,79.314
	c4.507,0,9.221,3.653,9.221,8.16v9.376c0,4.507-4.715,8.16-9.221,8.16"/>
<g id="face_16_">
	<path fill="#F4D7DB" d="M274.559,139.398c-18.76,0-34.928-22.632-34.928-33.743c0-14.951-1.555-47.293-1.794-52.174L267.179,37
		l44.274,14.624c-0.269,5.78-1.966,42.838-1.966,54.03C309.487,116.766,293.319,139.398,274.559,139.398z"/>
	<g>
		<path fill="#3C3C3C" d="M267.285,38.088l43.134,14.247c-0.355,7.706-1.932,42.515-1.932,53.319
			c0,10.503-16.052,32.744-33.928,32.744c-17.876,0-33.928-22.24-33.928-32.744c0-14.446-1.448-45.074-1.765-51.604L267.285,38.088
			 M267.074,35.913l-30.266,17c0,0,1.823,36.466,1.823,52.742c0,11.241,16.487,34.744,35.928,34.744s35.928-23.502,35.928-34.744
			c0-12.207,2-54.742,2-54.742L267.074,35.913L267.074,35.913z"/>
	</g>
</g>
<path fill="none" stroke="#3C3C3C" stroke-width="2" stroke-miterlimit="10" d="M285.135,89.007c0,0,4.052-3.061,7.501-3.061
	s6.501,3.061,6.501,3.061"/>
<path fill="none" stroke="#3C3C3C" stroke-width="2" stroke-miterlimit="10" d="M263.138,89.007c0,0-4.052-3.061-7.501-3.061
	c-3.45,0-6.501,3.061-6.501,3.061"/>
<path fill="none" stroke="#3C3C3C" stroke-width="3" stroke-miterlimit="10" d="M247.061,74.007
	c3.291-1.145,2.773-1.061,6.501-1.061c3.592,0,3.314,1.998,7.501,2.061"/>
<path fill="none" stroke="#3C3C3C" stroke-width="3" stroke-miterlimit="10" d="M285.135,75.007c0,0,4.052-2.061,7.501-2.061
	s6.501,1.061,6.501,1.061"/>
<path fill="#F2C9D0" d="M260.741,101.949c0,2.761-2.239,5-5,5h-4.533c-2.761,0-5-2.239-5-5l0,0c0-2.761,2.239-5,5-5h4.533
	C258.503,96.949,260.741,99.188,260.741,101.949L260.741,101.949z"/>
<path fill="#F2C9D0" d="M302.187,101.949c0,2.761-2.239,5-5,5h-4.533c-2.761,0-5-2.239-5-5l0,0c0-2.761,2.239-5,5-5h4.533
	C299.949,96.949,302.187,99.188,302.187,101.949L302.187,101.949z"/>
<path fill="none" stroke="#3C3C3C" stroke-width="2" stroke-miterlimit="10" d="M264.291,118.896c0,0,2.67,2.604,10.064,2.604
	c7.395,0,9.676-2.604,9.676-2.604"/>
<path fill="none" stroke="#3C3C3C" stroke-width="2" stroke-miterlimit="10" d="M269.977,108.195c0,0,0.053-3.246,4.379-3.246
	c4.326,0,4.379,3.246,4.379,3.246"/>
<path fill="#DDAB47" stroke="#3C3C3C" stroke-width="2" stroke-miterlimit="10" d="M240.375,62.208l-1.25,24.19
	c0,0-5.008-4.556-5.352-2.477c-0.344,2.079-1.031-7.463-1.031-7.463s-1.344-16.332,2.247-24.156
	c3.591-7.824,8.389-11.351,14.068-16.175c9.861-8.376,29.549-9.376,29.549-9.376l-7.232,2.137c0,0-0.242,0.065,8.496-0.861
	c8.738-0.926,13.223-0.305,13.223-0.305l-2.729,3.125c0,0-3.669,0.727,4.201-0.042c7.87-0.769,11.892,2.778,11.892,2.778
	l-2.979,0.26c0,0-2.393-0.347,4.59,3.733c6.983,4.08,12.297,13.53,12.297,13.53l-6.721-4.529c0,0-1.584-1.387,3.812,3.746
	c2.971,2.827,5.845,9.259,5.845,9.259s0,0-4.167-2.778s2.226,10.583,2.226,10.583l-2.4-1.468c0,0-2.715,17.986-2.98,19.126
	c-0.266,1.14-5.936,2.31-5.936,2.31l-1.168-18.521c0,0-12.425-15.837-22.796-16.531s-9.132,0.335-15.845,0.798
	S240.375,62.208,240.375,62.208z"/>
<polygon fill="#3A1C02" points="224.568,158.564 164.485,156.293 158.193,108.126 237.485,100.314 "/>
<g>
	<path fill="#757575" d="M172.298,187.439c-9.029,0-16.375-7.346-16.375-16.375v-4c0-17.884,39.639-25.063,41.327-25.36l0.197-0.034
		l0.195,0.044c1.69,0.38,41.406,9.482,41.406,25.351v4c0,8.723-8.119,16.375-17.375,16.375H172.298z"/>
	<path fill="#3C3C3C" d="M197.423,142.689c0,0,40.625,9.125,40.625,24.375c0,3.728,0,4,0,4c0,8.491-7.884,15.375-16.375,15.375
		h-49.375c-8.491,0-15.375-6.884-15.375-15.375c0,0,0-0.355,0-4C156.923,149.814,197.423,142.689,197.423,142.689 M197.47,140.65
		l-0.394,0.069c-1.721,0.303-42.153,7.631-42.153,26.345v4c0,9.581,7.794,17.375,17.375,17.375h49.375
		c9.96,0,18.375-7.957,18.375-17.375v-4c0-7.213-7.251-13.859-21.55-19.755c-10.197-4.204-20.215-6.476-20.637-6.571L197.47,140.65
		L197.47,140.65z"/>
</g>
<g>
	<defs>
		<path id="SVGID_1_" d="M238.048,167.064c0-15.25-40.625-24.375-40.625-24.375s-40.5,7.125-40.5,24.375c0,3.645,0,4,0,4
			c0,8.491,6.884,15.375,15.375,15.375h49.375c8.491,0,16.375-6.884,16.375-15.375C238.048,171.064,238.048,170.793,238.048,167.064
			z"/>
	</defs>
	<clipPath id="SVGID_2_">
		<use xlink:href="#SVGID_1_"  overflow="visible"/>
	</clipPath>
</g>
<path fill="#65AEF1" stroke="#3C3C3C" stroke-miterlimit="10" d="M221.964,154.981"/>
<path fill="#F9E4E6" stroke="#3C3C3C" stroke-width="2" stroke-miterlimit="10" d="M205.423,149.502c0,4.453-3.61,8.062-8.062,8.062
	l0,0c-4.453,0-8.062-3.61-8.062-8.062v-11.5c0-4.453,3.61-8.062,8.062-8.062l0,0c4.453,0,8.062,3.61,8.062,8.062V149.502z"/>
<g id="face_17_">
	<path fill="#F9E4E6" d="M198.048,137.814c-15.07,0-35.833-20.57-35.833-35.5c0-13.857,0.138-50.634,0.163-57.167h68.837v57.167
		C231.214,113.75,212.633,137.814,198.048,137.814z"/>
	<g>
		<path fill="#3C3C3C" d="M230.214,46.147v56.167c0,5.143-4.411,13.886-10.727,21.262c-7.099,8.289-15.113,13.238-21.439,13.238
			c-6.72,0-15.488-4.567-22.882-11.918c-7.372-7.33-11.952-15.983-11.952-22.582c0-13.264,0.126-47.538,0.159-56.167H230.214
			 M232.214,44.147h-70.833c0,0-0.167,42.833-0.167,58.167c0,15.333,21.167,36.5,36.833,36.5c15.667,0,34.167-25,34.167-36.5
			S232.214,44.147,232.214,44.147L232.214,44.147z"/>
	</g>
</g>
<circle fill="#3C3C3C" cx="178.214" cy="88.231" r="3.375"/>
<circle fill="#3C3C3C" cx="214.214" cy="88.231" r="3.375"/>
<path fill="none" stroke="#3C3C3C" stroke-width="2" stroke-miterlimit="10" d="M172.214,79.731c0,0,2.875-1,6.125-1
	s6.125,1,6.125,1"/>
<path fill="none" stroke="#3C3C3C" stroke-width="2" stroke-miterlimit="10" d="M208.214,79.731c0,0,2.875-1,6.125-1
	s6.125,1,6.125,1"/>
<path fill="none" stroke="#3C3C3C" stroke-width="2" stroke-miterlimit="10" d="M190.214,120.731c0,0,2.417,1,6.125,1
	s8.125-2,8.125-2"/>
<polyline fill="none" stroke="#3C3C3C" stroke-width="2" stroke-miterlimit="10" points="201.589,107.939 197.464,108.939 
	193.339,107.939 "/>
<path fill="#F4CED3" d="M185.048,102.266c0,2.09-1.727,3.785-3.857,3.785h-5.12c-2.13,0-3.857-1.695-3.857-3.785l0,0
	c0-2.09,1.727-3.785,3.857-3.785h5.12C183.321,98.481,185.048,100.175,185.048,102.266L185.048,102.266z"/>
<path fill="#F4CED3" d="M221.048,102.266c0,2.09-1.727,3.785-3.857,3.785h-5.12c-2.13,0-3.857-1.695-3.857-3.785l0,0
	c0-2.09,1.727-3.785,3.857-3.785h5.12C219.321,98.481,221.048,100.175,221.048,102.266L221.048,102.266z"/>
<g id="cheveux_avant_2_">
	<path fill="#3A1C02" stroke="#3C3C3C" stroke-width="2" stroke-miterlimit="10" d="M197.856,50.893
		c31.516,13.031,31.359,28.708,23.692,94.859c0,0,20.104-35.388,15.938-67.021c-5.288-40.146-7.413-55.965-40.177-47.917
		c-34.389-3.066-39.642,23.818-40.386,35.812c-0.744,11.995-10.339,52.258,17.916,79.126
		C152.024,80.731,172.743,68.928,197.856,50.893z"/>
</g>
<circle fill="#FFFFFF" stroke="#3C3C3C" stroke-width="2" stroke-miterlimit="10" cx="196.826" cy="19.991" r="18.532"/>
<path fill="#FFF0C7" stroke="#3C3C3C" stroke-width="2" stroke-miterlimit="10" d="M196.826,19.991
	c45.585,0,43.426,48.312,43.426,48.312s-3.633,91.841-6.288,90.29c-0.718-0.42,0.539-88.756-0.326-89.24
	c-8.584-4.805-23.923-8.283-36.253-8.283c-10.971,0-25.094,1.92-34.56,6.61c-1.711,0.848-3.271,90.159-4.632,90.884
	c-3.576,1.906-5.783-90.261-5.783-90.261S151.241,19.991,196.826,19.991z"/>
<circle fill="#FFFFFF" stroke="#3C3C3C" stroke-width="2" stroke-miterlimit="10" cx="158.193" cy="157.564" r="9.772"/>
<g>
	<defs>
		<path id="SVGID_3_" d="M196.826,19.991c45.585,0,43.426,48.312,43.426,48.312s-3.633,91.841-6.288,90.29
			c-0.718-0.42,0.539-88.756-0.326-89.24c-8.584-4.805-23.923-8.283-36.253-8.283c-10.971,0-25.094,1.92-34.56,6.61
			c-1.711,0.848-3.271,90.159-4.632,90.884c-3.576,1.906-5.783-90.261-5.783-90.261S151.241,19.991,196.826,19.991z"/>
	</defs>
	<clipPath id="SVGID_4_">
		<use xlink:href="#SVGID_3_"  overflow="visible"/>
	</clipPath>
	<path clip-path="url(#SVGID_4_)" fill="#0A5E56" d="M256.048,67.793c0,0-25.081-14-59.221-14s-58.894,14-58.894,14v-6.084
		c0,0,23.339-14,58.894-14s59.221,14,59.221,14V67.793z"/>
	<path clip-path="url(#SVGID_4_)" fill="#0A5E56" d="M256.048,52.793c0,0-25.081-14-59.221-14s-58.894,14-58.894,14v-6.084
		c0,0,23.339-14,58.894-14s59.221,14,59.221,14V52.793z"/>
</g>
<circle fill="#FFFFFF" stroke="#3C3C3C" stroke-width="2" stroke-miterlimit="10" cx="234.193" cy="157.564" r="9.772"/>
</svg>
