<?xml version="1.0" encoding="utf-8"?>
<!-- Generator: Adobe Illustrator 17.0.2, SVG Export Plug-In . SVG Version: 6.00 Build 0)  -->
<!DOCTYPE svg PUBLIC "-//W3C//DTD SVG 1.1//EN" "http://www.w3.org/Graphics/SVG/1.1/DTD/svg11.dtd">
<svg version="1.1" id="Calque_1" xmlns="http://www.w3.org/2000/svg" xmlns:xlink="http://www.w3.org/1999/xlink" x="0px" y="0px"
	 width="500px" height="500px" viewBox="0 0 500 500" enable-background="new 0 0 500 500" xml:space="preserve">
<path fill="#FFFFFF" stroke="#FFD334" stroke-width="14" stroke-miterlimit="10" d="M496.81,207.813
	c0-28.451-15.199-54.838-40.113-70.384C443.47,83.35,392.447,44.8,332.69,44.8c-14.378,0-28.414,2.23-41.858,6.647
	c-16.671-15.743-39.115-24.594-63.074-24.594c-27.678,0-53.931,12.35-70.725,32.783c-3.724-0.443-7.469-0.667-11.203-0.667
	c-40.567,0-75.27,25.255-86.004,61.277C24.167,131.919,0,163.502,0,199.87c0,10.782,2.219,21.537,6.471,31.513
	C2.224,241.365,0,252.12,0,262.891c0,31.279,17.952,59.527,47.022,74.294c16.688,15.711,39.558,24.674,63.171,24.674
	c15.082,0,29.545-3.462,42.519-10.126c16.837,18.437,41.698,29.454,67.839,29.454c16.298,0,31.839-4.039,45.571-11.764
	c15.205,11.139,33.359,18.315,52.496,20.662c32.26,32.372,57.02,74.193,57.265,74.63l8.136,13.855l40.855-29.289l-22.743-65.187
	c12.809-5.932,23.41-15.637,30.121-27.8c27.907-14.81,45.677-43.159,45.677-73.595c0-6.823-0.859-13.556-2.555-20.107
	C489.095,247.409,496.81,227.915,496.81,207.813z M464.032,239.381l-3.394,5.019l-6.845-6.845c0,0-15.85,5.163-18.602,7.284
	l14.199,14.204l0.719,0.719l0.381,0.943l0.549,1.36c2.628,6.628,3.954,13.561,3.954,20.635
	c-0.011,23.001-13.917,43.627-36.289,53.833l-3.353,1.532l-1.485,3.382c-5.378,12.232-16.945,21.168-30.944,23.906l-10.961,2.135
	l19.78,56.696l8.137,26.791l-16.97-22.298c-11.232-16.228-28.952-39.749-49.587-59.642l-2.517-2.422l-3.482-0.257
	c-13.115-0.97-26.069-4.936-37.463-11.468l-6.477-3.713l5.899-4.576l16.743-12.987c3.087-2.442,1.756-7.16,1.274-8.547
	c-1.317-3.788-4.571-7.624-8.242-7.624c-1.431,0-2.927,0.609-4.447,1.81l-21.967,17.101l-3.4,2.647l-0.181-0.172l-6.339,4.714
	c-11.845,8.828-25.346,13.306-40.125,13.306c-21.348,0-41.07-9.761-52.826-26.129l-9.178-10.051l-16.724,8.14
	c-14.428,7.225-23.609,8.706-32.953,8.706c-17.866,0-35.162-7.045-47.452-19.33l-0.086-0.086l-0.082-0.09l-0.985-1.085l-1.326-0.65
	c-21.777-10.347-35.302-30.801-35.302-53.391c0-9.4,2.33-18.445,6.925-26.884l2.527-4.632l-2.517-4.622
	c-4.578-8.399-6.899-17.443-6.899-26.878c0-27.872,20.494-51.863,49.839-58.344l6.33-1.4l1.111-6.387
	C88.085,104.51,115.09,83.3,147.212,83.3c5.218,0,22.19,3.244,22.19,3.244c7.235-18.289,36.811-35.354,59.747-35.354
	c14.719,0,28.596,4.442,40.129,12.845l4.894,3.566l-4.428,4.131l-8.078,7.537c3.677,6.444,7.643,13.064,10.212,16.928l19.288-17.996
	l0.672-0.627l0.851-0.347c13.167-5.368,27.089-8.09,41.377-8.09c50.478,0,93.171,33.429,101.514,79.486l0.844,4.672l4.204,2.186
	c20.484,10.651,33.209,30.704,33.209,52.333C473.837,218.98,464.032,239.381,464.032,239.381z"/>
<path fill="none" stroke="#FFFFFF" stroke-width="7" stroke-miterlimit="10" d="M361.078,165.236l-10.246-2.015
	c-1.162-4.781-3.046-9.327-5.626-13.553l5.826-8.679c0.629-0.928,0.504-2.173-0.288-2.965l-9.915-9.915
	c-0.453-0.453-1.053-0.685-1.659-0.685c-0.453,0-0.906,0.132-1.306,0.397l-8.679,5.826c-4.22-2.578-8.769-4.464-13.55-5.624
	l-2.015-10.246c-0.217-1.101-1.182-1.893-2.3-1.893h-14.025c-1.121,0-2.086,0.792-2.3,1.893l-2.018,10.246
	c-4.778,1.16-9.323,3.046-13.545,5.624l-8.684-5.826c-0.395-0.266-0.853-0.397-1.304-0.397c-0.604,0-1.209,0.234-1.662,0.685
	l-9.912,9.915c-0.794,0.792-0.914,2.037-0.29,2.965l5.826,8.679c-2.576,4.225-4.464,8.772-5.621,13.553l-10.246,2.015
	c-1.099,0.214-1.893,1.179-1.893,2.3v14.023c0,1.121,0.794,2.083,1.893,2.3l10.246,2.015c1.157,4.778,3.046,9.325,5.621,13.55
	l-5.826,8.679c-0.624,0.933-0.504,2.176,0.29,2.968l9.912,9.917c0.453,0.453,1.057,0.685,1.662,0.685c0.453,0,0.909-0.129,1.304-0.4
	l8.684-5.826c4.22,2.58,8.767,4.464,13.545,5.626l2.018,10.241c0.214,1.104,1.179,1.893,2.3,1.893h14.023
	c1.118,0,2.083-0.789,2.3-1.893l2.015-10.241c4.778-1.162,9.327-3.046,13.55-5.626l8.679,5.826c0.4,0.266,0.855,0.4,1.306,0.4
	c0.607,0,1.206-0.234,1.659-0.685l9.915-9.917c0.792-0.792,0.916-2.035,0.288-2.968l-5.826-8.679
	c2.58-4.225,4.464-8.772,5.626-13.55l10.246-2.015c1.099-0.217,1.891-1.179,1.891-2.3v-14.023
	C362.969,166.416,362.177,165.451,361.078,165.236z M304.307,207.393c-18.114,0-32.843-14.734-32.843-32.843
	s14.732-32.843,32.843-32.843c18.109,0,32.843,14.734,32.843,32.843S322.416,207.393,304.307,207.393z"/>
<path fill="none" stroke="#FFFFFF" stroke-width="7" stroke-miterlimit="10" d="M270.635,266.578l-6.827-4.539
	c0.434-3.421,0.436-6.871,0.002-10.285l6.825-4.539c0.931-0.624,1.296-1.818,0.867-2.851l-5.368-12.953
	c-0.366-0.889-1.233-1.452-2.166-1.452c-0.151,0-0.309,0.019-0.461,0.049l-8.034,1.618c-2.113-2.727-4.554-5.163-7.276-7.276
	l1.613-8.038c0.224-1.094-0.365-2.198-1.404-2.627l-12.948-5.368c-0.295-0.119-0.595-0.178-0.899-0.178
	c-0.765,0-1.508,0.375-1.954,1.048l-4.542,6.825c-1.706-0.214-3.431-0.324-5.149-0.324c-1.708,0-3.431,0.11-5.134,0.324
	l-4.539-6.825c-0.446-0.668-1.184-1.048-1.952-1.048c-0.305,0-0.607,0.058-0.899,0.178l-12.953,5.368
	c-1.038,0.429-1.623,1.533-1.403,2.627l1.618,8.038c-2.722,2.108-5.158,4.549-7.276,7.276l-8.034-1.618
	c-0.156-0.029-0.309-0.049-0.465-0.049c-0.931,0-1.793,0.56-2.166,1.452l-5.363,12.953c-0.429,1.033-0.066,2.227,0.865,2.851
	l6.825,4.539c-0.431,3.416-0.434,6.866,0,10.285l-6.825,4.539c-0.933,0.624-1.294,1.818-0.865,2.851l5.363,12.953
	c0.37,0.889,1.235,1.452,2.166,1.452c0.156,0,0.309-0.02,0.465-0.049l8.034-1.618c2.113,2.722,4.549,5.163,7.276,7.276l-1.618,8.034
	c-0.219,1.099,0.365,2.203,1.404,2.632l12.953,5.368c0.292,0.119,0.595,0.175,0.899,0.175c0.765,0,1.506-0.375,1.952-1.048
	l4.539-6.825c1.708,0.214,3.436,0.324,5.149,0.324s3.436-0.11,5.139-0.324l4.537,6.825c0.446,0.67,1.187,1.048,1.954,1.048
	c0.305,0,0.604-0.056,0.899-0.175l12.953-5.368c1.033-0.429,1.623-1.533,1.399-2.632l-1.613-8.034
	c2.722-2.108,5.158-4.549,7.271-7.276l8.038,1.618c0.151,0.029,0.309,0.049,0.461,0.049c0.933,0,1.798-0.56,2.166-1.452
	l5.368-12.953C271.931,268.396,271.564,267.202,270.635,266.578z M222.914,218.031c0.334,0,0.665,0.01,0.999,0.019
	c-0.339-0.01-0.68-0.019-1.019-0.019H222.914z M222.928,295.762c-0.344,0-0.685-0.01-1.033-0.02c0.353,0.01,0.704,0.02,1.057,0.02
	H222.928z M247.409,267.041c-4.118,9.941-13.735,16.367-24.498,16.367c-3.484,0-6.891-0.675-10.136-2.022
	c-13.501-5.592-19.937-21.126-14.344-34.632c4.12-9.941,13.735-16.367,24.5-16.367c3.48,0,6.891,0.68,10.132,2.022
	c6.545,2.707,11.635,7.805,14.349,14.344C250.121,253.296,250.121,260.497,247.409,267.041z"/>
</svg>
