<?xml version="1.0" encoding="utf-8"?>
<!-- Generator: Adobe Illustrator 17.0.2, SVG Export Plug-In . SVG Version: 6.00 Build 0)  -->
<!DOCTYPE svg PUBLIC "-//W3C//DTD SVG 1.1//EN" "http://www.w3.org/Graphics/SVG/1.1/DTD/svg11.dtd">
<svg version="1.1" id="avatar_6" xmlns="http://www.w3.org/2000/svg" xmlns:xlink="http://www.w3.org/1999/xlink" x="0px" y="0px"
	 width="398.814px" height="438px" viewBox="0 0 398.814 438" enable-background="new 0 0 398.814 438" xml:space="preserve">
<g id="neck_-_copie_9">
	<path fill="#F4D7DB" stroke="#3C3C3C" stroke-width="2" stroke-miterlimit="10" d="M212.99,372.463
		c0,7.498-13.577,20.313-13.577,20.313s-13.577-12.815-13.577-20.313v-19.366c0-7.498,6.079-13.577,13.577-13.577l0,0
		c7.498,0,13.577,6.079,13.577,13.577V372.463z"/>
</g>
<g id="clothes_-_copie_9">
	<path fill="#FFFFFF" stroke="#3C3C3C" stroke-width="2" stroke-miterlimit="10" d="M267.93,400.354
		c0-18.935-37.19-32.262-56.73-37.958l-11.577,16.094l-13.788-16.085c-19.91,5.215-54.519,17.256-54.519,37.949
		c0,6.697,0,6.736,0,6.736c0,14.299,11.592,25.891,25.891,25.891h83.147c14.299,0,27.575-11.592,27.575-25.891
		C267.93,407.09,267.93,407.893,267.93,400.354z"/>
	<path fill="#65AEF1" stroke="#3C3C3C" stroke-miterlimit="10" d="M242.039,377.831"/>
	<polygon fill="#18C2C6" stroke="#3C3C3C" stroke-width="2" stroke-miterlimit="10" points="202.789,432.451 196.053,432.451 
		192.685,428.698 194.369,377.831 204.473,377.831 206.157,428.592 	"/>
	<polyline fill="#FFFFFF" stroke="#3C3C3C" stroke-width="2" stroke-miterlimit="10" points="185.836,358.637 199.413,377.831 
		194.228,387.966 175.845,364.39 185.836,358.637 	"/>
	<polyline fill="#FFFFFF" stroke="#3C3C3C" stroke-width="2" stroke-miterlimit="10" points="212.998,358.637 199.421,377.831 
		204.605,387.966 222.989,364.39 212.998,358.637 	"/>
</g>
<g id="face_-_copie_9">
	<g id="face_5_">
		<path fill="#F4D7DB" d="M199.748,354.658c-43.553,0-61.186-49.311-61.186-57.508c0-25.399,0.259-93.881,0.294-102.973h122.079
			V297.15c0,5.76-5.078,20.376-14.611,32.838C237.713,341.242,222.643,354.658,199.748,354.658z"/>
		<g>
			<path fill="#3C3C3C" d="M259.934,195.178v101.973c0,4.672-4.225,18.923-14.405,32.23c-8.473,11.076-23.293,24.278-45.781,24.278
				c-22.366,0-37.237-13.469-45.774-24.768c-10.061-13.316-14.413-27.462-14.413-31.74c0-24.622,0.244-89.735,0.29-101.973H259.934
				 M261.934,193.178H137.86c0,0-0.298,76.564-0.298,103.973c0,9.844,18.783,58.508,62.186,58.508s62.186-47.332,62.186-58.508
				C261.934,276.595,261.934,193.178,261.934,193.178L261.934,193.178z"/>
		</g>
	</g>
</g>
<g id="eyes_-_copie_9">
	<circle fill="#3C3C3C" cx="166.058" cy="263.039" r="6.033"/>
	<circle fill="#3C3C3C" cx="231.65" cy="263.039" r="6.033"/>
</g>
<g id="eyebrows_-_copie_9">
	<path fill="none" stroke="#3C3C3C" stroke-width="3" stroke-miterlimit="10" d="M153.442,242.173c0,0,5.139-1.788,10.948-1.788
		c5.809,0,12.632,3.471,12.632,3.471"/>
	<path fill="none" stroke="#3C3C3C" stroke-width="3" stroke-miterlimit="10" d="M217.557,243.857c0,0,6.823-3.471,12.632-3.471
		s10.948,1.788,10.948,1.788"/>
</g>
<g id="cheeks_-_copie_9">
	<path fill="#F2C9D0" d="M176.479,292.595c0,4.65-3.77,8.42-8.42,8.42h-7.633c-4.65,0-8.42-3.77-8.42-8.42l0,0
		c0-4.65,3.77-8.42,8.42-8.42h7.633C172.709,284.175,176.479,287.945,176.479,292.595L176.479,292.595z"/>
	<path fill="#F2C9D0" d="M246.274,292.595c0,4.65-3.77,8.42-8.42,8.42h-7.633c-4.65,0-8.42-3.77-8.42-8.42l0,0
		c0-4.65,3.77-8.42,8.42-8.42h7.633C242.504,284.175,246.274,287.945,246.274,292.595L246.274,292.595z"/>
</g>
<g id="mouth_-_copie_9">
	<path fill="none" stroke="#3C3C3C" stroke-width="2" stroke-miterlimit="10" d="M177.404,316.081c0,0,7.001,7.15,21.673,7.15
		c14.672,0,21.673-7.15,21.673-7.15"/>
</g>
<g id="nose_-_copie_9">
	<path fill="none" stroke="#3C3C3C" stroke-width="2" stroke-miterlimit="10" d="M192.031,298.061c0,0,0.088-3.782,7.373-3.782
		s7.373,3.782,7.373,3.782"/>
</g>
<g id="hair_-_copie_8">
	<path fill="#DDAB47" stroke="#3C3C3C" stroke-width="2" stroke-miterlimit="10" d="M258.357,268.003v-57.216
		c0,0-7.989,4.992-35.368,4.992s-37.153-8.981-37.153-8.981s0.343,11.788-3.869,11.788s-13.119-7.798-13.119-7.798
		s-3.716,9.482-12.14,9.482s-17.696-9.482-17.696-9.482v55.461l-9.126,5.967c0,0,0-60.024,0-66.342s6.318-6.669,6.318-6.669
		s-0.878-4.739,4.212-9.829s7.371-4.212,7.371-4.212s-7.02-10.882,16.849-22.114s31.592,3.51,31.592,3.51
		s25.624-18.955,49.143-2.808s17.902,36.857,17.902,36.857s4.914,2.106,4.914,8.424s0,65.289,0,65.289L258.357,268.003z"/>
</g>
<g id="ears_-_copie_10">
	<path fill="#F4D7DB" stroke="#3C3C3C" stroke-width="2" stroke-miterlimit="10" d="M138.12,294.382h1.684
		c-7.589,0-15.529-6.152-15.529-13.741v-15.79c0-7.589,6.256-13.741,13.845-13.741"/>
	<path fill="#F4D7DB" stroke="#3C3C3C" stroke-width="2" stroke-miterlimit="10" d="M260.705,251.11h-1.684
		c7.589,0,15.529,6.152,15.529,13.741v15.79c0,7.589-6.256,13.741-13.845,13.741"/>
</g>
<g id="glasses_2_">
	<path fill="none" stroke="#3C3C3C" stroke-width="3" stroke-miterlimit="10" d="M139.662,270.167c0,11,10.402,19.918,21.402,19.918
		h9.155c20.165,0,22.877-39.835,11.876-39.835h-24C147.095,250.249,139.662,259.167,139.662,270.167L139.662,270.167z"/>
	<path fill="none" stroke="#3C3C3C" stroke-width="3" stroke-miterlimit="10" d="M258.408,270.895
		c0,11.402-10.782,20.646-22.184,20.646h-9.489c-20.902,0-26.79-41.291-15.388-41.291h27.955
		C250.703,250.249,258.408,259.492,258.408,270.895L258.408,270.895z"/>
	<path fill="none" stroke="#3C3C3C" stroke-width="3" stroke-miterlimit="10" d="M187.569,259.173c0,0,3.882-1.684,9.372-1.684
		s9.372,1.684,9.372,1.684"/>
</g>
<line fill="#FFD234" stroke="#FFD234" stroke-width="3" stroke-miterlimit="10" x1="2.909" y1="353.052" x2="2.909" y2="265.744"/>
<line fill="#FFD234" stroke="#FFD234" stroke-width="3" stroke-miterlimit="10" x1="2" y1="353.052" x2="90.218" y2="353.052"/>
<rect x="11.55" y="318.129" fill="#FFD234" stroke="#FFD234" stroke-miterlimit="10" width="13.096" height="34.923"/>
<rect x="63.935" y="265.744" fill="#FFD234" stroke="#FFD234" stroke-miterlimit="10" width="13.096" height="87.308"/>
<rect x="37.742" y="289.39" fill="#FFD234" stroke="#FFD234" stroke-miterlimit="10" width="13.096" height="63.662"/>
<path fill="#FFD234" stroke="#EEEEEE" stroke-width="3" stroke-miterlimit="10" d="M44.654,97.561v43.654h43.654
	c0,24.11-19.545,43.654-43.654,43.654S1,165.325,1,141.216S20.545,97.561,44.654,97.561"/>
<path fill="#FFD234" stroke="#EEEEEE" stroke-width="3" stroke-miterlimit="10" d="M13.786,110.347l30.868,30.868l30.868-30.868
	c17.048,17.048,17.048,44.688,0,61.736s-44.688,17.048-61.736,0S-3.262,127.395,13.786,110.347"/>
<path fill-rule="evenodd" clip-rule="evenodd" fill="none" stroke="#3C3C3C" stroke-width="2" stroke-miterlimit="10" d="
	M256.079,5.61h140v123.337h-70.263l-37.16,36.662l0.428-36.662h-33.006V5.61z"/>
<g>
	<g>
		<path fill="none" stroke="#3C3C3C" stroke-width="2" stroke-miterlimit="10" d="M355.416,56.147
			c0-16.203-13.135-29.338-29.337-29.338s-29.337,13.135-29.337,29.338c0,10.857,5.902,20.33,14.669,25.403v20.559
			c0,0,2.038,1.086,5.038,2.114c-0.09,0.267-0.148,0.54-0.148,0.82c0,2.701,4.378,4.889,9.779,4.889
			c5.401,0,9.779-2.189,9.779-4.889c0-0.28-0.058-0.553-0.148-0.82c3-1.028,5.038-2.114,5.038-2.114V81.55
			C349.514,76.477,355.416,67.004,355.416,56.147z"/>
	</g>
</g>
<polyline fill="none" stroke="#3C3C3C" stroke-width="2" stroke-miterlimit="10" points="321.189,77.661 316.3,56.147 
	323.145,61.037 326.079,56.147 329.012,61.037 335.858,56.147 330.968,77.661 "/>
<path fill="none" stroke="#3C3C3C" stroke-width="2" stroke-miterlimit="10" d="M311.41,81.559c0,0,7.168,2.813,14.669,2.813
	s14.669-2.813,14.669-2.813"/>
<path fill="none" stroke="#3C3C3C" stroke-width="2" stroke-miterlimit="10" d="M311.41,91.403c0,0,7.168,2.813,14.669,2.813
	s14.669-2.813,14.669-2.813"/>
<path fill="none" stroke="#3C3C3C" stroke-width="2" stroke-miterlimit="10" d="M311.41,101.247c0,0,7.168,2.813,14.669,2.813
	s14.669-2.813,14.669-2.813"/>
</svg>
