<?xml version="1.0" encoding="utf-8"?>
<!-- Generator: Adobe Illustrator 17.0.2, SVG Export Plug-In . SVG Version: 6.00 Build 0)  -->
<!DOCTYPE svg PUBLIC "-//W3C//DTD SVG 1.1//EN" "http://www.w3.org/Graphics/SVG/1.1/DTD/svg11.dtd">
<svg version="1.1" id="Calque_1" xmlns="http://www.w3.org/2000/svg" xmlns:xlink="http://www.w3.org/1999/xlink" x="0px" y="0px"
	 width="180px" height="180px" viewBox="0 0 180 180" enable-background="new 0 0 180 180" xml:space="preserve">
<g>
	<path fill="none" stroke="#F7F8F8" stroke-width="2.5" stroke-miterlimit="10" d="M90.763,5.418
		c-41.371,0-65.99,15.224-72.422,19.774l13.79,27.581l13.207-6.359l2.35,4.882L34.555,57.62l8.413,16.827l13.207-6.359l2.35,4.882
		l-13.134,6.324l8.413,16.826l13.207-6.359l2.35,4.882l-13.134,6.324l8.413,16.826l13.207-6.359l2.35,4.883l-13.134,6.324l3.7,7.4
		h39.997l52.421-104.842C156.729,20.652,132.015,5.418,90.763,5.418z"/>
	<path fill="#8DC34D" stroke="#F7F8F8" stroke-width="1.5" stroke-miterlimit="10" d="M168.357,22.304
		C167.268,21.393,141.106,0,90.763,0C40.42,0,14.259,21.393,13.17,22.304l-1.643,1.374l55.89,111.78h46.694L170,23.678
		L168.357,22.304z M70.764,130.04l-3.7-7.4l13.134-6.324l-2.35-4.883l-13.207,6.359l-8.413-16.826l13.134-6.324l-2.35-4.882
		l-13.207,6.359l-8.413-16.826l13.134-6.324l-2.35-4.882l-13.207,6.359L34.555,57.62l13.134-6.324l-2.35-4.882l-13.207,6.359
		l-13.79-27.581c6.432-4.551,31.051-19.774,72.422-19.774c41.252,0,65.966,15.234,72.419,19.779L110.762,130.04H70.764z"/>
</g>
<path fill="none" stroke="#8DC34D" stroke-width="3" stroke-miterlimit="10" d="M98.495,169.067c0,4.38-3.551,7.93-7.93,7.93
	s-7.93-3.551-7.93-7.93c0-4.38,7.93-16.994,7.93-16.994S98.495,164.687,98.495,169.067z"/>
</svg>
