<?xml version="1.0" encoding="utf-8"?>
<!-- Generator: Adobe Illustrator 17.0.2, SVG Export Plug-In . SVG Version: 6.00 Build 0)  -->
<!DOCTYPE svg PUBLIC "-//W3C//DTD SVG 1.1//EN" "http://www.w3.org/Graphics/SVG/1.1/DTD/svg11.dtd">
<svg version="1.1" id="Calque_1" xmlns="http://www.w3.org/2000/svg" xmlns:xlink="http://www.w3.org/1999/xlink" x="0px" y="0px"
	 width="40px" height="40px" viewBox="0 0 40 40" enable-background="new 0 0 40 40" xml:space="preserve">
<path fill-rule="evenodd" clip-rule="evenodd" fill="#3C3C3C" d="M13.963,34.083c0.943,0.173,1.287-0.536,1.287-1.035
	c0-0.448-0.016-1.633-0.025-3.206c-5.244,1.139-6.35-2.527-6.35-2.527c-0.857-2.178-2.093-2.758-2.093-2.758
	c-1.712-1.17,0.13-1.146,0.13-1.146c1.892,0.133,2.888,1.943,2.888,1.943c1.682,2.881,4.412,2.049,5.486,1.566
	c0.171-1.218,0.658-2.049,1.197-2.52c-4.186-0.476-8.587-2.093-8.587-9.317c0-2.058,0.735-3.741,1.94-5.059
	C9.641,9.547,8.994,7.63,10.02,5.034c0,0,1.583-0.507,5.184,1.933c1.504-0.418,3.116-0.627,4.72-0.635
	c1.601,0.007,3.214,0.216,4.72,0.635c3.599-2.439,5.179-1.933,5.179-1.933c1.029,2.595,0.381,4.512,0.188,4.989
	c1.208,1.318,1.938,3.001,1.938,5.059c0,7.242-4.408,8.836-8.607,9.303c0.677,0.582,1.28,1.733,1.28,3.491
	c0,2.52-0.023,4.554-0.023,5.172c0,0.504,0.34,1.191,1.296,1.007c0,0-2.455,0.977-5.97,0.977S13.963,34.083,13.963,34.083z"/>
</svg>
