<?xml version="1.0" encoding="utf-8"?>
<!-- Generator: Adobe Illustrator 17.0.2, SVG Export Plug-In . SVG Version: 6.00 Build 0)  -->
<!DOCTYPE svg PUBLIC "-//W3C//DTD SVG 1.1//EN" "http://www.w3.org/Graphics/SVG/1.1/DTD/svg11.dtd">
<svg version="1.1" id="Calque_1" xmlns="http://www.w3.org/2000/svg" xmlns:xlink="http://www.w3.org/1999/xlink" x="0px" y="0px"
	 width="40px" height="40px" viewBox="0 0 40 40" enable-background="new 0 0 40 40" xml:space="preserve">
<g>
	<path fill="#DC4A38" d="M24.062,3.205h-2.977c0.256,0.224,0.576,0.504,0.96,0.84c0.385,0.336,0.76,0.768,1.128,1.296
		c0.368,0.528,0.68,1.152,0.937,1.872c0.256,0.72,0.384,1.56,0.384,2.52c0,0.864-0.12,1.631-0.36,2.304
		c-0.239,0.672-0.521,1.248-0.84,1.728c-0.32,0.48-0.664,0.888-1.031,1.224c-0.369,0.336-0.665,0.601-0.889,0.792l-0.912,0.769
		c-0.353,0.353-0.665,0.696-0.936,1.032c-0.272,0.336-0.408,0.776-0.408,1.319c0,0.353,0.087,0.672,0.264,0.96
		c0.176,0.288,0.504,0.641,0.984,1.057l1.727,1.344c0.256,0.192,0.496,0.384,0.721,0.576c0.224,0.191,0.447,0.399,0.672,0.624
		c0.864,0.831,1.52,1.663,1.968,2.496c0.448,0.831,0.672,1.855,0.672,3.071c0,0.544-0.112,1.248-0.336,2.112
		s-0.768,1.808-1.632,2.832c-0.864,1.023-1.841,1.808-2.928,2.352c-1.088,0.544-2.144,0.944-3.168,1.2
		c-1.024,0.256-1.944,0.408-2.76,0.456c-0.816,0.048-1.416,0.072-1.8,0.072c-0.192,0-0.536-0.008-1.032-0.024
		c-0.497-0.017-1.08-0.071-1.752-0.168c-0.672-0.096-1.384-0.256-2.136-0.479c-0.752-0.225-1.464-0.545-2.136-0.96
		c-0.192-0.129-0.472-0.329-0.84-0.601c-0.368-0.271-0.736-0.624-1.104-1.056s-0.68-0.944-0.936-1.536
		c-0.256-0.593-0.384-1.271-0.384-2.04c0.032-1.151,0.344-2.208,0.936-3.168s1.352-1.76,2.28-2.399
		c0.992-0.705,2.224-1.265,3.696-1.681c1.472-0.416,3.456-0.704,5.952-0.863c-0.064-0.064-0.12-0.136-0.168-0.217
		c-0.048-0.079-0.104-0.151-0.168-0.216c-0.161-0.159-0.384-0.487-0.672-0.983s-0.432-1.112-0.432-1.849
		c0-0.256,0.032-0.504,0.096-0.744c0.063-0.239,0.175-0.583,0.336-1.031c-0.257,0.032-0.744,0.056-1.464,0.071
		c-0.72,0.017-1.497-0.088-2.328-0.312c-1.697-0.448-3.064-1.336-4.104-2.664c-1.041-1.327-1.56-2.872-1.56-4.633
		c0-1.311,0.312-2.551,0.936-3.719c0.624-1.168,1.447-2.152,2.472-2.952c1.28-0.991,2.568-1.615,3.864-1.872
		c1.296-0.255,2.712-0.416,4.248-0.48h10.08L24.062,3.205z M19.79,26.053c-0.353-0.257-0.704-0.513-1.056-0.768
		c-0.353-0.257-0.704-0.513-1.056-0.769c-0.449-0.064-0.929-0.089-1.44-0.072c-0.512,0.017-1.2,0.072-2.064,0.168
		c-1.248,0.192-2.304,0.464-3.168,0.816c-0.864,0.352-1.56,0.775-2.088,1.272c-0.528,0.495-0.912,1.039-1.152,1.632
		c-0.24,0.592-0.36,1.207-0.36,1.848c0,0.319,0.056,0.744,0.168,1.272c0.111,0.527,0.408,1.111,0.888,1.752
		c0.544,0.703,1.208,1.248,1.992,1.632c0.784,0.384,1.543,0.663,2.28,0.84c0.736,0.176,1.399,0.279,1.992,0.312
		c0.592,0.032,0.967,0.049,1.128,0.049c0.544,0,1.111-0.041,1.704-0.12c0.592-0.08,1.167-0.216,1.728-0.408
		c0.56-0.192,1.08-0.448,1.56-0.769c0.479-0.319,0.896-0.736,1.247-1.247c0.385-0.545,0.616-1.057,0.696-1.536
		c0.08-0.48,0.12-0.849,0.12-1.104c0-0.929-0.208-1.688-0.624-2.28s-0.944-1.192-1.584-1.8L19.79,26.053z M20.27,12.085
		c0.031-0.929-0.08-1.904-0.336-2.928c-0.257-1.024-0.608-1.952-1.056-2.784c-0.704-1.312-1.496-2.191-2.376-2.64
		c-0.88-0.448-1.64-0.672-2.28-0.672c-0.225,0-0.537,0.041-0.936,0.12c-0.401,0.08-0.824,0.248-1.272,0.504
		c-0.512,0.288-1.008,0.776-1.488,1.464c-0.48,0.688-0.72,1.72-0.72,3.096c0,0.576,0.063,1.208,0.192,1.896
		c0.127,0.688,0.319,1.368,0.576,2.04c0.255,0.672,0.559,1.305,0.912,1.896c0.352,0.592,0.768,1.096,1.248,1.512
		c0.224,0.191,0.6,0.432,1.128,0.72c0.528,0.288,1.192,0.432,1.992,0.432c0.384,0,0.751-0.048,1.104-0.144
		c0.352-0.096,0.704-0.224,1.056-0.384c0.511-0.256,1.008-0.688,1.488-1.296C19.981,14.31,20.237,13.365,20.27,12.085z"/>
</g>
<polygon fill="#DC4A38" points="39,17.083 34.167,17.083 34.167,12.25 31.917,12.25 31.917,17.083 27.083,17.083 27.083,19.333 
	31.917,19.333 31.917,24.167 34.167,24.167 34.167,19.333 39,19.333 "/>
</svg>
