<?xml version="1.0" encoding="utf-8"?>
<!-- Generator: Adobe Illustrator 17.0.2, SVG Export Plug-In . SVG Version: 6.00 Build 0)  -->
<!DOCTYPE svg PUBLIC "-//W3C//DTD SVG 1.1//EN" "http://www.w3.org/Graphics/SVG/1.1/DTD/svg11.dtd">
<svg version="1.1" id="Calque_1" xmlns="http://www.w3.org/2000/svg" xmlns:xlink="http://www.w3.org/1999/xlink" x="0px" y="0px"
	 width="180px" height="180px" viewBox="0 0 180 180" enable-background="new 0 0 180 180" xml:space="preserve">
<g id="WATER">
	<g>
		<g>
			
				<rect x="86.927" y="143.098" fill="#3D3D3D" stroke="#F7F7F7" stroke-width="2" stroke-miterlimit="10" width="4.94" height="20.542"/>
			<path fill="#3D3D3D" stroke="#F7F7F7" stroke-width="2" stroke-miterlimit="10" d="M91.742,143.223v20.291h-4.69v-20.291H91.742
				 M91.992,142.973h-5.19v20.791h5.19V142.973L91.992,142.973z"/>
		</g>
	</g>
	<g>
		<g>
			
				<rect x="47.556" y="142.401" transform="matrix(0.5016 -0.8651 0.8651 0.5016 -96.5072 122.2287)" fill="#3D3D3D" stroke="#F7F7F7" stroke-width="2" stroke-miterlimit="10" width="20.539" height="4.94"/>
			<path fill="#3D3D3D" stroke="#F7F7F7" stroke-width="2" stroke-miterlimit="10" d="M60.885,134.92l4.057,2.353l-10.177,17.552
				l-4.057-2.353L60.885,134.92 M60.794,134.579l-10.428,17.985l4.49,2.603l10.428-17.985L60.794,134.579L60.794,134.579z"/>
		</g>
	</g>
	<g>
		<g>
			
				<rect x="32.483" y="48.668" transform="matrix(0.5008 -0.8655 0.8655 0.5008 -33.5656 59.6736)" fill="#3D3D3D" stroke="#F7F7F7" stroke-width="2" stroke-miterlimit="10" width="4.94" height="20.54"/>
			<path fill="#3D3D3D" stroke="#F7F7F7" stroke-width="2" stroke-miterlimit="10" d="M27.343,51.827L44.905,61.99l-2.349,4.059
				L24.994,55.886L27.343,51.827 M27.252,51.485l-2.6,4.492l17.995,10.414l2.6-4.492L27.252,51.485L27.252,51.485z"/>
		</g>
	</g>
	<g>
		<g>
			
				<rect x="55.508" y="25.671" transform="matrix(0.8664 -0.4994 0.4994 0.8664 -10.2006 33.7556)" fill="#3D3D3D" stroke="#F7F7F7" stroke-width="2" stroke-miterlimit="10" width="4.939" height="20.538"/>
			<path fill="#3D3D3D" stroke="#F7F7F7" stroke-width="2" stroke-miterlimit="10" d="M54.944,25.982l10.132,17.576L61.013,45.9
				L50.881,28.324L54.944,25.982 M55.036,25.64l-4.496,2.592l10.382,18.01l4.496-2.592L55.036,25.64L55.036,25.64z"/>
		</g>
	</g>
	<g>
		<g>
			
				<rect x="133.628" y="56.562" transform="matrix(0.8663 -0.4995 0.4995 0.8663 -10.2492 79.7693)" fill="#3D3D3D" stroke="#F7F7F7" stroke-width="2" stroke-miterlimit="10" width="20.539" height="4.939"/>
			<path fill="#3D3D3D" stroke="#F7F7F7" stroke-width="2" stroke-miterlimit="10" d="M151.512,51.93l2.343,4.063l-17.576,10.134
				l-2.343-4.063L151.512,51.93 M151.603,51.589l-18.01,10.384l2.592,4.496l18.01-10.384L151.603,51.589L151.603,51.589z"/>
		</g>
	</g>
	<g>
		<g>
			
				<rect x="118.357" y="134.697" transform="matrix(0.8664 -0.4993 0.4993 0.8664 -56.2442 79.695)" fill="#3D3D3D" stroke="#F7F7F7" stroke-width="2" stroke-miterlimit="10" width="4.94" height="20.54"/>
			<path fill="#3D3D3D" stroke="#F7F7F7" stroke-width="2" stroke-miterlimit="10" d="M117.787,135.008l10.133,17.58l-4.063,2.342
				l-10.133-17.58L117.787,135.008 M117.878,134.667l-4.497,2.592l10.383,18.013l4.497-2.592L117.878,134.667L117.878,134.667z"/>
		</g>
	</g>
	<g>
		<g>
			
				<rect x="141.415" y="111.669" transform="matrix(0.5003 -0.8658 0.8658 0.5003 -33.6838 185.5112)" fill="#3D3D3D" stroke="#F7F7F7" stroke-width="2" stroke-miterlimit="10" width="4.94" height="20.54"/>
			<path fill="#3D3D3D" stroke="#F7F7F7" stroke-width="2" stroke-miterlimit="10" d="M136.265,114.835l17.57,10.152l-2.346,4.061
				l-17.57-10.152L136.265,114.835 M136.173,114.493l-2.597,4.494l18.003,10.402l2.597-4.494L136.173,114.493L136.173,114.493z"/>
		</g>
	</g>
	<g>
		<g>
			
				<rect x="16.214" y="87.984" fill="#3D3D3D" stroke="#F7F7F7" stroke-width="2" stroke-miterlimit="10" width="20.542" height="4.94"/>
			<path fill="#3D3D3D" stroke="#F7F7F7" stroke-width="2" stroke-miterlimit="10" d="M36.63,88.109v4.69H16.339v-4.69H36.63
				 M36.88,87.859H16.089v5.19H36.88V87.859L36.88,87.859z"/>
		</g>
	</g>
	<g>
		<g>
			
				<rect x="142.041" y="87.984" fill="#3D3D3D" stroke="#F7F7F7" stroke-width="2" stroke-miterlimit="10" width="20.541" height="4.94"/>
			<path fill="#3D3D3D" stroke="#F7F7F7" stroke-width="2" stroke-miterlimit="10" d="M162.457,88.109v4.69h-20.291v-4.69H162.457
				 M162.707,87.859h-20.791v5.19h20.791V87.859L162.707,87.859z"/>
		</g>
	</g>
	<g>
		<g>
			
				<rect x="24.02" y="119.088" transform="matrix(0.8678 -0.4969 0.4969 0.8678 -55.87 33.1101)" fill="#3D3D3D" stroke="#F7F7F7" stroke-width="2" stroke-miterlimit="10" width="20.548" height="4.943"/>
			<path fill="#3D3D3D" stroke="#F7F7F7" stroke-width="2" stroke-miterlimit="10" d="M41.931,114.483l2.332,4.072l-17.614,10.088
				l-2.332-4.072L41.931,114.483 M42.024,114.142l-18.048,10.336l2.58,4.506l18.048-10.336L42.024,114.142L42.024,114.142z"/>
		</g>
	</g>
	<g>
		<g>
			<path fill="#3D3D3D" d="M89.397,176.354c-47.364,0-85.897-38.534-85.897-85.899c0-47.363,38.533-85.896,85.897-85.896
				c47.366,0,85.901,38.533,85.901,85.896C175.298,137.819,136.763,176.354,89.397,176.354z M86.685,10.082
				c-20.884,0.698-40.427,9.375-55.028,24.432C17.018,49.61,8.956,69.476,8.956,90.454c0,44.356,36.085,80.443,80.441,80.443
				c44.358,0,80.445-36.087,80.445-80.443c0-27.816-14.126-53.294-37.788-68.155l-3.071-1.928L90.302,87.09V9.961L86.685,10.082z"/>
			<path fill="#F7F7F7" d="M89.397,6.058c46.539,0,84.401,37.86,84.401,84.396c0,46.538-37.862,84.4-84.401,84.4
				C42.86,174.854,5,136.992,5,90.454C5,43.918,42.86,6.058,89.397,6.058 M89.397,172.397c45.185,0,81.945-36.759,81.945-81.943
				c0-28.335-14.389-54.288-38.491-69.425l-1.755-1.102l-2.632-1.653l-1.559,2.689L91.802,81.512v-70V8.41l-3.1,0.103l-2.067,0.069
				C65.361,9.294,45.454,18.132,30.58,33.47C15.668,48.846,7.456,69.084,7.456,90.454C7.456,135.638,44.215,172.397,89.397,172.397
				 M89.397,3.058C41.206,3.058,2,42.264,2,90.454c0,48.192,39.206,87.4,87.397,87.4c48.193,0,87.401-39.208,87.401-87.4
				C176.798,42.264,137.59,3.058,89.397,3.058L89.397,3.058z M89.397,169.397c-43.528,0-78.941-35.414-78.941-78.943
				c0-20.586,7.912-40.082,22.278-54.896C47.065,20.78,66.242,12.266,86.735,11.581l2.067-0.069v78.942
				c0,0.269,0.18,0.505,0.442,0.575c0.051,0.014,0.101,0.021,0.153,0.021c0.212,0,0.409-0.113,0.515-0.297l39.589-68.285
				l1.755,1.102c23.222,14.584,37.086,39.588,37.086,66.884C168.342,133.983,132.928,169.397,89.397,169.397L89.397,169.397z"/>
		</g>
	</g>
</g>
</svg>
