<?xml version="1.0" encoding="utf-8"?>
<!-- Generator: Adobe Illustrator 17.0.2, SVG Export Plug-In . SVG Version: 6.00 Build 0)  -->
<!DOCTYPE svg PUBLIC "-//W3C//DTD SVG 1.1//EN" "http://www.w3.org/Graphics/SVG/1.1/DTD/svg11.dtd">
<svg version="1.1" id="Calque_1" xmlns="http://www.w3.org/2000/svg" xmlns:xlink="http://www.w3.org/1999/xlink" x="0px" y="0px"
	 width="180px" height="180px" viewBox="0 0 180 180" enable-background="new 0 0 180 180" xml:space="preserve">
<g id="WATER">
	<g>
		<g>
			<rect x="86.927" y="143.098" fill="#3D3D3D" width="4.94" height="20.542"/>
			<path fill="#F7F8F8" d="M91.742,143.223v20.291h-4.69v-20.291H91.742 M91.992,142.973h-5.19v20.791h5.19V142.973L91.992,142.973z
				"/>
		</g>
	</g>
	<g>
		<g>
			
				<rect x="47.555" y="142.402" transform="matrix(-0.5016 0.8651 -0.8651 -0.5016 212.1594 167.5145)" fill="#3D3D3D" width="20.539" height="4.94"/>
			<path fill="#F7F8F8" d="M60.885,134.92l4.057,2.353l-10.177,17.552l-4.057-2.353L60.885,134.92 M60.794,134.579l-10.428,17.985
				l4.49,2.603l10.428-17.985L60.794,134.579L60.794,134.579z"/>
		</g>
	</g>
	<g>
		<g>
			
				<rect x="32.479" y="48.668" transform="matrix(-0.5008 0.8655 -0.8655 -0.5008 103.4669 58.2056)" fill="#3D3D3D" width="4.94" height="20.541"/>
			<path fill="#F7F8F8" d="M27.343,51.827L44.905,61.99l-2.349,4.059L24.994,55.886L27.343,51.827 M27.252,51.485l-2.6,4.492
				l17.995,10.414l2.6-4.492L27.252,51.485L27.252,51.485z"/>
		</g>
	</g>
	<g>
		<g>
			
				<rect x="55.509" y="25.672" transform="matrix(-0.8664 0.4994 -0.4994 -0.8664 126.159 38.1238)" fill="#3D3D3D" width="4.939" height="20.537"/>
			<path fill="#F7F8F8" d="M54.944,25.982l10.132,17.576l-4.063,2.342L50.881,28.324L54.944,25.982 M55.036,25.64l-4.496,2.592
				l10.382,18.01l4.496-2.592L55.036,25.64L55.036,25.64z"/>
		</g>
	</g>
	<g>
		<g>
			
				<rect x="133.625" y="56.559" transform="matrix(-0.8663 0.4995 -0.4995 -0.8663 298.0375 38.2929)" fill="#3D3D3D" width="20.539" height="4.939"/>
			<path fill="#F7F8F8" d="M151.512,51.93l2.343,4.063l-17.576,10.134l-2.343-4.063L151.512,51.93 M151.603,51.589l-18.01,10.384
				l2.592,4.496l18.01-10.384L151.603,51.589L151.603,51.589z"/>
		</g>
	</g>
	<g>
		<g>
			
				<rect x="118.352" y="134.699" transform="matrix(-0.8664 0.4993 -0.4993 -0.8664 297.8906 210.2426)" fill="#3D3D3D" width="4.94" height="20.541"/>
			<path fill="#F7F8F8" d="M117.787,135.008l10.133,17.58l-4.063,2.342l-10.133-17.58L117.787,135.008 M117.878,134.667
				l-4.497,2.592l10.383,18.013l4.497-2.592L117.878,134.667L117.878,134.667z"/>
		</g>
	</g>
	<g>
		<g>
			
				<rect x="141.406" y="111.67" transform="matrix(-0.5003 0.8658 -0.8658 -0.5003 321.4419 58.3782)" fill="#3D3D3D" width="4.94" height="20.541"/>
			<path fill="#F7F8F8" d="M136.265,114.835l17.57,10.152l-2.346,4.061l-17.57-10.152L136.265,114.835 M136.173,114.493
				l-2.597,4.494l18.003,10.402l2.597-4.494L136.173,114.493L136.173,114.493z"/>
		</g>
	</g>
	<g>
		<g>
			<rect x="16.214" y="87.984" fill="#3D3D3D" width="20.542" height="4.94"/>
			<path fill="#F7F8F8" d="M36.63,88.109v4.69H16.339v-4.69H36.63 M36.88,87.859H16.089v5.19H36.88V87.859L36.88,87.859z"/>
		</g>
	</g>
	<g>
		<g>
			<rect x="142.041" y="87.984" fill="#3D3D3D" width="20.541" height="4.94"/>
			<path fill="#F7F8F8" d="M162.457,88.109v4.69h-20.291v-4.69H162.457 M162.707,87.859h-20.791v5.19h20.791V87.859L162.707,87.859z
				"/>
		</g>
	</g>
	<g>
		<g>
			
				<rect x="24.016" y="119.091" transform="matrix(-0.8678 0.4969 -0.4969 -0.8678 124.4549 210.0129)" fill="#3D3D3D" width="20.548" height="4.943"/>
			<path fill="#F7F8F8" d="M41.931,114.483l2.332,4.072l-17.614,10.088l-2.332-4.072L41.931,114.483 M42.024,114.142l-18.048,10.336
				l2.58,4.506l18.048-10.336L42.024,114.142L42.024,114.142z"/>
		</g>
	</g>
	<g>
		<path fill="#3D3D3D" d="M89.397,177.854C41.206,177.854,2,138.646,2,90.454C2,42.264,41.206,3.058,89.397,3.058
			c48.193,0,87.401,39.206,87.401,87.396C176.798,138.646,137.59,177.854,89.397,177.854z M86.735,11.581
			c-20.493,0.685-39.67,9.199-54.001,23.977c-14.366,14.814-22.278,34.31-22.278,54.896c0,43.529,35.413,78.943,78.941,78.943
			c43.531,0,78.945-35.414,78.945-78.943c0-27.296-13.864-52.3-37.086-66.884l-1.755-1.102L89.912,90.753
			c-0.106,0.184-0.303,0.297-0.515,0.297c-0.052,0-0.102-0.007-0.153-0.021c-0.262-0.07-0.442-0.306-0.442-0.575V11.512
			L86.735,11.581z"/>
		<path fill="#F7F8F8" d="M89.397,5.058c47.09,0,85.401,38.309,85.401,85.397c0,47.089-38.311,85.399-85.401,85.399
			C42.309,175.853,4,137.543,4,90.454C4,43.366,42.309,5.058,89.397,5.058 M89.397,171.397c44.633,0,80.945-36.311,80.945-80.943
			c0-27.988-14.214-53.625-38.022-68.578l-3.509-2.204l-2.079,3.585l-35.93,61.974V13.58V9.444l-4.133,0.138
			c-21.013,0.702-40.677,9.432-55.37,24.583C16.568,49.354,8.456,69.345,8.456,90.454C8.456,135.086,44.766,171.397,89.397,171.397
			 M89.397,1.058C40.104,1.058,0,41.16,0,90.454s40.102,89.399,89.397,89.399c49.297,0,89.401-40.102,89.401-89.399
			C178.798,41.162,138.694,1.058,89.397,1.058L89.397,1.058z M89.397,167.397c-42.425,0-76.941-34.516-76.941-76.943
			c0-41.555,33.121-75.498,74.346-76.874v76.874c0,1.173,0.787,2.203,1.92,2.506c0.224,0.06,0.451,0.089,0.675,0.089
			c0.909,0,1.773-0.477,2.246-1.293l38.549-66.492c21.69,13.623,36.149,37.744,36.149,65.191
			C166.342,132.882,131.824,167.397,89.397,167.397L89.397,167.397z"/>
	</g>
</g>
</svg>
