<?xml version="1.0" encoding="utf-8"?>
<!-- Generator: Adobe Illustrator 17.0.2, SVG Export Plug-In . SVG Version: 6.00 Build 0)  -->
<!DOCTYPE svg PUBLIC "-//W3C//DTD SVG 1.1//EN" "http://www.w3.org/Graphics/SVG/1.1/DTD/svg11.dtd">
<svg version="1.1" id="avatar_4" xmlns="http://www.w3.org/2000/svg" xmlns:xlink="http://www.w3.org/1999/xlink" x="0px" y="0px"
	 width="350.746px" height="245.333px" viewBox="0 0 350.746 245.333" enable-background="new 0 0 350.746 245.333"
	 xml:space="preserve">
<g id="Calque_41">
</g>
<g id="micro">
</g>
<path fill="#3C3C3C" stroke="#3C3C3C" stroke-width="2" stroke-miterlimit="10" d="M340.478,150.37
	c0,15.221-4.071,55.12-19.292,55.12h-94.392c-15.221,0-19.292-39.899-19.292-55.12l-8.268-39.502c0-15.221,12.339-27.56,27.56-27.56
	h94.392c15.221,0,27.56,12.339,27.56,27.56L340.478,150.37z"/>
<g>
	<path fill="#FFFFFF" d="M239.31,242.749c-12.233,0-22.187-9.953-22.187-22.187v-5.512c0-10.312,9.603-19.275,28.542-26.641
		c13.884-5.399,27.953-7.908,28.094-7.933l0.196-0.035l0.195,0.044c2.318,0.521,56.763,12.997,56.763,34.564v5.512
		c0,11.819-11.012,22.187-23.564,22.187H239.31z"/>
	<path fill="#3C3C3C" d="M273.932,181.462c0,0,55.981,12.574,55.981,33.588c0,5.138,0,5.512,0,5.512
		c0,11.701-10.864,21.187-22.565,21.187h-68.038c-11.701,0-21.187-9.486-21.187-21.187c0,0,0-0.489,0-5.512
		C218.124,191.28,273.932,181.462,273.932,181.462 M273.98,179.423l-0.394,0.069c-2.346,0.413-57.462,10.398-57.462,35.558v5.512
		c0,12.785,10.401,23.187,23.187,23.187h68.038c6.155,0,12.36-2.454,17.022-6.732c4.864-4.463,7.542-10.306,7.542-16.455v-5.512
		c0-9.603-9.834-18.527-29.228-26.524c-13.991-5.769-28.173-8.984-28.315-9.016L273.98,179.423L273.98,179.423z"/>
</g>
<g>
	<defs>
		<path id="SVGID_1_" d="M329.913,215.05c0-21.014-55.981-33.588-55.981-33.588s-55.808,9.818-55.808,33.588
			c0,5.023,0,5.512,0,5.512c0,11.701,9.486,21.187,21.187,21.187h68.038c11.701,0,22.565-9.486,22.565-21.187
			C329.913,220.562,329.913,220.188,329.913,215.05z"/>
	</defs>
	<clipPath id="SVGID_2_">
		<use xlink:href="#SVGID_1_"  overflow="visible"/>
	</clipPath>
	<rect x="210.074" y="200.667" clip-path="url(#SVGID_2_)" fill="#2C79B7" width="119.84" height="5.053"/>
	<rect x="210.074" y="214.446" clip-path="url(#SVGID_2_)" fill="#2C79B7" width="119.84" height="5.053"/>
	<rect x="210.074" y="228.226" clip-path="url(#SVGID_2_)" fill="#2C79B7" width="119.84" height="5.053"/>
</g>
<path fill="#65AEF1" stroke="#3C3C3C" stroke-miterlimit="10" d="M307.75,198.399"/>
<path fill="#F9E4E6" stroke="#3C3C3C" stroke-width="2" stroke-miterlimit="10" d="M284.957,197.739
	c0,6.136-4.974,11.11-11.11,11.11l0,0c-6.136,0-11.11-4.974-11.11-11.11v-15.847c0-6.136,4.974-11.11,11.11-11.11l0,0
	c6.136,0,11.11,4.974,11.11,11.11V197.739z"/>
<g id="face_2_">
	<path fill="#F9E4E6" d="M274.794,183.39c-13.219,0-55.268-29.343-55.268-49.297c0-19.381,0.195-71.303,0.226-79.152h106.635v79.152
		c0,6.769-8.069,18.4-21.06,30.355C293.209,175.601,280.653,183.39,274.794,183.39z"/>
	<path fill="#3C3C3C" d="M325.387,55.94v78.153c0,6.399-8.14,18.026-20.737,29.619c-11.759,10.822-24.316,18.677-29.856,18.677
		c-6.756,0-21.474-8.535-31.799-16.787c-14.069-11.244-22.469-23.023-22.469-31.509c0-18.693,0.182-67.66,0.222-78.153H325.387
		 M327.387,53.94H218.755c0,0-0.23,59.024-0.23,80.153c0,21.129,43.164,50.297,56.268,50.297s52.593-34.45,52.593-50.297
		C327.387,118.246,327.387,53.94,327.387,53.94L327.387,53.94z"/>
</g>
<circle fill="#3C3C3C" cx="243.329" cy="107.797" r="4.651"/>
<circle fill="#3C3C3C" cx="301.205" cy="107.797" r="4.651"/>
<path fill="none" stroke="#3C3C3C" stroke-width="2" stroke-miterlimit="10" d="M233.684,90.572c0,0,3.962-1.378,8.44-1.378
	c4.478,0,8.44,1.378,8.44,1.378"/>
<path fill="none" stroke="#3C3C3C" stroke-width="2" stroke-miterlimit="10" d="M291.559,90.572c0,0,3.962-1.378,8.44-1.378
	s8.44,1.378,8.44,1.378"/>
<path fill="none" stroke="#3C3C3C" stroke-width="2" stroke-miterlimit="10" d="M255.731,152.581c0,0,5.397,5.512,16.708,5.512
	s16.708-5.512,16.708-5.512"/>
<polyline fill="none" stroke="#3C3C3C" stroke-width="2" stroke-miterlimit="10" points="271.234,123.758 276.746,129.443 
	271.234,135.127 "/>
<path fill="#F4CED3" d="M254.468,127.203c0,3.678-2.982,6.66-6.66,6.66h-8.842c-3.678,0-6.66-2.982-6.66-6.66l0,0
	c0-3.678,2.982-6.66,6.66-6.66h8.842C251.486,120.543,254.468,123.525,254.468,127.203L254.468,127.203z"/>
<path fill="#F4CED3" d="M313.722,127.203c0,3.678-2.982,6.66-6.66,6.66h-8.842c-3.678,0-6.66-2.982-6.66-6.66l0,0
	c0-3.678,2.982-6.66,6.66-6.66h8.842C310.74,120.543,313.722,123.525,313.722,127.203L313.722,127.203z"/>
<path fill="#3C3C3C" stroke="#3C3C3C" stroke-width="2" stroke-miterlimit="10" d="M199.234,66.457
	c0-30.061,30.66-73.522,75.445-61.32c43.407-11.513,74.067,31.259,74.067,61.32c0,5.643,0,44.928,0,44.928l-21.244,3.846
	c0,0,0-21.274,0-33.072c-24.574-1.608-25.263-24.953-25.263-24.953s0.172,8.876-18.603,14.158S254.124,89.05,254.124,89.05
	s-0.892-6.021-3.61-12.385c-27.739-1.854-31.758,18.042-31.758,18.042l-0.23,7.584l-19.292,3.984
	C199.234,106.274,199.234,96.518,199.234,66.457z"/>
<polyline fill="none" stroke="#757575" stroke-width="2" stroke-miterlimit="10" points="287.597,167.25 309.473,161.877 
	331.348,123.758 "/>
<ellipse fill="#3C3C3C" cx="284.957" cy="167.25" rx="8.453" ry="6.624"/>
<path fill="#F9E4E6" stroke="#3C3C3C" stroke-width="2" stroke-miterlimit="10" d="M218.956,128.065L218.956,128.065
	c-5.851,0-11.971-4.743-11.971-10.593v-12.172c0-5.851,6.121-10.593,11.971-10.593"/>
<path fill="#F9E4E6" stroke="#3C3C3C" stroke-width="2" stroke-miterlimit="10" d="M326.439,94.706L326.439,94.706
	c5.85,0,11.971,4.743,11.971,10.593v12.172c0,5.851-6.121,10.593-11.971,10.593"/>
<path fill="#FFFA48" stroke="#3C3C3C" stroke-width="2" stroke-miterlimit="10" d="M121.678,216.939
	c0-21.014-55.981-33.588-55.981-33.588s-55.808,9.818-55.808,33.588s0,5.512,0,5.512c0,11.701,9.486,21.187,21.187,21.187h68.038
	c11.701,0,22.565-9.486,22.565-21.187C121.678,222.451,121.678,237.954,121.678,216.939z"/>
<path fill="#65AEF1" stroke="#3C3C3C" stroke-miterlimit="10" d="M100.491,198.509"/>
<path fill="#F9EAEC" stroke="#3C3C3C" stroke-width="2" stroke-miterlimit="10" d="M76.721,194.116
	c0,6.136-11.11,16.622-11.11,16.622s-11.11-10.486-11.11-16.622V178.27c0-6.136,4.974-11.11,11.11-11.11l0,0
	c6.136,0,11.11,4.974,11.11,11.11V194.116z"/>
<g id="face_9_">
	<path fill="#F9EAEC" d="M65.708,179.365c-12.974,0-25.628-5.413-35.632-15.241c-9.284-9.119-14.826-20.945-14.826-31.635
		c0-20.623,0.208-75.956,0.24-84.08h96.777v84.08C112.267,148.954,93.067,179.365,65.708,179.365z"/>
	<g>
		<path fill="#3C3C3C" d="M111.267,49.409v83.08c0,16.114-18.787,45.876-45.558,45.876c-12.71,0-25.116-5.311-34.932-14.954
			c-9.096-8.936-14.526-20.495-14.526-30.922c0-19.916,0.195-72.209,0.236-83.08H111.267 M113.267,47.409H14.494
			c0,0-0.244,62.652-0.244,85.08s23.18,47.876,51.459,47.876c28.279,0,47.558-31.055,47.558-47.876S113.267,47.409,113.267,47.409
			L113.267,47.409z"/>
	</g>
</g>
<circle fill="#3C3C3C" cx="36.19" cy="104.576" r="4.937"/>
<circle fill="#3C3C3C" cx="91.242" cy="104.576" r="4.937"/>
<path fill="none" stroke="#3C3C3C" stroke-width="3" stroke-miterlimit="10" d="M27.245,90.257c0,0,4.205-1.463,8.959-1.463
	s10.337,2.841,10.337,2.841"/>
<path fill="none" stroke="#3C3C3C" stroke-width="3" stroke-miterlimit="10" d="M81.087,91.635c0,0,5.583-2.841,10.337-2.841
	s8.959,1.463,8.959,1.463"/>
<circle fill="#F4CED3" cx="35.716" cy="126.005" r="6.89"/>
<circle fill="#F4CED3" cx="90.835" cy="126.005" r="6.89"/>
<path fill="none" stroke="#3C3C3C" stroke-width="2" stroke-miterlimit="10" d="M72.267,126.005c0,0-2.828,5.851-8.79,5.851
	s-8.79-5.851-8.79-5.851"/>
<path fill="#FF8E5C" stroke="#3C3C3C" stroke-width="2" stroke-miterlimit="10" d="M15.69,108.303V61.483
	c0,0,7.239,14.936,29.643,14.936s29.298-14.936,29.298-14.936s2.872,2.011,6.319,2.011c3.447,0,6.606-2.011,6.606-2.011
	s3.447,4.596,10.34,4.596c6.894,0,14.074-4.596,14.074-4.596v45.383l7.468,4.883c0,0,0-49.117,0-54.287s-5.17-5.457-5.17-5.457
	s0.718-3.878-3.447-8.043s-6.032-3.447-6.032-3.447s5.745-8.904-13.787-18.096s-25.851,2.872-25.851,2.872
	S44.185,9.781,24.94,22.994s-14.649,30.16-14.649,30.16S6.27,54.877,6.27,60.047s0,53.426,0,53.426L15.69,108.303z"/>
<path fill="#FF8E5C" stroke="#3C3C3C" stroke-width="2" stroke-miterlimit="10" d="M14.37,130.224c0,0,4.362,49.608,20.67,49.608
	s42.132,0.254,56.551,0.254s20.67-49.608,20.67-49.608s-12.252,24.634-17.292,24.634c-5.04,0-10.541,0-10.541,0
	s-0.679-13.78-20.67-13.78s-20.67,13.78-20.67,13.78s-6.668,0-14.709,0S14.37,130.224,14.37,130.224z"/>
<path fill="none" stroke="#3C3C3C" stroke-width="2" stroke-miterlimit="10" d="M52.035,152.283c0,0-0.831,2.925,11.175,2.925
	s12.251-2.925,12.251-2.925"/>
<polyline fill="none" stroke="#757575" stroke-width="2" stroke-miterlimit="10" points="75.361,167.883 97.236,162.51 
	119.112,124.391 "/>
<ellipse fill="#3C3C3C" cx="72.72" cy="167.883" rx="8.453" ry="6.624"/>
<path fill="#F9EAEC" stroke="#3C3C3C" stroke-width="2" stroke-miterlimit="10" d="M14.707,130.224L14.707,130.224
	C8.497,130.224,2,125.189,2,118.979v-12.92c0-6.21,6.497-11.244,12.707-11.244"/>
<path fill="#F9EAEC" stroke="#3C3C3C" stroke-width="2" stroke-miterlimit="10" d="M112.261,94.814L112.261,94.814
	c6.21,0,12.707,5.034,12.707,11.244v12.92c0,6.21-6.497,11.244-12.707,11.244"/>
</svg>
