<?xml version="1.0" encoding="utf-8"?>
<!-- Generator: Adobe Illustrator 17.0.2, SVG Export Plug-In . SVG Version: 6.00 Build 0)  -->
<!DOCTYPE svg PUBLIC "-//W3C//DTD SVG 1.1//EN" "http://www.w3.org/Graphics/SVG/1.1/DTD/svg11.dtd">
<svg version="1.1" id="Calque_1" xmlns="http://www.w3.org/2000/svg" xmlns:xlink="http://www.w3.org/1999/xlink" x="0px" y="0px"
	 width="160px" height="290px" viewBox="0 0 160 290" enable-background="new 0 0 160 290" xml:space="preserve">
<g>
	<polygon fill="#382011" points="123.905,243.281 31.825,239.799 22.183,165.982 143.7,154.01 	"/>
	<g>
		<path fill="#767676" d="M43.798,287c-13.544,0-24.562-11.019-24.562-24.562v-6.13c0-11.418,10.656-21.351,31.671-29.523
			c15.43-6.001,31.066-8.789,31.223-8.817l0.197-0.034l0.195,0.044c0.156,0.035,15.827,3.589,31.292,9.965
			c21.067,8.686,31.749,18.229,31.749,28.366v6.13c0,13.085-12.194,24.562-26.096,24.562H43.798z"/>
		<path fill="#3C3C3C" d="M82.303,218.952c0,0,62.259,13.984,62.259,37.355c0,5.714,0,6.13,0,6.13
			c0,13.013-12.082,23.563-25.095,23.563H43.798c-13.013,0-23.563-10.549-23.563-23.563c0,0,0-0.544,0-6.13
			C20.236,229.871,82.303,218.952,82.303,218.952 M82.351,216.913l-0.394,0.069c-2.602,0.458-63.721,11.53-63.721,39.325v6.13
			c0,14.095,11.467,25.563,25.563,25.563h75.669c6.79,0,13.635-2.707,18.78-7.428c5.362-4.92,8.315-11.361,8.315-18.135v-6.13
			c0-10.581-10.89-20.436-32.367-29.291c-15.543-6.408-31.296-9.981-31.454-10.016L82.351,216.913L82.351,216.913z"/>
	</g>
	<g>
		<defs>
			<path id="SVGID_1_" d="M144.562,256.307c0-23.371-62.259-37.355-62.259-37.355s-62.067,10.919-62.067,37.355
				c0,5.586,0,6.13,0,6.13c0,13.013,10.549,23.563,23.563,23.563h75.669c13.013,0,25.095-10.549,25.095-23.563
				C144.562,262.437,144.562,262.021,144.562,256.307z"/>
		</defs>
		<clipPath id="SVGID_2_">
			<use xlink:href="#SVGID_1_"  overflow="visible"/>
		</clipPath>
	</g>
	<path fill="#6FAADA" stroke="#3C3C3C" stroke-miterlimit="10" d="M119.914,237.789"/>
	<path fill="#F9E4E6" stroke="#3C3C3C" stroke-width="2" stroke-miterlimit="10" d="M94.563,229.392
		c0,6.824-5.532,12.356-12.356,12.356l0,0c-6.824,0-12.356-5.532-12.356-12.356v-17.624c0-6.824,5.532-12.356,12.356-12.356l0,0
		c6.824,0,12.356,5.532,12.356,12.356V229.392z"/>
	<g id="face_17_">
		<path fill="#F9E4E6" d="M83.261,212.013c-23.319,0-55.448-31.833-55.448-54.938c0-21.648,0.22-79.803,0.251-88.142h106.558v88.142
			c0,8.464-6.807,22.098-16.937,33.928C106.251,204.354,93.704,212.013,83.261,212.013z"/>
		<g>
			<path fill="#3C3C3C" d="M133.622,69.933v87.142c0,8.114-6.866,21.798-16.696,33.277c-11.244,13.13-23.515,20.661-33.665,20.661
				c-10.569,0-24.294-7.117-35.818-18.575c-11.492-11.426-18.631-24.976-18.631-35.362c0-20.925,0.205-75.964,0.248-87.142H133.622
				 M135.622,67.933H27.068c0,0-0.255,65.643-0.255,89.142c0,23.499,32.439,55.937,56.448,55.937s52.361-38.313,52.361-55.937
				C135.622,139.451,135.622,67.933,135.622,67.933L135.622,67.933z"/>
		</g>
	</g>
	<circle fill="#3D3D3D" cx="52.865" cy="135.492" r="5.172"/>
	<circle fill="#3D3D3D" cx="108.037" cy="135.492" r="5.172"/>
	<path fill="none" stroke="#3C3C3C" stroke-width="2" stroke-miterlimit="10" d="M43.67,122.466c0,0,4.406-1.533,9.387-1.533
		s9.387,1.533,9.387,1.533"/>
	<path fill="none" stroke="#3C3C3C" stroke-width="2" stroke-miterlimit="10" d="M98.841,122.466c0,0,4.406-1.533,9.387-1.533
		c4.981,0,9.387,1.533,9.387,1.533"/>
	<path fill="none" stroke="#3C3C3C" stroke-width="2" stroke-miterlimit="10" d="M71.256,185.3c0,0,3.704,1.533,9.387,1.533
		s12.452-3.065,12.452-3.065"/>
	<polyline fill="none" stroke="#3C3C3C" stroke-width="2" stroke-miterlimit="10" points="88.688,165.696 82.367,167.228 
		76.045,165.696 	"/>
	<path fill="#F3CED3" d="M63.338,157.001c0,3.204-2.646,5.801-5.91,5.801h-7.847c-3.264,0-5.91-2.597-5.91-5.801l0,0
		c0-3.204,2.646-5.801,5.91-5.801h7.847C60.692,151.201,63.338,153.798,63.338,157.001L63.338,157.001z"/>
	<path fill="#F3CED3" d="M118.509,157.001c0,3.204-2.646,5.801-5.91,5.801h-7.847c-3.264,0-5.91-2.597-5.91-5.801l0,0
		c0-3.204,2.646-5.801,5.91-5.801h7.847C115.863,151.201,118.509,153.798,118.509,157.001L118.509,157.001z"/>
	<g id="cheveux_avant_2_">
		<path fill="#382011" stroke="#3C3C3C" stroke-width="2" stroke-miterlimit="10" d="M82.967,78.271
			c48.3,19.97,48.058,43.995,36.309,145.374c0,0,30.81-54.233,24.425-102.712c-8.104-61.526-11.36-85.769-61.572-73.434
			C29.426,42.8,21.375,84,20.236,102.382c-1.14,18.382-15.844,80.088,27.457,121.263C12.728,123.998,44.481,105.911,82.967,78.271z"
			/>
	</g>
	<circle fill="#FFFFFF" stroke="#3C3C3C" stroke-width="2" stroke-miterlimit="10" cx="81.388" cy="30.913" r="28.401"/>
	<path fill="#FFF1C8" stroke="#3C3C3C" stroke-width="2" stroke-miterlimit="10" d="M81.388,30.913
		c69.86,0,66.552,74.04,66.552,74.04s-5.568,140.75-9.636,138.372c-1.1-0.643,0.827-136.022-0.499-136.764
		c-13.155-7.364-36.663-12.694-55.559-12.694c-16.814,0-38.457,2.943-52.965,10.131c-2.623,1.299-5.012,138.171-7.098,139.282
		c-5.481,2.921-8.863-138.328-8.863-138.328S11.529,30.913,81.388,30.913z"/>
	<circle fill="#FFFFFF" stroke="#3C3C3C" stroke-width="2" stroke-miterlimit="10" cx="22.183" cy="241.748" r="14.975"/>
	<circle fill="#FFFFFF" stroke="#3C3C3C" stroke-width="2" stroke-miterlimit="10" cx="138.655" cy="241.748" r="14.975"/>
	<g>
		<defs>
			<path id="SVGID_3_" d="M81.388,30.913c69.86,0,66.552,74.04,66.552,74.04s-5.568,140.75-9.636,138.372
				c-1.1-0.643,0.827-136.022-0.499-136.764c-13.155-7.364-36.663-12.694-55.559-12.694c-16.814,0-38.457,2.943-52.965,10.131
				c-2.623,1.299-5.012,138.171-7.098,139.282c-5.481,2.921-8.863-138.328-8.863-138.328S11.529,30.913,81.388,30.913z"/>
		</defs>
		<clipPath id="SVGID_4_">
			<use xlink:href="#SVGID_3_"  overflow="visible"/>
		</clipPath>
		<path clip-path="url(#SVGID_4_)" fill="#0D5F57" d="M172.147,104.17c0,0-38.437-21.455-90.758-21.455S-8.867,104.17-8.867,104.17
			v-9.324c0,0,35.768-21.455,90.256-21.455s90.758,21.455,90.758,21.455V104.17z"/>
		<path clip-path="url(#SVGID_4_)" fill="#0D5F57" d="M172.147,81.182c0,0-38.437-21.455-90.758-21.455S-8.867,81.182-8.867,81.182
			v-9.324c0,0,35.768-21.455,90.256-21.455s90.758,21.455,90.758,21.455V81.182z"/>
	</g>
</g>
</svg>
