<?xml version="1.0" encoding="utf-8"?>
<!-- Generator: Adobe Illustrator 17.0.2, SVG Export Plug-In . SVG Version: 6.00 Build 0)  -->
<!DOCTYPE svg PUBLIC "-//W3C//DTD SVG 1.1//EN" "http://www.w3.org/Graphics/SVG/1.1/DTD/svg11.dtd">
<svg version="1.1" id="Calque_1" xmlns="http://www.w3.org/2000/svg" xmlns:xlink="http://www.w3.org/1999/xlink" x="0px" y="0px"
	 width="150px" height="150px" viewBox="0 0 150 150" enable-background="new 0 0 150 150" xml:space="preserve">
<line fill="none" stroke="#3C3C3C" stroke-width="2" stroke-miterlimit="10" x1="49.249" y1="21.241" x2="49.249" y2="46.741"/>
<path fill="none" stroke="#3C3C3C" stroke-width="2" stroke-miterlimit="10" d="M24.827,73.391
	c-6.638,1.022-11.647,5.635-11.647,11.171v11.382c0,5.674,5.262,10.377,12.146,11.24"/>
<path fill="none" stroke="#3C3C3C" stroke-width="2" stroke-miterlimit="10" d="M124.189,107.11
	c6.627-1.029,11.625-5.638,11.625-11.167V84.561c0-5.5-4.945-10.089-11.52-11.15"/>
<polygon fill="none" stroke="#3C3C3C" stroke-width="2" stroke-miterlimit="10" points="124.19,118.208 74.509,146.891 
	24.828,118.208 24.828,60.841 74.509,32.158 124.19,60.841 "/>
<path fill="none" stroke="#3C3C3C" stroke-width="2" stroke-miterlimit="10" d="M106.971,85.203c0,5.046-4.091,9.137-9.137,9.137
	H51.184c-5.046,0-9.137-4.091-9.137-9.137l0,0c0-5.046,4.091-9.137,9.137-9.137h46.649C102.88,76.065,106.971,80.156,106.971,85.203
	L106.971,85.203z"/>
<circle fill="none" stroke="#3C3C3C" stroke-width="2" stroke-miterlimit="10" cx="49.249" cy="12.103" r="9.137"/>
<path fill="none" stroke="#3C3C3C" stroke-width="2" stroke-miterlimit="10" d="M94.215,121.031c0,2.523-2.045,3.126-4.569,3.126
	H59.829c-2.523,0-4.569-0.603-4.569-3.126l0,0c0-2.523,2.045-3.847,4.569-3.847h29.817
	C92.169,117.184,94.215,118.508,94.215,121.031L94.215,121.031z"/>
</svg>
