<?xml version="1.0" encoding="utf-8"?>
<!-- Generator: Adobe Illustrator 17.0.2, SVG Export Plug-In . SVG Version: 6.00 Build 0)  -->
<!DOCTYPE svg PUBLIC "-//W3C//DTD SVG 1.1//EN" "http://www.w3.org/Graphics/SVG/1.1/DTD/svg11.dtd">
<svg version="1.1" id="Calque_1" xmlns="http://www.w3.org/2000/svg" xmlns:xlink="http://www.w3.org/1999/xlink" x="0px" y="0px"
	 width="150px" height="150px" viewBox="0 0 150 150" enable-background="new 0 0 150 150" xml:space="preserve">
<g>
	<g>
		<path fill="#3D3D3D" d="M114.842,144.036c-0.05-0.091-7.615-12.848-17.369-22.635l-0.396-0.397l-0.557-0.068
			c-5.433-0.666-10.595-2.698-14.931-5.874l-0.844-0.619l-0.913,0.514c-3.901,2.194-8.216,3.308-12.826,3.308
			c-7.323,0-14.277-3.017-19.08-8.275l-0.837-0.917l-1.105,0.567c-3.679,1.89-7.705,2.848-11.968,2.848
			c-6.612,0-13.089-2.527-17.77-6.935l-0.17-0.159l-0.208-0.106C7.747,101.16,2.701,93.205,2.701,84.526
			c0-2.971,0.624-6.008,1.805-8.783l0.271-0.637L4.505,74.47c-1.18-2.77-1.804-5.807-1.804-8.783
			c0-10.03,6.737-18.975,16.764-22.257l0.809-0.265l0.243-0.816c3.011-10.102,12.942-17.157,24.153-17.157
			c1.046,0,2.108,0.063,3.157,0.188l0.883,0.105l0.564-0.687c4.738-5.765,12.172-9.207,19.886-9.207
			c6.722,0,13.022,2.454,17.739,6.908l0.704,0.665l0.919-0.302c3.85-1.265,7.889-1.906,12.006-1.906
			c17.088,0,31.683,10.877,35.491,26.451l0.157,0.643l0.561,0.351c7.029,4.386,11.227,11.736,11.227,19.661
			c0,5.584-2.127,11.013-5.988,15.285l-0.586,0.649l0.219,0.848c0.473,1.825,0.712,3.711,0.712,5.604
			c0,8.498-4.901,16.378-12.791,20.564l-0.428,0.227l-0.233,0.424c-1.813,3.286-4.748,5.992-8.265,7.621l-1.337,0.619l6.884,19.729
			l-4.676,3.352l-9.451-27.091l3.128-0.609c4.229-0.827,7.721-3.527,9.345-7.221l0.425-0.967l0.958-0.438
			c6.733-3.071,10.92-9.282,10.923-16.209c0-2.134-0.399-4.223-1.188-6.209l-0.291-0.723l-4.371-4.371
			c0.884-0.61,3.066-1.454,5.321-2.049l2.105,2.104l1.104-1.631c1.931-2.857,2.952-6.145,2.952-9.509
			c0-6.515-3.831-12.553-9.997-15.76l-1.2-0.624l-0.241-1.333c-2.505-13.831-15.321-23.869-30.474-23.869
			c-4.289,0-8.467,0.817-12.418,2.428l-0.277,0.113l-5.871,5.479c-0.753-1.146-1.869-3.01-2.912-4.835l3.779-3.525l-1.591-1.159
			c-3.471-2.528-7.646-3.865-12.073-3.865c-6.9,0-13.367,3.417-16.876,8.917l-1.044,1.635l-1.893-0.428
			c-1.535-0.348-3.11-0.525-4.68-0.525c-9.666,0-17.792,6.386-19.324,15.184l-0.317,1.824l-1.807,0.399
			c-8.833,1.951-15.001,9.175-15.001,17.568c0,2.842,0.699,5.567,2.079,8.098l0.718,1.319l-0.721,1.321
			c-1.385,2.543-2.087,5.268-2.087,8.1c0,6.807,4.076,12.97,10.637,16.083l0.363,0.178l0.277,0.306
			c3.753,3.754,8.957,5.874,14.332,5.874c3.892,0,6.779-1.048,9.917-2.62l4.902-2.387l2.673,2.928
			c3.539,4.923,9.472,7.858,15.893,7.858c4.446,0,8.508-1.347,12.074-4.004l1.813-1.348l0.021,0.021l1.132-0.824l6.559-5.105
			c0.44-0.348,0.86-0.52,1.258-0.52c0.899,0,1.906,0.942,2.341,2.191c0.282,0.812,0.339,1.874-0.35,2.419l-6.911,5.359l2.104,1.207
			c3.423,1.962,7.314,3.153,11.254,3.444l0.994,0.073l0.72,0.692c6.161,5.939,11.452,12.963,14.807,17.81l6.224,8.993l-4.868,3.489
			L114.842,144.036z"/>
	</g>
	<g>
		<path fill="#FFFFFF" d="M69.161,17.216c6.305,0,12.209,2.296,16.624,6.465l1.407,1.329l1.839-0.604
			c3.685-1.211,7.553-1.825,11.498-1.825c16.337,0,30.282,10.368,33.912,25.212l0.314,1.285l1.122,0.7
			c6.551,4.088,10.462,10.922,10.462,18.283c0,5.181-1.978,10.222-5.569,14.196l-1.174,1.299l0.439,1.695
			c0.438,1.692,0.66,3.44,0.66,5.196c0,7.895-4.571,15.225-11.928,19.129l-0.855,0.454l-0.467,0.847
			c-1.647,2.985-4.319,5.447-7.524,6.931l-2.673,1.238l0.97,2.782l5.998,17.191l-1.922,1.378l-2.873-8.234l-5.245-15.035
			l1.289-0.251c4.749-0.929,8.681-3.98,10.52-8.163l0.175-0.398l0.393-0.179c7.321-3.34,11.871-10.117,11.875-17.689
			c0-2.337-0.438-4.627-1.31-6.826l-0.164-0.407l-0.248-0.613l-0.467-0.468l-2.519-2.52c0.623-0.237,1.339-0.477,2.078-0.696
			l0.04,0.04l2.785,2.785l2.206-3.262c2.115-3.127,3.232-6.73,3.232-10.42c0-7.123-4.166-13.714-10.873-17.201l-0.492-0.256
			l-0.099-0.55c-2.645-14.604-16.134-25.203-32.073-25.203c-4.5,0-8.884,0.857-13.032,2.548l-0.553,0.226l-0.437,0.408l-4.215,3.932
			c-0.374-0.616-0.78-1.299-1.188-1.998l1.394-1.301l2.878-2.685l-3.181-2.318c-3.75-2.732-8.255-4.176-13.03-4.176
			c-7.45,0-14.441,3.704-18.245,9.666l-0.43,0.673l-0.777-0.176c-1.654-0.375-3.35-0.565-5.04-0.565
			c-10.458,0-19.258,6.952-20.925,16.531l-0.131,0.75l-0.743,0.164c-9.583,2.116-16.275,9.993-16.275,19.155
			c0,3.117,0.766,6.103,2.276,8.874l0.295,0.541l-0.298,0.546c-1.516,2.783-2.284,5.77-2.284,8.876
			c0,7.441,4.432,14.166,11.528,17.533l0.102,0.05l0.069,0.076l0.053,0.058l0.056,0.056c4.001,3.999,9.623,6.292,15.426,6.292
			c3.602,0,6.686-0.809,10.612-2.776l3.827-1.863l1.791,1.961c3.85,5.299,10.247,8.457,17.155,8.457
			c4.804,0,9.193-1.456,13.042-4.324l0.708-0.527l0.078,0.074l2.21-1.72l6.577-5.12c0.117-0.093,0.197-0.135,0.239-0.153
			c0.121,0.058,0.411,0.283,0.652,0.735c0.25,0.469,0.28,0.863,0.261,1.022l-4.909,3.808l-3.834,2.974l4.21,2.413
			c3.632,2.082,7.762,3.347,11.943,3.656l0.409,0.03l0.295,0.284c6.064,5.846,11.286,12.779,14.598,17.564l5.315,7.679l-2.123,1.522
			l-0.629-1.072l0,0c-0.548-0.929-7.921-13.227-17.618-22.958l-0.792-0.795l-1.114-0.137c-5.156-0.632-10.055-2.559-14.168-5.572
			l-1.689-1.238l-1.825,1.027c-3.656,2.056-7.703,3.099-12.029,3.099c-6.867,0-13.384-2.823-17.879-7.746l-1.675-1.834l-2.21,1.135
			c-3.447,1.77-7.224,2.668-11.226,2.668c-6.203,0-12.274-2.366-16.656-6.492l-0.34-0.32l-0.416-0.211
			C9.031,99.99,4.326,92.59,4.326,84.526c0-2.754,0.579-5.571,1.675-8.146l0.542-1.273l-0.543-1.273
			c-1.095-2.57-1.674-5.387-1.674-8.146c0-9.326,6.287-17.65,15.645-20.713l1.618-0.529l0.486-1.631
			c2.806-9.418,12.098-15.996,22.595-15.996c0.982,0,1.98,0.059,2.965,0.177l1.766,0.21l1.129-1.374
			C54.963,20.436,61.928,17.216,69.161,17.216 M69.161,13.966c-8.274,0-16.122,3.692-21.142,9.8
			c-1.113-0.132-2.233-0.199-3.349-0.199c-12.127,0-22.501,7.55-25.71,18.318C8.301,45.374,1.076,54.815,1.076,65.687
			c0,3.223,0.663,6.438,1.934,9.42c-1.269,2.984-1.934,6.199-1.934,9.419c0,9.35,5.366,17.795,14.056,22.209
			c4.988,4.697,11.825,7.376,18.884,7.376c4.508,0,8.832-1.035,12.71-3.027c5.033,5.512,12.465,8.805,20.279,8.805
			c4.872,0,9.518-1.207,13.623-3.516c4.545,3.33,9.972,5.475,15.693,6.177c9.644,9.677,17.045,22.179,17.118,22.309l2.432,4.142
			l12.213-8.755l-6.799-19.487c3.829-1.773,6.998-4.674,9.004-8.31c8.342-4.427,13.655-12.902,13.655-22
			c0-2.04-0.257-4.052-0.764-6.011c4.102-4.539,6.408-10.366,6.408-16.375c0-8.505-4.544-16.393-11.991-21.04
			c-3.953-16.166-19.206-27.69-37.069-27.69c-4.298,0-8.494,0.667-12.513,1.987C83.032,16.612,76.323,13.966,69.161,13.966
			L69.161,13.966z M51.995,33.499l1.659-2.598c3.214-5.036,9.156-8.165,15.506-8.165c4.115,0,7.984,1.271,11.116,3.553l-3.261,3.043
			l-0.056-0.061c0,0,4.233,7.574,4.838,7.574c0.015,0,0.028-0.005,0.039-0.014l6.883-6.422c3.74-1.525,7.709-2.308,11.805-2.308
			c14.367,0,26.51,9.476,28.875,22.533l0.383,2.118l1.907,0.992c5.625,2.925,9.122,8.411,9.122,14.318
			c0,3.094-0.943,6.038-2.674,8.599l-1.362-1.362c-0.128,0.03-9.71,2.259-7.354,4.612l4.52,4.521l0.164,0.407
			c0.711,1.794,1.073,3.684,1.073,5.609c-0.003,6.282-3.824,11.927-9.974,14.733l-1.521,0.695l-0.673,1.533
			c-1.411,3.21-4.467,5.556-8.169,6.28l-4.969,0.968l6.481,18.578c-3.542-5.118-8.846-12.108-15.015-18.055l-1.142-1.099
			l-1.579-0.116c-3.772-0.279-7.389-1.413-10.565-3.234l5.005-3.882c2.698-2.134,0.304-7.51-2.999-7.51
			c-0.723,0-1.49,0.258-2.256,0.863l-6.558,5.105l-0.033-0.032l-2.906,2.161c-3.231,2.408-6.941,3.682-11.103,3.682
			c-5.944,0-11.438-2.767-14.627-7.258l-3.557-3.896l-6.011,2.926c-3.19,1.598-5.818,2.448-9.189,2.448
			c-5.011,0-9.735-1.949-13.128-5.341l-0.486-0.536l-0.66-0.324c-5.996-2.845-9.709-8.446-9.709-14.615
			c0-2.566,0.64-5.028,1.888-7.322l1.145-2.099l-1.142-2.097c-1.247-2.288-1.88-4.751-1.88-7.32c0-7.625,5.646-14.197,13.726-15.981
			l2.871-0.635l0.504-2.896c1.395-8.019,8.848-13.838,17.723-13.838c1.446,0,2.901,0.163,4.322,0.485L51.995,33.499L51.995,33.499z
			 M136.775,75.299h-0.002l0,0C136.775,75.299,136.775,75.299,136.775,75.299L136.775,75.299z"/>
	</g>
</g>
<path fill="none" stroke="#3D3D3D" stroke-width="2" stroke-miterlimit="10" d="M108.598,55.334l-3.063-0.602
	c-0.347-1.429-0.91-2.788-1.682-4.051l1.742-2.595c0.188-0.278,0.151-0.65-0.086-0.886l-2.964-2.964
	c-0.135-0.135-0.315-0.205-0.496-0.205c-0.135,0-0.271,0.039-0.39,0.119l-2.595,1.742c-1.262-0.771-2.621-1.334-4.051-1.681
	l-0.602-3.063c-0.065-0.329-0.353-0.566-0.688-0.566h-4.193c-0.335,0-0.624,0.237-0.688,0.566l-0.603,3.063
	c-1.428,0.347-2.787,0.91-4.049,1.681l-2.596-1.742c-0.118-0.079-0.255-0.119-0.39-0.119c-0.181,0-0.361,0.07-0.497,0.205
	l-2.963,2.964c-0.237,0.237-0.273,0.609-0.087,0.886l1.742,2.595c-0.77,1.263-1.334,2.622-1.68,4.051l-3.063,0.602
	c-0.329,0.064-0.566,0.353-0.566,0.688v4.192c0,0.335,0.237,0.623,0.566,0.688l3.063,0.602c0.346,1.428,0.91,2.788,1.68,4.051
	l-1.742,2.595c-0.186,0.279-0.151,0.65,0.087,0.887L80.709,72c0.135,0.135,0.316,0.205,0.497,0.205c0.135,0,0.272-0.039,0.39-0.119
	l2.596-1.742c1.262,0.771,2.621,1.334,4.049,1.682l0.603,3.061c0.064,0.33,0.353,0.566,0.688,0.566h4.192
	c0.334,0,0.623-0.236,0.688-0.566l0.602-3.061c1.428-0.347,2.788-0.91,4.051-1.682l2.595,1.742c0.119,0.079,0.256,0.119,0.39,0.119
	c0.181,0,0.361-0.07,0.496-0.205l2.964-2.965c0.237-0.237,0.274-0.608,0.086-0.887l-1.742-2.595
	c0.771-1.263,1.334-2.622,1.682-4.051l3.063-0.602c0.329-0.065,0.565-0.353,0.565-0.688v-4.192
	C109.164,55.686,108.927,55.398,108.598,55.334z M91.628,67.936c-5.415,0-9.818-4.405-9.818-9.818s4.404-9.818,9.818-9.818
	c5.413,0,9.818,4.405,9.818,9.818S97.041,67.936,91.628,67.936z"/>
<path fill="none" stroke="#3D3D3D" stroke-width="2" stroke-miterlimit="10" d="M81.562,85.628l-2.041-1.357
	c0.13-1.023,0.13-2.054,0.001-3.075l2.04-1.357c0.278-0.186,0.388-0.543,0.259-0.852l-1.605-3.872
	c-0.109-0.266-0.369-0.434-0.648-0.434c-0.045,0-0.093,0.006-0.138,0.015l-2.402,0.484c-0.632-0.815-1.361-1.543-2.175-2.175
	l0.482-2.403c0.067-0.327-0.109-0.657-0.42-0.785l-3.871-1.605c-0.088-0.036-0.178-0.053-0.269-0.053
	c-0.229,0-0.451,0.112-0.584,0.313l-1.358,2.04c-0.51-0.064-1.026-0.097-1.539-0.097c-0.511,0-1.026,0.033-1.535,0.097l-1.357-2.04
	c-0.133-0.2-0.354-0.313-0.583-0.313c-0.091,0-0.181,0.017-0.269,0.053l-3.872,1.605c-0.31,0.128-0.485,0.458-0.42,0.785
	l0.484,2.403c-0.814,0.63-1.542,1.36-2.175,2.175l-2.402-0.484c-0.047-0.009-0.093-0.015-0.139-0.015
	c-0.278,0-0.536,0.168-0.648,0.434l-1.603,3.872c-0.128,0.309-0.02,0.666,0.259,0.852l2.04,1.357c-0.129,1.021-0.13,2.053,0,3.075
	l-2.04,1.357c-0.279,0.186-0.387,0.543-0.259,0.852l1.603,3.872c0.111,0.266,0.369,0.434,0.648,0.434
	c0.047,0,0.093-0.006,0.139-0.015l2.402-0.484c0.632,0.814,1.36,1.543,2.175,2.175l-0.484,2.402
	c-0.066,0.328,0.109,0.658,0.42,0.787l3.872,1.605c0.087,0.036,0.178,0.052,0.269,0.052c0.229,0,0.45-0.112,0.583-0.313l1.357-2.04
	c0.511,0.064,1.027,0.097,1.539,0.097c0.512,0,1.027-0.033,1.536-0.097l1.356,2.04c0.133,0.2,0.355,0.313,0.584,0.313
	c0.091,0,0.181-0.017,0.269-0.052l3.872-1.605c0.309-0.128,0.485-0.458,0.418-0.787l-0.482-2.402c0.814-0.63,1.542-1.36,2.174-2.175
	l2.403,0.484c0.045,0.009,0.093,0.015,0.138,0.015c0.279,0,0.538-0.168,0.648-0.434l1.605-3.872
	C81.949,86.172,81.839,85.815,81.562,85.628z M67.296,71.116c0.1,0,0.199,0.003,0.299,0.006c-0.101-0.003-0.203-0.006-0.304-0.006
	H67.296z M67.301,94.352c-0.103,0-0.205-0.003-0.309-0.006c0.106,0.003,0.211,0.006,0.316,0.006H67.301z M74.619,85.767
	c-1.231,2.972-4.106,4.893-7.323,4.893c-1.042,0-2.06-0.202-3.03-0.605c-4.036-1.672-5.96-6.315-4.288-10.353
	c1.232-2.972,4.106-4.893,7.324-4.893c1.04,0,2.06,0.203,3.029,0.605c1.956,0.809,3.478,2.333,4.289,4.288
	C75.43,81.658,75.43,83.81,74.619,85.767z"/>
</svg>
