<?xml version="1.0" encoding="utf-8"?>
<!-- Generator: Adobe Illustrator 17.0.2, SVG Export Plug-In . SVG Version: 6.00 Build 0)  -->
<!DOCTYPE svg PUBLIC "-//W3C//DTD SVG 1.1//EN" "http://www.w3.org/Graphics/SVG/1.1/DTD/svg11.dtd">
<svg version="1.1" id="Calque_1" xmlns="http://www.w3.org/2000/svg" xmlns:xlink="http://www.w3.org/1999/xlink" x="0px" y="0px"
	 width="180px" height="180px" viewBox="0 0 180 180" enable-background="new 0 0 180 180" xml:space="preserve">
<path fill-rule="evenodd" clip-rule="evenodd" fill="none" stroke="#3C3C3C" stroke-width="2" stroke-miterlimit="10" d="
	M10.757,49.069h138.32v64.698H10.757V49.069z"/>
<path fill-rule="evenodd" clip-rule="evenodd" fill="none" stroke="#3C3C3C" stroke-width="2" stroke-miterlimit="10" d="
	M17.45,42.376h124.934c3.696,0,6.693,2.997,6.693,6.693v73.622c0,3.697-2.997,6.693-6.693,6.693H17.45
	c-3.696,0-6.693-2.997-6.693-6.693V49.068C10.757,45.372,13.754,42.376,17.45,42.376z"/>
<polygon fill-rule="evenodd" clip-rule="evenodd" fill="none" stroke="#3C3C3C" stroke-width="2" stroke-miterlimit="10" points="
	94.504,140.538 88.841,129.384 70.993,129.384 65.33,140.538 59.838,140.538 59.838,145 99.996,145 99.996,140.538 "/>
<path fill-rule="evenodd" clip-rule="evenodd" fill="#F7F7F7" stroke="#3C3C3C" stroke-width="2" stroke-miterlimit="10" d="
	M8.526,78.071h20.079c3.696,0,6.693,2.996,6.693,6.693v53.543c0,3.696-2.997,6.693-6.693,6.693H8.526
	c-3.696,0-6.693-2.997-6.693-6.693V84.764C1.833,81.067,4.83,78.071,8.526,78.071z"/>
<path fill-rule="evenodd" clip-rule="evenodd" fill="#F7F7F7" stroke="#3C3C3C" stroke-width="2" stroke-miterlimit="10" d="
	M131.229,62.455h40.157c3.696,0,6.693,2.997,6.693,6.692v69.16c0,3.697-2.997,6.693-6.693,6.693h-40.157
	c-3.696,0-6.693-2.996-6.693-6.693v-69.16C124.537,65.451,127.533,62.455,131.229,62.455z"/>
<g>
	<path fill="#3C3C3C" d="M18.566,136.961c1.358,0,2.462,1.105,2.462,2.462c0,1.357-1.104,2.462-2.462,2.462
		s-2.462-1.104-2.462-2.462C16.104,138.065,17.208,136.961,18.566,136.961 M18.566,134.961c-2.464,0-4.462,1.998-4.462,4.462
		c0,2.464,1.998,4.462,4.462,4.462s4.462-1.998,4.462-4.462C23.028,136.959,21.03,134.961,18.566,134.961L18.566,134.961z"/>
</g>
<path fill-rule="evenodd" clip-rule="evenodd" fill="#F7F7F7" stroke="#3C3C3C" stroke-width="2" stroke-miterlimit="10" d="
	M1.833,89.226h33.465v44.619H1.833V89.226z"/>
<g>
	<path fill="#3C3C3C" d="M151.308,139.192c0.742,0,1.346,0.604,1.346,1.346s-0.604,1.346-1.346,1.346s-1.346-0.604-1.346-1.346
		S150.566,139.192,151.308,139.192 M151.308,137.192c-1.848,0-3.346,1.499-3.346,3.346c0,1.848,1.498,3.346,3.346,3.346
		c1.848,0,3.346-1.498,3.346-3.346C154.655,138.69,153.156,137.192,151.308,137.192L151.308,137.192z"/>
</g>
<path fill-rule="evenodd" clip-rule="evenodd" fill="#F7F7F7" stroke="#3C3C3C" stroke-width="2" stroke-miterlimit="10" d="
	M124.537,69.147h53.543v66.929h-53.543V69.147z"/>
</svg>
