<?xml version="1.0" encoding="utf-8"?>
<!-- Generator: Adobe Illustrator 17.0.2, SVG Export Plug-In . SVG Version: 6.00 Build 0)  -->
<!DOCTYPE svg PUBLIC "-//W3C//DTD SVG 1.1//EN" "http://www.w3.org/Graphics/SVG/1.1/DTD/svg11.dtd">
<svg version="1.1" id="bruno" xmlns="http://www.w3.org/2000/svg" xmlns:xlink="http://www.w3.org/1999/xlink" x="0px" y="0px"
	 width="839.333px" height="193.333px" viewBox="0 0 839.333 193.333" enable-background="new 0 0 839.333 193.333"
	 xml:space="preserve">
<g id="clothes_-_copie_6">
</g>
<g id="neck_-_copie_6">
</g>
<g id="ears_-_copie_6">
</g>
<g id="face_-_copie_6">
</g>
<g id="eyes_-_copie_6">
</g>
<g id="eyebrows_-_copie_6">
</g>
<g id="cheeks_-_copie_6">
</g>
<g id="mouth_-_copie_6">
</g>
<g id="nose_-_copie_6">
</g>
<g id="hair_-_copie_5">
</g>
<g id="glasses_1_">
	<g>
		<path fill="#65AEF1" stroke="#3C3C3C" stroke-miterlimit="10" d="M70.857,156.122"/>
		<path fill="#FFFFFF" stroke="#3C3C3C" stroke-width="2" stroke-miterlimit="10" d="M86.232,169.497
			c0-11.244-22.085-19.158-33.688-22.54l-6.875,9.557l-8.188-9.552c-11.823,3.097-32.375,10.247-32.375,22.535c0,3.977,0,4,0,4
			c0,8.491,6.884,15.375,15.375,15.375h49.375c8.491,0,16.375-6.884,16.375-15.375C86.232,173.497,86.232,173.973,86.232,169.497z"
			/>
		<path fill="#F9E4E6" stroke="#3C3C3C" stroke-width="2" stroke-miterlimit="10" d="M53.607,147.934
			c0,4.453-8.062,24.062-8.062,24.062s-8.062-19.61-8.062-24.062v-11.5c0-4.453,3.61-8.062,8.062-8.062l0,0
			c4.453,0,8.062,3.61,8.062,8.062V147.934z"/>
		<path fill="#F9E4E6" stroke="#3C3C3C" stroke-width="2" stroke-miterlimit="10" d="M13.147,106.567L13.147,106.567
			c-4.507,0-9.221-3.653-9.221-8.16v-9.376c0-4.507,4.715-8.16,9.221-8.16"/>
		<path fill="#F9E4E6" stroke="#3C3C3C" stroke-width="2" stroke-miterlimit="10" d="M77.942,80.871L77.942,80.871
			c4.507,0,9.221,3.653,9.221,8.16v9.376c0,4.507-4.715,8.16-9.221,8.16"/>
		<g id="face_2_">
			<path fill="#F9E4E6" d="M45.744,140.954c-19.828,0-34.928-22.489-34.928-33.743c0-14.915-1.547-47.136-1.792-52.137
				l31.315-15.528l42.298,13.641c-0.269,5.8-1.965,42.836-1.965,54.025C80.671,118.465,65.571,140.954,45.744,140.954z"/>
			<g>
				<path fill="#3C3C3C" d="M40.419,40.622l41.184,13.281c-0.356,7.731-1.931,42.51-1.931,53.308c0,5.451-3.962,13.787-9.636,20.27
					c-4.076,4.658-12.653,12.473-24.292,12.473s-20.216-7.815-24.292-12.473c-5.673-6.484-9.636-14.819-9.636-20.27
					c0-14.394-1.438-44.853-1.761-51.532L40.419,40.622 M40.259,38.469l-32.266,16c0,0,1.823,36.466,1.823,52.742
					c0,11.241,15.039,34.744,35.928,34.744s35.928-23.502,35.928-34.744c0-12.207,2-54.742,2-54.742L40.259,38.469L40.259,38.469z"
					/>
			</g>
		</g>
		<circle fill="#3C3C3C" cx="25.738" cy="87.955" r="3.582"/>
		<circle fill="#3C3C3C" cx="64.688" cy="87.955" r="3.582"/>
		<path fill="none" stroke="#3C3C3C" stroke-width="3" stroke-miterlimit="10" d="M18.246,73.564
			c3.291-1.145,2.773-1.061,6.501-1.061c3.592,0,3.314-0.002,7.501,0.061"/>
		<path fill="none" stroke="#3C3C3C" stroke-width="3" stroke-miterlimit="10" d="M56.319,73.564c0,0,4.052-0.061,7.501-0.061
			s6.501,1.061,6.501,1.061"/>
		<path fill="#F4CED3" d="M31.926,103.506c0,2.761-2.239,5-5,5h-4.533c-2.761,0-5-2.239-5-5l0,0c0-2.761,2.239-5,5-5h4.533
			C29.687,98.506,31.926,100.744,31.926,103.506L31.926,103.506z"/>
		<path fill="#F4CED3" d="M73.372,103.506c0,2.761-2.239,5-5,5h-4.533c-2.761,0-5-2.239-5-5l0,0c0-2.761,2.239-5,5-5h4.533
			C71.133,98.506,73.372,100.744,73.372,103.506L73.372,103.506z"/>
		<path fill="none" stroke="#3C3C3C" stroke-width="2" stroke-miterlimit="10" d="M36.475,122.453c0,0,0.209,2.169,4.31,1.789
			c1.213-0.112,2.766-1.185,4.755-1.185c1.753,0,3.151,1.056,4.268,1.147c4.432,0.358,4.409-1.751,4.409-1.751"/>
		<path fill="none" stroke="#3C3C3C" stroke-width="2" stroke-miterlimit="10" d="M40.161,108.752c0,0,1.053-1.246,5.379-1.246
			s5.379,1.246,5.379,1.246"/>
		<path fill="#603102" stroke="#3C3C3C" stroke-width="2" stroke-miterlimit="10" d="M11.444,85.831c0,0-2.958-17.4,7.699-26.839
			S41.37,45.899,41.37,45.899s1.304,6.003,11.352,8.134c10.048,2.131,14.224-0.218,14.224-0.218s7.308,3.349,10.961,11.875
			s3.74,19.618,3.74,19.618l4.785,0.654c0,0,1.827-28.188-3.349-36.409s-8.525-7.308-8.525-7.308s0.304-10.657-4.567-14.006
			c-4.872-3.349-7.916-3.349-7.916-3.349s0.913,2.131-1.827,4.263s-31.057-0.913-38.365,4.872s-7.916,12.788-7.916,12.788
			s-4.263,0.913-6.09,8.221s0,27.929,0,27.929L11.444,85.831z"/>
		<path fill="none" stroke="#3C3C3C" stroke-width="3" stroke-miterlimit="10" d="M11.263,90.784
			c0,6.532,6.177,11.828,12.709,11.828h5.436c11.975,0,13.585-23.655,7.053-23.655H22.209
			C15.677,78.956,11.263,84.251,11.263,90.784L11.263,90.784z"/>
		<path fill="none" stroke="#3C3C3C" stroke-width="3" stroke-miterlimit="10" d="M81.778,91.216c0,6.771-6.403,12.26-13.174,12.26
			h-5.635c-12.412,0-15.909-24.52-9.138-24.52h16.6C77.203,78.956,81.778,84.445,81.778,91.216L81.778,91.216z"/>
		<path fill="none" stroke="#3C3C3C" stroke-width="3" stroke-miterlimit="10" d="M39.712,84.255c0,0,2.305-1,5.566-1
			s5.566,1,5.566,1"/>
	</g>
	<g>
		<polygon fill="#3A1C02" points="381.354,160.997 321.271,158.725 314.979,110.558 394.271,102.746 		"/>
		<g>
			<path fill="#757575" d="M329.084,189.871c-9.029,0-16.375-7.346-16.375-16.375v-4c0-17.884,39.639-25.063,41.326-25.36
				l0.196-0.034l0.195,0.044c1.691,0.38,41.407,9.482,41.407,25.351v4c0,8.723-8.119,16.375-17.375,16.375H329.084z"/>
			<path fill="#3C3C3C" d="M354.208,145.122c0,0,40.625,9.125,40.625,24.375c0,3.728,0,4,0,4c0,8.491-7.884,15.375-16.375,15.375
				h-49.375c-8.491,0-15.375-6.884-15.375-15.375c0,0,0-0.355,0-4C313.709,152.247,354.208,145.122,354.208,145.122
				 M354.256,143.082l-0.394,0.069c-1.721,0.303-42.153,7.631-42.153,26.345v4c0,9.581,7.794,17.375,17.375,17.375h49.375
				c9.96,0,18.375-7.957,18.375-17.375v-4c0-7.213-7.251-13.859-21.55-19.755c-10.197-4.204-20.215-6.476-20.637-6.571
				L354.256,143.082L354.256,143.082z"/>
		</g>
		<g>
			<defs>
				<path id="SVGID_1_" d="M394.834,169.497c0-15.25-40.625-24.375-40.625-24.375s-40.5,7.125-40.5,24.375c0,3.645,0,4,0,4
					c0,8.491,6.884,15.375,15.375,15.375h49.375c8.491,0,16.375-6.884,16.375-15.375
					C394.834,173.497,394.834,173.225,394.834,169.497z"/>
			</defs>
			<clipPath id="SVGID_2_">
				<use xlink:href="#SVGID_1_"  overflow="visible"/>
			</clipPath>
		</g>
		<path fill="#65AEF1" stroke="#3C3C3C" stroke-miterlimit="10" d="M378.75,157.413"/>
		<path fill="#F9E4E6" stroke="#3C3C3C" stroke-width="2" stroke-miterlimit="10" d="M362.209,151.934
			c0,4.453-3.61,8.062-8.062,8.062l0,0c-4.453,0-8.062-3.61-8.062-8.062v-11.5c0-4.453,3.61-8.062,8.062-8.062l0,0
			c4.453,0,8.062,3.61,8.062,8.062V151.934z"/>
		<g id="face_17_">
			<path fill="#F9E4E6" d="M354.833,140.246c-15.07,0-35.833-20.57-35.833-35.5c0-13.856,0.138-50.634,0.163-57.167H388v57.167
				C388,116.182,369.419,140.246,354.833,140.246z"/>
			<g>
				<path fill="#3C3C3C" d="M387,48.58v56.167c0,5.143-4.411,13.886-10.727,21.262c-7.099,8.289-15.113,13.238-21.439,13.238
					c-6.72,0-15.488-4.567-22.882-11.918C324.58,119.998,320,111.345,320,104.746c0-13.264,0.126-47.538,0.159-56.167H387
					 M389,46.58h-70.833c0,0-0.167,42.833-0.167,58.167c0,15.333,21.167,36.5,36.833,36.5c15.667,0,34.167-25,34.167-36.5
					S389,46.58,389,46.58L389,46.58z"/>
			</g>
		</g>
		<circle fill="#3C3C3C" cx="335" cy="90.663" r="3.375"/>
		<circle fill="#3C3C3C" cx="371" cy="90.663" r="3.375"/>
		<path fill="none" stroke="#3C3C3C" stroke-width="2" stroke-miterlimit="10" d="M329,82.163c0,0,2.875-1,6.125-1s6.125,1,6.125,1"
			/>
		<path fill="none" stroke="#3C3C3C" stroke-width="2" stroke-miterlimit="10" d="M365,82.163c0,0,2.875-1,6.125-1s6.125,1,6.125,1"
			/>
		<path fill="none" stroke="#3C3C3C" stroke-width="2" stroke-miterlimit="10" d="M347,123.163c0,0,2.417,1,6.125,1s8.125-2,8.125-2
			"/>
		<polyline fill="none" stroke="#3C3C3C" stroke-width="2" stroke-miterlimit="10" points="358.375,110.371 354.25,111.371 
			350.125,110.371 		"/>
		<path fill="#F4CED3" d="M341.833,104.698c0,2.09-1.727,3.785-3.857,3.785h-5.12c-2.13,0-3.857-1.695-3.857-3.785l0,0
			c0-2.09,1.727-3.785,3.857-3.785h5.12C340.107,100.913,341.833,102.608,341.833,104.698L341.833,104.698z"/>
		<path fill="#F4CED3" d="M377.833,104.698c0,2.09-1.727,3.785-3.857,3.785h-5.12c-2.13,0-3.857-1.695-3.857-3.785l0,0
			c0-2.09,1.727-3.785,3.857-3.785h5.12C376.107,100.913,377.833,102.608,377.833,104.698L377.833,104.698z"/>
		<g id="cheveux_avant_2_">
			<path fill="#3A1C02" stroke="#3C3C3C" stroke-width="2" stroke-miterlimit="10" d="M354.641,53.325
				c31.516,13.031,31.359,28.708,23.692,94.859c0,0,20.104-35.388,15.938-67.021c-5.288-40.146-7.413-55.965-40.177-47.917
				c-34.389-3.066-39.642,23.818-40.386,35.812s-10.339,52.258,17.916,79.126C308.81,83.163,329.529,71.361,354.641,53.325z"/>
		</g>
		<circle fill="#FFFFFF" stroke="#3C3C3C" stroke-width="2" stroke-miterlimit="10" cx="353.612" cy="22.424" r="18.532"/>
		<path fill="#FFF0C7" stroke="#3C3C3C" stroke-width="2" stroke-miterlimit="10" d="M353.612,22.424
			c45.585,0,43.426,48.312,43.426,48.312s-3.633,91.841-6.288,90.29c-0.718-0.42,0.539-88.756-0.326-89.24
			c-8.584-4.805-23.923-8.283-36.253-8.283c-10.971,0-25.094,1.92-34.56,6.61c-1.711,0.848-3.271,90.159-4.632,90.884
			c-3.576,1.906-5.783-90.261-5.783-90.261S308.027,22.424,353.612,22.424z"/>
		<circle fill="#FFFFFF" stroke="#3C3C3C" stroke-width="2" stroke-miterlimit="10" cx="314.979" cy="159.997" r="9.772"/>
		<circle fill="#FFFFFF" stroke="#3C3C3C" stroke-width="2" stroke-miterlimit="10" cx="390.979" cy="159.997" r="9.772"/>
		<g>
			<defs>
				<path id="SVGID_3_" d="M353.612,22.424c45.585,0,43.426,48.312,43.426,48.312s-3.633,91.841-6.288,90.29
					c-0.718-0.42,0.539-88.756-0.326-89.24c-8.584-4.805-23.923-8.283-36.253-8.283c-10.971,0-25.094,1.92-34.56,6.61
					c-1.711,0.848-3.271,90.159-4.632,90.884c-3.576,1.906-5.783-90.261-5.783-90.261S308.027,22.424,353.612,22.424z"/>
			</defs>
			<clipPath id="SVGID_4_">
				<use xlink:href="#SVGID_3_"  overflow="visible"/>
			</clipPath>
			<path clip-path="url(#SVGID_4_)" fill="#0A5E56" d="M412.833,70.225c0,0-25.081-14-59.221-14s-58.894,14-58.894,14v-6.084
				c0,0,23.339-14,58.894-14s59.221,14,59.221,14V70.225z"/>
			<path clip-path="url(#SVGID_4_)" fill="#0A5E56" d="M412.833,55.225c0,0-25.081-14-59.221-14s-58.894,14-58.894,14v-6.084
				c0,0,23.339-14,58.894-14s59.221,14,59.221,14V55.225z"/>
		</g>
	</g>
	<g>
		<path fill="#65AEF1" stroke="#3C3C3C" stroke-miterlimit="10" d="M525.673,156.122"/>
		<path fill="#34AFCC" stroke="#3C3C3C" stroke-width="2" stroke-miterlimit="10" d="M541.048,169.497
			c0-11.244-22.085-19.158-33.688-22.54l-6.875,9.557l-8.188-9.552c-11.823,3.097-32.375,10.247-32.375,22.535c0,3.977,0,4,0,4
			c0,8.491,6.884,15.375,15.375,15.375h49.375c8.491,0,16.375-6.884,16.375-15.375C541.048,173.497,541.048,173.973,541.048,169.497
			z"/>
		<path fill="#F4D7DB" stroke="#3C3C3C" stroke-width="2" stroke-miterlimit="10" d="M508.423,147.934
			c0,4.453-8.062,16.062-8.062,16.062s-8.062-11.61-8.062-16.062v-11.5c0-4.453,3.61-8.062,8.062-8.062l0,0
			c4.453,0,8.062,3.61,8.062,8.062V147.934z"/>
		<path fill="#F4D7DB" stroke="#3C3C3C" stroke-width="2" stroke-miterlimit="10" d="M467.963,106.567L467.963,106.567
			c-4.507,0-9.221-3.653-9.221-8.16v-9.376c0-4.507,4.715-8.16,9.221-8.16"/>
		<path fill="#F4D7DB" stroke="#3C3C3C" stroke-width="2" stroke-miterlimit="10" d="M532.757,80.871L532.757,80.871
			c4.507,0,9.221,3.653,9.221,8.16v9.376c0,4.507-4.715,8.16-9.221,8.16"/>
		<g id="face_16_">
			<path fill="#F4D7DB" d="M500.56,140.954c-18.761,0-34.929-22.632-34.929-33.743c0-14.951-1.555-47.293-1.794-52.173
				l29.343-16.481l44.273,14.624c-0.269,5.781-1.966,42.838-1.966,54.031C535.487,118.323,519.319,140.954,500.56,140.954z"/>
			<g>
				<path fill="#3C3C3C" d="M493.285,39.645l43.134,14.247c-0.355,7.706-1.932,42.515-1.932,53.319
					c0,10.503-16.052,32.744-33.928,32.744c-17.876,0-33.928-22.24-33.928-32.744c0-14.446-1.448-45.074-1.765-51.604
					L493.285,39.645 M493.074,37.469l-30.266,17c0,0,1.823,36.466,1.823,52.742c0,11.241,16.487,34.744,35.928,34.744
					s35.928-23.502,35.928-34.744c0-12.207,2-54.742,2-54.742L493.074,37.469L493.074,37.469z"/>
			</g>
		</g>
		<path fill="none" stroke="#3C3C3C" stroke-width="2" stroke-miterlimit="10" d="M511.135,90.564c0,0,4.052-3.061,7.501-3.061
			s6.502,3.061,6.502,3.061"/>
		<path fill="none" stroke="#3C3C3C" stroke-width="2" stroke-miterlimit="10" d="M489.138,90.564c0,0-4.052-3.061-7.501-3.061
			s-6.501,3.061-6.501,3.061"/>
		<path fill="none" stroke="#3C3C3C" stroke-width="3" stroke-miterlimit="10" d="M473.061,75.564
			c3.291-1.145,2.773-1.061,6.501-1.061c3.592,0,3.314,1.998,7.501,2.061"/>
		<path fill="none" stroke="#3C3C3C" stroke-width="3" stroke-miterlimit="10" d="M511.135,76.564c0,0,4.052-2.061,7.501-2.061
			s6.502,1.061,6.502,1.061"/>
		<path fill="#F2C9D0" d="M486.741,103.506c0,2.761-2.239,5-5,5h-4.533c-2.761,0-5-2.239-5-5l0,0c0-2.761,2.239-5,5-5h4.533
			C484.503,98.506,486.741,100.744,486.741,103.506L486.741,103.506z"/>
		<path fill="#F2C9D0" d="M528.187,103.506c0,2.761-2.239,5-5,5h-4.533c-2.761,0-5-2.239-5-5l0,0c0-2.761,2.239-5,5-5h4.533
			C525.949,98.506,528.187,100.744,528.187,103.506L528.187,103.506z"/>
		<path fill="none" stroke="#3C3C3C" stroke-width="2" stroke-miterlimit="10" d="M490.291,120.453c0,0,2.67,2.604,10.064,2.604
			c7.395,0,9.676-2.604,9.676-2.604"/>
		<path fill="none" stroke="#3C3C3C" stroke-width="2" stroke-miterlimit="10" d="M495.977,109.752c0,0,0.053-3.246,4.379-3.246
			c4.326,0,4.379,3.246,4.379,3.246"/>
		<path fill="#DDAB47" stroke="#3C3C3C" stroke-width="2" stroke-miterlimit="10" d="M466.375,63.765l-1.25,24.19
			c0,0-5.008-4.556-5.352-2.477c-0.344,2.079-1.031-7.463-1.031-7.463s-1.344-16.332,2.247-24.156
			c3.591-7.824,8.389-11.351,14.068-16.175c9.861-8.376,29.549-9.376,29.549-9.376l-7.232,2.137c0,0-0.242,0.065,8.496-0.861
			c8.738-0.926,13.223-0.305,13.223-0.305l-2.729,3.125c0,0-3.669,0.727,4.201-0.042c7.87-0.769,11.892,2.778,11.892,2.778
			l-2.979,0.26c0,0-2.393-0.347,4.59,3.733c6.983,4.08,12.297,13.53,12.297,13.53l-6.721-4.529c0,0-1.584-1.387,3.812,3.746
			c2.971,2.827,5.845,9.259,5.845,9.259s0,0-4.167-2.778c-4.167-2.778,2.226,10.583,2.226,10.583l-2.4-1.468
			c0,0-2.715,17.986-2.98,19.126c-0.266,1.14-5.936,2.31-5.936,2.31l-1.168-18.521c0,0-12.425-15.837-22.796-16.531
			c-10.371-0.694-9.132,0.335-15.845,0.798S466.375,63.765,466.375,63.765z"/>
	</g>
	<g>
		<path fill="#65AEF1" stroke="#3C3C3C" stroke-miterlimit="10" d="M671.229,156.122"/>
		<path fill="#149E0D" stroke="#3C3C3C" stroke-width="2" stroke-miterlimit="10" d="M686.604,169.497
			c0-11.244-22.085-19.158-33.688-22.54l-6.875,9.557l-8.188-9.552c-11.823,3.097-32.375,10.247-32.375,22.535c0,3.977,0,4,0,4
			c0,8.491,6.884,15.375,15.375,15.375h49.375c8.491,0,16.375-6.884,16.375-15.375C686.604,173.497,686.604,173.973,686.604,169.497
			z"/>
		<path fill="#F7E8EA" stroke="#3C3C3C" stroke-width="2" stroke-miterlimit="10" d="M653.979,145.934
			c0,4.453,10.328,17.062-8.062,17.062s-8.062-12.61-8.062-17.062v-9.5c0-4.453,3.61-8.062,8.062-8.062l0,0
			c4.453,0,8.062,3.61,8.062,8.062V145.934z"/>
		<path fill="#F7E8EA" stroke="#3C3C3C" stroke-width="2" stroke-miterlimit="10" d="M613.519,102.567L613.519,102.567
			c-4.507,0-9.221-3.653-9.221-8.16v-9.376c0-4.507,4.715-8.16,9.221-8.16"/>
		<path fill="#F7E8EA" stroke="#3C3C3C" stroke-width="2" stroke-miterlimit="10" d="M678.314,76.871L678.314,76.871
			c4.507,0,9.221,3.653,9.221,8.16v9.376c0,4.507-4.715,8.16-9.221,8.16"/>
		<g id="face_3_">
			<path fill="#F7E8EA" d="M646.115,140.954c-14.631,0-34.928-23.427-34.928-33.743c0-14.611-1.485-47.459-1.775-53.742h73.583
				c-0.307,6.625-1.952,42.722-1.952,53.742C681.043,117.528,660.746,140.954,646.115,140.954z"/>
			<g>
				<path fill="#3C3C3C" d="M681.949,54.469c-0.401,8.726-1.905,42.188-1.905,52.742c0,9.75-20.076,32.744-33.928,32.744
					c-13.852,0-33.928-22.993-33.928-32.744c0-13.951-1.351-44.48-1.728-52.742H681.949 M684.043,52.469h-75.679
					c0,0,1.823,38.466,1.823,54.742c0,11.241,21.289,34.744,35.928,34.744c14.639,0,35.928-23.502,35.928-34.744
					C682.043,95.004,684.043,52.469,684.043,52.469L684.043,52.469z"/>
			</g>
		</g>
		<circle fill="#3C3C3C" cx="626.109" cy="87.955" r="3.582"/>
		<circle fill="#3C3C3C" cx="665.06" cy="87.955" r="3.582"/>
		<path fill="none" stroke="#3C3C3C" stroke-width="3" stroke-miterlimit="10" d="M618.618,78.564c0,0,3.052-1.061,6.502-1.061
			s7.501,0.061,7.501,0.061"/>
		<path fill="none" stroke="#3C3C3C" stroke-width="3" stroke-miterlimit="10" d="M656.691,77.564c0,0,4.052-0.061,7.502-0.061
			s6.501,1.061,6.501,1.061"/>
		<path fill="#F4D4DA" d="M632.298,105.506c0,2.761-2.239,5-5,5h-4.533c-2.761,0-5-2.239-5-5l0,0c0-2.761,2.239-5,5-5h4.533
			C630.059,100.506,632.298,102.744,632.298,105.506L632.298,105.506z"/>
		<path fill="#F4D4DA" d="M673.744,105.506c0,2.761-2.239,5-5,5h-4.533c-2.761,0-5-2.239-5-5l0,0c0-2.761,2.239-5,5-5h4.533
			C671.505,100.506,673.744,102.744,673.744,105.506L673.744,105.506z"/>
		<path fill="none" stroke="#3C3C3C" stroke-width="2" stroke-miterlimit="10" d="M636.847,122.453c0,0,0.157,1.246,8.87,1.246
			s8.87-2.246,8.87-2.246"/>
		<path fill="none" stroke="#3C3C3C" stroke-width="2" stroke-miterlimit="10" d="M641.533,108.752c0,0,0.053,2.754,4.379,2.754
			s4.379-2.754,4.379-2.754"/>
		<path fill="#CC7A0D" stroke="#3C3C3C" stroke-width="2" stroke-miterlimit="10" d="M649.568,16.139c0,0,1.25-3.25,3-3.25
			s2.5,1.625,2.5,1.625s2.25-4.321,5-4.723c2.75-0.402,3.5,3.174,3.5,3.174s-0.5-2.335,5-3.205c5.5-0.871,4,4.629,4,4.629
			s6.25-1.25,7.5,1.75s-3.5,2.75-3.5,2.75s1.75,1.25,0,3.5s-4.25,3.25-4.25,3.25s3.919-0.5,7.96,0c4.04,0.5,2.79,2.5,2.79,2.5
			s4-1.25,5.25,1.25s1.5,5,1.5,5s3.5-1.75,4.75,1.25s0,3,0,3s7,1.25,4.5,5.25s-6.25,0-6.25,0s-0.75,1.5-1.5,3s-4.75-2.75-4.75-2.75
			s6.25,5.25,6,7.5s-2,3-2,3s4,1,3.75,3.5s-2.25,5-2.25,5s3.25,2,2,5s-3,3.75-3,3.75s2.25,1.5,1.5,5s-2,2.864-2,2.864
			s1.5,4.386-1,4.386c0,0-3.417-0.583-3.583-2.417c-0.167-1.833,0.333-2.5,0.333-2.5s-3.167,0-3.5-2.167
			c-0.333-2.167-0.167-3.5-0.167-3.5s-3-1.167-3.833-2.5c-0.833-1.333-1.5,4-1.5,4s-0.5,1.333-2,1.5
			c-1.5,0.167,0.167,3.333-2.167,3.333s-3.333-3.167-3.333-3.167s-2.5-0.5-2.5-2.333s-1.667-4-1.667-4s-0.667-1.167-1.167-3.667
			s-2.167-1.667-2.167-1.667s0.667,1.333-1,3c-1.667,1.667-2.667,1.5-2.667,1.5s1.667,3.5-0.667,5.333
			c-2.333,1.833-4.5,1.333-4.5,1.333s0,3.833-2.667,3.833c-2.667,0-2.833-4.5-2.833-4.5s-2.333-1.333-2.667-3
			c-0.333-1.667,0-2.667,0-2.667s-2.5-0.667-3-2.5s-2.167-4.833-2.167-4.833s-0.667,4.667-3.167,5.333s-5.5-0.833-5.5-0.833
			s1.333,3-1.167,3.833s-4.167,0-4.167,0s-0.333,2.5-2.333,3.333c-2,0.833-3.833-0.5-3.833-0.5s0.667,1.667-1.667,3.5
			c-2.333,1.833-4,0-4,0s1.667,4.167,0,5c-1.667,0.833-3.5-0.5-3.5-0.5s2,3,0,4s-2.667,0-2.667,0s-0.5,4.333-3.333,2.833
			c-2.833-1.5-1-4.167-1-4.167s-2.167-1-2.667-3.667c-0.5-2.667,1.167-2.5,1.167-2.5s-1.687-1.333-1.26-3.667
			c0.427-2.333,2.26-2.5,2.26-2.5s-2.492-1.333-2.329-3.833c0.163-2.5,2.496-3.833,2.496-3.833l-1.167-3.333
			c0,0-1,0.833-3.333,0.833c-2.333,0-2.333,0-2.333,0s2.167,2.833,0,3.667c-2.167,0.833-3.833,0.667-3.833,0.667
			s-1.5,4.333-4.333,2.333c-2.833-2,0-5.167,0-5.167s0.167-2.667,0.667-4.5s2-2,2-2s-1.667-2.667-0.667-6.333
			c1-3.667,3.333-3,3.333-3s1,0.167,2.667-1.5c1.667-1.667-1.333-3.333,1.333-5.167c2.667-1.833,5.167-1.5,5.167-1.5
			s0.833-1.667-0.333-2.833c-1.167-1.167-3,0-3.5-1.167s-0.5-2-0.5-2s-0.833,2-4,1.333c-3.167-0.667-2.833-3.5-2.833-3.5
			s0-2.5,2.833-3.333c2.833-0.833-1.167-1,3-3.333s5.333-1.667,5.333-1.667s-0.167-2,2.333-3.167s5.833,0.833,5.833,0.833
			s-0.667-3.167,2.5-4c3.167-0.833,6.333,0.167,6.333,0.167s-2-1.5-2-4s0-2.5,0-2.5s-4-1.5-3-3.667s6.667-0.667,6.667-0.667s3,2,4,2
			s1.5-1.5,4.333-1.5c2.833,0,3.833,2.5,3.833,2.5s2.667-1.5,5.833-0.667s2.667,3.333,2.667,3.333s0.833,0.333,3.5,1
			C648.484,13.222,649.568,16.139,649.568,16.139z"/>
		
			<rect x="614.775" y="81.39" fill="none" stroke="#3C3C3C" stroke-width="2" stroke-miterlimit="10" width="26.833" height="17.167"/>
		
			<rect x="650.775" y="81.39" fill="none" stroke="#3C3C3C" stroke-width="2" stroke-miterlimit="10" width="26.833" height="17.167"/>
		<polyline fill="none" stroke="#3C3C3C" stroke-width="2" stroke-miterlimit="10" points="641.609,84.973 646.204,83.973 
			650.775,84.973 		"/>
	</g>
	<g>
		<path fill="#65AEF1" stroke="#3C3C3C" stroke-miterlimit="10" d="M816.339,156.122"/>
		<path fill="#D8192F" stroke="#3C3C3C" stroke-width="2" stroke-miterlimit="10" d="M817.693,150.919
			c0,7.554-10.124,13.679-17.679,13.679h-19.976c-7.554,0-16.679-6.124-16.679-13.679l0,0c0-7.554,9.124-13.679,16.679-13.679
			h19.976C807.569,137.24,817.693,143.364,817.693,150.919L817.693,150.919z"/>
		<path fill="#D8192F" stroke="#3C3C3C" stroke-width="2" stroke-miterlimit="10" d="M831.714,169.497
			c0-11.244-22.085-19.158-33.688-22.54l-6.875,9.557l-8.188-9.552c-11.823,3.097-32.375,10.247-32.375,22.535c0,3.977,0,4,0,4
			c0,8.491,6.884,15.375,15.375,15.375h49.375c8.491,0,16.375-6.884,16.375-15.375C831.714,173.497,831.714,173.973,831.714,169.497
			z"/>
		<path fill="#D8192F" stroke="#3C3C3C" stroke-width="2" stroke-miterlimit="10" d="M810.115,145.16
			c0,4.66,4.983,24.437-18.8,24.437s-19.533-19.777-19.533-24.437"/>
		
			<line fill="#FFFFFF" stroke="#FFFFFF" stroke-width="2" stroke-miterlimit="10" x1="780.527" y1="162.078" x2="780.527" y2="180.872"/>
		
			<line fill="#FFFFFF" stroke="#FFFFFF" stroke-width="2" stroke-miterlimit="10" x1="800.527" y1="162.078" x2="800.527" y2="180.872"/>
		<path fill="#F9E4E6" stroke="#3C3C3C" stroke-width="2" stroke-miterlimit="10" d="M799.089,147.934
			c0,4.453,0.683,12.062-8.062,12.062s-8.062-7.61-8.062-12.062v-11.5c0-4.453,3.61-8.062,8.062-8.062l0,0
			c4.453,0,8.062,3.61,8.062,8.062V147.934z"/>
		<path fill="#F9E4E6" stroke="#3C3C3C" stroke-width="2" stroke-miterlimit="10" d="M758.63,106.567L758.63,106.567
			c-4.507,0-9.221-3.653-9.221-8.16v-9.376c0-4.507,4.715-8.16,9.221-8.16"/>
		<path fill="#F9E4E6" stroke="#3C3C3C" stroke-width="2" stroke-miterlimit="10" d="M823.424,80.871L823.424,80.871
			c4.507,0,9.221,3.653,9.221,8.16v9.376c0,4.507-4.715,8.16-9.221,8.16"/>
		<g id="face_18_">
			<path fill="#F9E4E6" d="M791.226,140.954c-14.631,0-34.928-23.427-34.928-33.743c0-14.611-1.485-47.459-1.775-53.742h73.583
				c-0.307,6.625-1.952,42.722-1.952,53.742C826.153,117.528,805.856,140.954,791.226,140.954z"/>
			<g>
				<path fill="#3C3C3C" d="M827.059,54.469c-0.401,8.726-1.905,42.188-1.905,52.742c0,9.75-20.076,32.744-33.928,32.744
					c-13.852,0-33.928-22.993-33.928-32.744c0-13.951-1.351-44.48-1.728-52.742H827.059 M829.154,52.469h-75.679
					c0,0,1.823,38.466,1.823,54.742c0,11.241,21.289,34.744,35.928,34.744c14.639,0,35.928-23.502,35.928-34.744
					C827.154,95.004,829.154,52.469,829.154,52.469L829.154,52.469z"/>
			</g>
		</g>
		<circle fill="#3C3C3C" cx="771.22" cy="87.955" r="3.582"/>
		<circle fill="#3C3C3C" cx="810.17" cy="87.955" r="3.582"/>
		<path fill="none" stroke="#3C3C3C" stroke-width="3" stroke-miterlimit="10" d="M763.728,76.564c0,0,3.052-1.061,6.502-1.061
			s7.501,0.061,7.501,0.061"/>
		<path fill="none" stroke="#3C3C3C" stroke-width="3" stroke-miterlimit="10" d="M801.801,75.564c0,0,4.052-0.061,7.502-0.061
			s6.501,1.061,6.501,1.061"/>
		<path fill="#F4CED3" d="M777.408,105.506c0,2.761-2.239,5-5,5h-4.533c-2.761,0-5-2.239-5-5l0,0c0-2.761,2.239-5,5-5h4.533
			C775.169,100.506,777.408,102.744,777.408,105.506L777.408,105.506z"/>
		<path fill="#F4CED3" d="M818.854,105.506c0,2.761-2.239,5-5,5h-4.533c-2.761,0-5-2.239-5-5l0,0c0-2.761,2.239-5,5-5h4.533
			C816.616,100.506,818.854,102.744,818.854,105.506L818.854,105.506z"/>
		<path fill="none" stroke="#3C3C3C" stroke-width="2" stroke-miterlimit="10" d="M779.957,121.453c0,0,2.157,2.246,10.87,2.246
			s11.87-5.246,11.87-5.246"/>
		<path fill="none" stroke="#3C3C3C" stroke-width="2" stroke-miterlimit="10" d="M784.643,108.752c0,0,2.053,2.754,6.379,2.754
			s6.379-2.754,6.379-2.754"/>
		<path fill="#CF9236" stroke="#3C3C3C" stroke-width="2" stroke-miterlimit="10" d="M758.64,85.726l-2.199,0.647
			c0,0-3.104-5.561-3.104-12.415c0-6.854-2.716-17.718,0-23.408c2.716-5.69,9.958-12.027,9.958-12.027l-2.845-6.078h4.526
			l1.035-8.406l6.337,6.208l28.064-8.147l-3.233,4.268l25.865,6.078l-8.018,1.552c0,0,5.044,7.372,8.794,9.441
			c3.75,2.069,10.346,6.596,10.346,6.596l-6.078,1.164c0,0,2.586,2.845,2.586,5.69c0,2.845-3.362,28.193-3.362,28.193l-3.492,0.388
			c0,0,2.587-13.45,0.647-22.503s-5.561-7.889-5.561-7.889s-7.372,5.044-23.537,5.044c-16.166,0-27.288-6.466-31.297-4.914
			c-4.009,1.552-5.302,5.82-5.69,10.346C757.993,70.078,758.64,85.726,758.64,85.726z"/>
	</g>
</g>
<g>
	<path fill="#C1A6A3" stroke="#3C3C3C" stroke-width="2" stroke-miterlimit="10" d="M201.521,152.934
		c0,4.453-8.062,12.062-8.062,12.062s-8.062-7.61-8.062-12.062v-11.5c0-4.453,3.61-8.062,8.062-8.062l0,0
		c4.453,0,8.062,3.61,8.062,8.062V152.934z"/>
	<path fill="#B9DFF9" stroke="#3C3C3C" stroke-width="2" stroke-miterlimit="10" d="M234.146,169.497
		c0-11.244-22.085-19.158-33.688-22.54l-6.875,9.557l-8.188-9.552c-11.823,3.097-32.375,10.247-32.375,22.535c0,3.977,0,4,0,4
		c0,8.491,6.884,15.375,15.375,15.375h49.375c8.491,0,16.375-6.884,16.375-15.375C234.146,173.497,234.146,173.973,234.146,169.497z
		"/>
	<path fill="#65AEF1" stroke="#3C3C3C" stroke-miterlimit="10" d="M218.771,156.122"/>
	<polygon fill="#910930" stroke="#3C3C3C" stroke-width="2" stroke-miterlimit="10" points="195.463,188.557 191.463,188.557 
		189.463,186.328 190.463,156.122 196.463,156.122 197.463,186.265 	"/>
	<polyline fill="#B9DFF9" stroke="#3C3C3C" stroke-width="2" stroke-miterlimit="10" points="185.396,144.723 193.458,156.122 
		190.379,162.14 179.463,148.14 185.396,144.723 	"/>
	<polyline fill="#B9DFF9" stroke="#3C3C3C" stroke-width="2" stroke-miterlimit="10" points="201.525,144.723 193.463,156.122 
		196.541,162.14 207.458,148.14 201.525,144.723 	"/>
	<g id="face_1_">
		<path fill="#C1A6A3" d="M193.657,141.954c-20.026,0-34.928-28.323-34.928-33.743c0-14.752,0.147-53.98,0.173-60.742h69.683v60.742
			C228.585,113.821,214.121,141.954,193.657,141.954z"/>
		<path fill="#3C3C3C" d="M227.585,48.469v59.742c0,2.688-3.496,10.856-9.817,18.595c-4.316,5.284-13.187,14.148-24.111,14.148
			c-19.022,0-33.928-27.659-33.928-32.744c0-14.143,0.135-50.787,0.169-59.742H227.585 M229.585,46.469h-71.679
			c0,0-0.177,45.466-0.177,61.742c0,5.845,15.406,34.744,35.928,34.744s35.928-28.107,35.928-34.744
			C229.585,96.004,229.585,46.469,229.585,46.469L229.585,46.469z"/>
	</g>
	<circle fill="#3C3C3C" cx="173.651" cy="87.955" r="3.582"/>
	<circle fill="#3C3C3C" cx="212.602" cy="87.955" r="3.582"/>
	<path fill="none" stroke="#3C3C3C" stroke-width="3" stroke-miterlimit="10" d="M166.159,75.564c0,0,3.052-1.061,6.501-1.061
		s7.501,2.061,7.501,2.061"/>
	<path fill="none" stroke="#3C3C3C" stroke-width="3" stroke-miterlimit="10" d="M204.233,76.564c0,0,4.052-2.061,7.501-2.061
		s6.501,1.061,6.501,1.061"/>
	<path fill="#BC9895" d="M179.839,105.506c0,2.761-2.239,5-5,5h-4.533c-2.761,0-5-2.239-5-5l0,0c0-2.761,2.239-5,5-5h4.533
		C177.601,100.506,179.839,102.744,179.839,105.506L179.839,105.506z"/>
	<path fill="#BC9895" d="M221.285,105.506c0,2.761-2.239,5-5,5h-4.533c-2.761,0-5-2.239-5-5l0,0c0-2.761,2.239-5,5-5h4.533
		C219.047,100.506,221.285,102.744,221.285,105.506L221.285,105.506z"/>
	<path fill="none" stroke="#3C3C3C" stroke-width="2" stroke-miterlimit="10" d="M180.389,119.453c0,0,4.157,4.246,12.87,4.246
		s12.87-4.246,12.87-4.246"/>
	<path fill="none" stroke="#3C3C3C" stroke-width="2" stroke-miterlimit="10" d="M189.075,108.752c0,0,0.053-0.246,4.379-0.246
		c4.326,0,4.379,0.246,4.379,0.246"/>
	<path fill="#494949" stroke="#3C3C3C" stroke-width="2" stroke-miterlimit="10" d="M159.006,90.902V56.926
		c0,0,5.253,10.839,21.512,10.839s21.261-10.839,21.261-10.839s2.084,1.459,4.586,1.459c2.501,0,4.794-1.459,4.794-1.459
		s2.501,3.335,7.504,3.335s10.214-3.335,10.214-3.335V89.86l5.42,3.544c0,0,0-35.644,0-39.396s-3.752-3.96-3.752-3.96
		s0.521-2.814-2.501-5.836c-3.022-3.022-4.377-2.501-4.377-2.501s4.169-6.462-10.005-13.132c-14.174-6.67-18.76,2.084-18.76,2.084
		s-15.216-11.256-29.182-1.668c-13.966,9.588-10.631,21.887-10.631,21.887s-2.918,1.251-2.918,5.003s0,38.771,0,38.771
		L159.006,90.902z"/>
	<path fill="#C1A6A3" stroke="#3C3C3C" stroke-width="2" stroke-miterlimit="10" d="M158.061,106.567L158.061,106.567
		c-4.507,0-9.221-3.653-9.221-8.16v-9.376c0-4.507,4.715-8.16,9.221-8.16"/>
	<path fill="#C1A6A3" stroke="#3C3C3C" stroke-width="2" stroke-miterlimit="10" d="M228.855,80.871L228.855,80.871
		c4.507,0,9.221,3.653,9.221,8.16v9.376c0,4.507-4.715,8.16-9.221,8.16"/>
</g>
</svg>
