<?xml version="1.0" encoding="utf-8"?>
<!-- Generator: Adobe Illustrator 17.0.2, SVG Export Plug-In . SVG Version: 6.00 Build 0)  -->
<!DOCTYPE svg PUBLIC "-//W3C//DTD SVG 1.1//EN" "http://www.w3.org/Graphics/SVG/1.1/DTD/svg11.dtd">
<svg version="1.1" id="Calque_1" xmlns="http://www.w3.org/2000/svg" xmlns:xlink="http://www.w3.org/1999/xlink" x="0px" y="0px"
	 width="80.333px" height="80.333px" viewBox="139.167 130.5 80.333 80.333" enable-background="new 139.167 130.5 80.333 80.333"
	 xml:space="preserve">
<path fill="none" stroke="#000000" stroke-miterlimit="10" d="M179.297,153.658c-5.353,0-9.708,4.355-9.708,9.708
	c0,5.353,4.355,9.708,9.708,9.708c5.353,0,9.708-4.355,9.708-9.708C189.006,158.013,184.651,153.658,179.297,153.658z"/>
<g>
	<path fill="none" stroke="#000000" stroke-miterlimit="10" d="M190.182,179.802c-2.647-2.073-6.411-3.169-10.885-3.169
		s-8.238,1.096-10.885,3.169c-2.879,2.255-4.339,5.569-4.339,9.849c0,1.217,5.087,3.39,15.224,3.39s15.224-2.173,15.224-3.39
		C194.522,185.371,193.062,182.057,190.182,179.802z"/>
</g>
<path fill="none" stroke="#000000" stroke-miterlimit="10" d="M170.54,178.488c-0.724-1.563-1.776-2.894-3.16-3.977
	c-2.647-2.073-6.411-3.169-10.885-3.169s-8.238,1.096-10.885,3.169c-2.879,2.255-4.339,5.569-4.339,9.849
	c0,1.217,5.087,3.39,15.224,3.39c3.036,0,5.618-0.195,7.746-0.501"/>
<path fill="none" stroke="#000000" stroke-miterlimit="10" d="M194.353,187.248c2.129,0.306,4.71,0.501,7.746,0.501
	c10.137,0,15.224-2.173,15.224-3.39c0-4.28-1.46-7.594-4.339-9.849c-2.647-2.073-6.411-3.169-10.885-3.169
	s-8.238,1.096-10.885,3.169c-1.384,1.084-2.433,2.416-3.156,3.98"/>
<path fill="none" stroke="#000000" stroke-miterlimit="10" d="M156.495,148.367c-5.353,0-9.708,4.355-9.708,9.708
	c0,5.353,4.355,9.708,9.708,9.708s9.708-4.355,9.708-9.708C166.204,152.722,161.849,148.367,156.495,148.367z"/>
<path fill="none" stroke="#000000" stroke-miterlimit="10" d="M202.099,148.367c-5.353,0-9.708,4.355-9.708,9.708
	c0,5.353,4.355,9.708,9.708,9.708c5.353,0,9.708-4.355,9.708-9.708C211.808,152.722,207.452,148.367,202.099,148.367z"/>
</svg>
