<?xml version="1.0" encoding="utf-8"?>
<!-- Generator: Adobe Illustrator 17.0.2, SVG Export Plug-In . SVG Version: 6.00 Build 0)  -->
<!DOCTYPE svg PUBLIC "-//W3C//DTD SVG 1.1//EN" "http://www.w3.org/Graphics/SVG/1.1/DTD/svg11.dtd">
<svg version="1.1" id="Calque_1" xmlns="http://www.w3.org/2000/svg" xmlns:xlink="http://www.w3.org/1999/xlink" x="0px" y="0px"
	 width="40px" height="40px" viewBox="0 0 40 40" enable-background="new 0 0 40 40" xml:space="preserve">
<g id="feuille_1_">
	<g>
		<g>
			<g>
				<path fill="#F69844" d="M24.16,11.637c0.071,1.007,1.313,20.669-9.078,24.607c0,0,0.954,0.178,2.03,0.127
					c0,0,13.187-8.317,7.138-24.466C24.25,11.904,24.22,11.81,24.16,11.637z M18.638-0.114c3.318,5.568,5.117,10.565,5.522,11.751
					c-0.002-0.026-0.003-0.049-0.003-0.049C23.346,3.007,18.638-0.114,18.638-0.114z M35.196,0.79
					c-1.684,3.578-4.802,4.243-4.802,4.243c-3.118,0.792-4.21,1.995-4.21,1.995c-3.118,3.135-0.662,6.936-0.662,6.936
					c6.732-1.532,9.193-7.064,9.193-7.064c-0.299,3.717-8.313,8.108-8.313,8.108c2.65,2.596,5.184,2.283,6.857,1.288
					c2.217-1.32,3.281-4.21,3.281-4.21C38.688,5.667,35.196,0.79,35.196,0.79z"/>
			</g>
		</g>
	</g>
</g>
<path fill="#F69844" d="M27.565,25.499c0,1.976-0.472,3.818-1.415,5.526c-0.944,1.708-2.218,3.027-3.823,3.957
	c-1.606,0.929-3.368,1.394-5.288,1.394s-3.682-0.465-5.288-1.394s-2.88-2.248-3.823-3.957c-0.943-1.708-1.415-3.55-1.415-5.526
	c0-3.065,1.035-5.677,3.103-7.837s4.543-3.24,7.423-3.24c1.37,0,2.648,0.25,3.838,0.744c0.119-1.252,0.558-2.416,1.045-3.368
	c-1.497-0.543-3.12-0.818-4.871-0.818c-4.163,0-7.608,1.532-10.334,4.597C4.239,18.357,3,21.639,3,25.424
	c0,3.818,1.309,7.155,3.928,10.01c2.618,2.855,5.993,4.283,10.124,4.283c4.113,0,7.48-1.427,10.098-4.283
	c2.618-2.855,3.928-6.192,3.928-10.01c0-2.043-0.361-3.938-1.077-5.686c-1.202,0.739-2.345,1.126-3.291,1.324
	C27.278,22.417,27.565,23.896,27.565,25.499z"/>
</svg>
