<?xml version="1.0" encoding="utf-8"?>
<!-- Generator: Adobe Illustrator 17.0.2, SVG Export Plug-In . SVG Version: 6.00 Build 0)  -->
<!DOCTYPE svg PUBLIC "-//W3C//DTD SVG 1.1//EN" "http://www.w3.org/Graphics/SVG/1.1/DTD/svg11.dtd">
<svg version="1.1" id="Calque_1" xmlns="http://www.w3.org/2000/svg" xmlns:xlink="http://www.w3.org/1999/xlink" x="0px" y="0px"
	 width="180px" height="180px" viewBox="0 0 180 180" enable-background="new 0 0 180 180" xml:space="preserve">
<g>
	<path fill="#F17858" d="M89.981,15.818c40.915,0,74.201,33.286,74.201,74.201s-33.286,74.201-74.201,74.201
		S15.78,130.934,15.78,90.019S49.066,15.818,89.981,15.818 M89.981,11.818c-43.189,0-78.201,35.012-78.201,78.201
		s35.012,78.201,78.201,78.201s78.201-35.012,78.201-78.201S133.17,11.818,89.981,11.818L89.981,11.818z"/>
</g>
<g>
	<path fill="#F17858" d="M89.981,5.076c46.838,0,84.943,38.105,84.943,84.943s-38.105,84.943-84.943,84.943
		S5.038,136.857,5.038,90.019S43.143,5.076,89.981,5.076 M89.981,1.076c-49.122,0-88.943,39.821-88.943,88.943
		s39.821,88.943,88.943,88.943s88.943-39.821,88.943-88.943S139.103,1.076,89.981,1.076L89.981,1.076z"/>
</g>
<circle fill="#F17858" cx="38.205" cy="89.16" r="2.578"/>
<circle fill="#F17858" cx="142.187" cy="89.16" r="2.578"/>
<circle fill="#F17858" cx="89.766" cy="37.598" r="2.578"/>
<circle fill="#F17858" cx="89.766" cy="140.721" r="2.578"/>
<g>
	<path fill="#F17858" d="M113.848,65.078L93.414,92.807l-27.729,20.434l20.434-27.729L113.848,65.078 M132.734,46.192L83.258,82.651
		l-36.459,49.476l49.476-36.459L132.734,46.192L132.734,46.192z"/>
</g>
</svg>
