<?xml version="1.0" encoding="utf-8"?>
<!-- Generator: Adobe Illustrator 17.0.2, SVG Export Plug-In . SVG Version: 6.00 Build 0)  -->
<!DOCTYPE svg PUBLIC "-//W3C//DTD SVG 1.1//EN" "http://www.w3.org/Graphics/SVG/1.1/DTD/svg11.dtd">
<svg version="1.1" id="Calque_1" xmlns="http://www.w3.org/2000/svg" xmlns:xlink="http://www.w3.org/1999/xlink" x="0px" y="0px"
	 width="180px" height="180px" viewBox="0 0 180 180" enable-background="new 0 0 180 180" xml:space="preserve">
<g>
	<path fill="#3D3D3D" stroke="#F7F8F8" stroke-width="0.2" stroke-miterlimit="10" d="M72.968,81.856
		c-0.104-0.462-0.312-0.895-0.608-1.298c-0.148-0.202-0.317-0.396-0.506-0.585c-0.137-0.134-0.282-0.262-0.439-0.391
		c-0.06-0.048-0.125-0.093-0.187-0.141c-0.1-0.076-0.197-0.152-0.305-0.222c-0.085-0.06-0.176-0.115-0.266-0.171
		c-0.09-0.056-0.18-0.113-0.273-0.169c-0.109-0.063-0.22-0.123-0.331-0.183c-0.083-0.042-0.164-0.086-0.248-0.13
		c-0.13-0.065-0.262-0.127-0.398-0.189c-0.072-0.033-0.143-0.065-0.217-0.097c-0.152-0.067-0.307-0.132-0.465-0.194
		c-0.058-0.023-0.116-0.044-0.176-0.069c-0.176-0.067-0.354-0.132-0.536-0.196c-0.041-0.014-0.083-0.026-0.123-0.041
		c-0.203-0.067-0.405-0.132-0.617-0.196c-1.288-0.384-2.711-0.664-4.188-0.84c-0.592-0.07-1.193-0.123-1.797-0.159
		c-0.002,0-0.002,0-0.003,0c-0.603-0.037-1.208-0.055-1.809-0.055h-0.002c-5.756,0-11.828,1.619-13.257,4.651
		c-0.203,0.433-0.312,0.895-0.312,1.385v0.71v2.459v4.226c0.003,3.922,6.996,6.036,13.572,6.036c6.58,0,13.571-2.114,13.571-6.034
		V82.57C73.049,82.325,73.022,82.087,72.968,81.856z M70.748,89.965c0,1.503-4.286,3.668-11.014,3.723v0.01
		c-0.044,0-0.083-0.005-0.126-0.005c-0.044,0-0.082,0.005-0.126,0.005v-0.01c-6.735-0.055-11.271-2.22-11.271-3.723v-3.938
		c2.571,1.67,7.176,2.555,11.396,2.573c4.216-0.017,8.569-0.903,11.14-2.573V89.965z M59.487,86.308
		c-0.509,0-0.999-0.016-1.478-0.039c-0.144-0.007-0.284-0.018-0.424-0.026c-0.344-0.021-0.682-0.048-1.01-0.079
		c-0.137-0.014-0.271-0.026-0.403-0.041c-0.386-0.042-0.761-0.093-1.122-0.152c-0.049-0.007-0.1-0.012-0.146-0.021
		c-0.425-0.07-0.83-0.148-1.219-0.234c-0.056-0.012-0.109-0.026-0.166-0.039c-0.333-0.078-0.654-0.16-0.957-0.247
		c-0.06-0.018-0.12-0.035-0.18-0.053c-1.631-0.483-2.829-1.096-3.509-1.705c-0.026-0.025-0.051-0.047-0.076-0.07
		c-0.06-0.058-0.12-0.116-0.173-0.174c-0.069-0.076-0.13-0.153-0.181-0.227c-0.025-0.034-0.039-0.067-0.058-0.1
		c-0.035-0.062-0.067-0.122-0.09-0.183c-0.011-0.03-0.023-0.058-0.032-0.086c-0.025-0.086-0.044-0.174-0.044-0.257
		c-0.011-0.099,0.009-0.197,0.041-0.296c0.03-0.088,0.076-0.18,0.132-0.271c0.021-0.032,0.048-0.063,0.071-0.095
		c0.042-0.06,0.086-0.12,0.141-0.181c0.033-0.039,0.076-0.079,0.113-0.118c0.053-0.053,0.107-0.106,0.167-0.159
		c0.051-0.044,0.106-0.088,0.164-0.134c0.058-0.048,0.12-0.095,0.185-0.143c0.069-0.049,0.141-0.099,0.218-0.146
		c0.062-0.04,0.127-0.081,0.192-0.122c0.09-0.055,0.181-0.109,0.28-0.16c0.058-0.034,0.122-0.065,0.183-0.097
		c0.116-0.06,0.231-0.118,0.358-0.176c0.042-0.021,0.09-0.04,0.136-0.06c1.246-0.56,2.944-1.043,5.009-1.321
		c0.007-0.002,0.014-0.002,0.021-0.002c0.296-0.041,0.599-0.076,0.911-0.106c0.012-0.002,0.025-0.002,0.037-0.004
		c0.312-0.032,0.631-0.056,0.957-0.078c0,0,0.002,0,0.003,0c0.625-0.04,1.272-0.065,1.947-0.065c0.71,0,1.393,0.023,2.051,0.069
		c1.098,0.074,2.107,0.206,3.034,0.379c0.063,0.012,0.129,0.025,0.192,0.037c0.733,0.143,1.406,0.312,2.019,0.5
		c0.062,0.019,0.123,0.039,0.183,0.058c0.296,0.095,0.581,0.194,0.846,0.296c0.005,0,0.009,0.002,0.01,0.003
		c0.257,0.1,0.493,0.204,0.719,0.31c0.055,0.026,0.109,0.053,0.164,0.079c0.218,0.108,0.426,0.217,0.611,0.328
		c0.005,0.003,0.011,0.007,0.018,0.01c0.18,0.108,0.338,0.217,0.483,0.328c0.039,0.03,0.076,0.058,0.114,0.088
		c0.141,0.113,0.271,0.225,0.377,0.338c0.296,0.315,0.451,0.624,0.451,0.911C70.755,84.097,66.366,86.308,59.487,86.308z"/>
</g>
<g>
	<path fill="#3D3D3D" stroke="#F7F8F8" stroke-width="0.2" stroke-miterlimit="10" d="M101.853,70.972
		c-0.106-0.462-0.314-0.893-0.61-1.298c-0.148-0.202-0.319-0.396-0.506-0.585c-0.136-0.134-0.282-0.262-0.437-0.389
		c-0.06-0.048-0.125-0.093-0.187-0.141c-0.1-0.076-0.197-0.152-0.305-0.224c-0.086-0.058-0.176-0.115-0.266-0.171
		c-0.088-0.056-0.18-0.113-0.271-0.169c-0.109-0.063-0.218-0.123-0.331-0.183c-0.083-0.044-0.164-0.088-0.247-0.13
		c-0.13-0.065-0.262-0.129-0.4-0.189c-0.07-0.033-0.143-0.067-0.215-0.099c-0.152-0.067-0.308-0.132-0.465-0.194
		c-0.058-0.023-0.116-0.044-0.176-0.069c-0.176-0.067-0.354-0.132-0.537-0.194c-0.04-0.014-0.081-0.028-0.121-0.04
		c-0.203-0.069-0.405-0.134-0.618-0.196c-1.288-0.384-2.711-0.664-4.188-0.839c-0.592-0.07-1.193-0.123-1.797-0.159
		c-0.002,0-0.002,0-0.003,0c-0.601-0.035-1.207-0.053-1.809-0.053h-0.002c-5.756,0-11.827,1.619-13.255,4.651
		c-0.203,0.433-0.312,0.895-0.312,1.385v0.71v2.459v4.226c0.002,3.916,6.992,6.032,13.569,6.032c6.578,0,13.571-2.116,13.571-6.034
		v-7.396C101.934,71.441,101.906,71.203,101.853,70.972z M77.146,71.391c0.03-0.088,0.076-0.18,0.132-0.271
		c0.021-0.032,0.048-0.063,0.071-0.095c0.042-0.06,0.086-0.12,0.139-0.181c0.033-0.039,0.076-0.079,0.114-0.12
		c0.053-0.053,0.106-0.106,0.166-0.159c0.051-0.044,0.108-0.088,0.164-0.134c0.058-0.048,0.12-0.093,0.185-0.143
		c0.069-0.049,0.141-0.099,0.217-0.146c0.062-0.04,0.127-0.081,0.194-0.121c0.088-0.053,0.181-0.107,0.278-0.16
		c0.058-0.034,0.121-0.063,0.183-0.097c0.116-0.06,0.231-0.118,0.358-0.176c0.042-0.021,0.09-0.04,0.134-0.06
		c1.245-0.56,2.942-1.043,5.007-1.321c0.005-0.002,0.014-0.002,0.021-0.004c0.296-0.039,0.599-0.076,0.909-0.106
		c0.012,0,0.025-0.002,0.037-0.003c0.312-0.032,0.631-0.058,0.957-0.078c0,0,0,0,0.002,0c0.629-0.039,1.276-0.065,1.95-0.065
		c0.71,0,1.394,0.025,2.049,0.069c1.098,0.074,2.107,0.206,3.034,0.379c0.063,0.011,0.129,0.023,0.192,0.037
		c0.731,0.143,1.406,0.312,2.017,0.5c0.062,0.019,0.123,0.039,0.183,0.058c0.298,0.095,0.581,0.194,0.846,0.296
		c0.005,0.002,0.009,0.004,0.012,0.005c0.257,0.1,0.492,0.204,0.717,0.31c0.053,0.026,0.109,0.053,0.164,0.078
		c0.218,0.107,0.426,0.217,0.613,0.328c0.005,0.004,0.011,0.007,0.018,0.011c0.18,0.109,0.336,0.218,0.483,0.328
		c0.039,0.03,0.076,0.058,0.113,0.086c0.141,0.113,0.269,0.227,0.377,0.338c0.296,0.315,0.451,0.624,0.451,0.911
		c0,1.522-4.389,3.733-11.268,3.733c-0.509,0-0.999-0.016-1.48-0.039c-0.144-0.005-0.284-0.016-0.424-0.025
		c-0.344-0.021-0.682-0.049-1.01-0.081c-0.137-0.012-0.271-0.026-0.403-0.04c-0.386-0.044-0.761-0.095-1.122-0.151
		c-0.049-0.009-0.1-0.014-0.148-0.021c-0.425-0.071-0.828-0.148-1.219-0.236c-0.056-0.012-0.109-0.026-0.164-0.039
		c-0.335-0.076-0.652-0.159-0.955-0.247c-0.06-0.018-0.12-0.035-0.18-0.051c-1.631-0.483-2.829-1.096-3.509-1.705
		c-0.026-0.025-0.053-0.046-0.076-0.071c-0.06-0.058-0.12-0.115-0.173-0.174c-0.069-0.076-0.13-0.153-0.181-0.227
		c-0.025-0.033-0.039-0.067-0.058-0.099c-0.035-0.062-0.067-0.123-0.09-0.183c-0.011-0.028-0.023-0.056-0.032-0.084
		c-0.026-0.088-0.044-0.174-0.044-0.257C77.095,71.589,77.113,71.492,77.146,71.391z M99.633,79.08
		c0,1.507-4.505,3.681-11.269,3.725v0.008c-0.035,0-0.065-0.004-0.099-0.004c-0.035,0-0.065,0.004-0.1,0.004v-0.008
		c-6.76-0.044-11.067-2.218-11.067-3.725v-3.938c2.577,1.673,6.943,2.559,11.167,2.573c4.227-0.014,8.792-0.9,11.368-2.573V79.08z"
		/>
</g>
<g>
	<path fill="#3D3D3D" stroke="#F7F8F8" stroke-width="0.2" stroke-miterlimit="10" d="M130.74,60.084
		c-0.106-0.461-0.314-0.893-0.61-1.298c-0.148-0.203-0.317-0.396-0.506-0.585c-0.136-0.134-0.282-0.263-0.437-0.389
		c-0.06-0.048-0.125-0.093-0.187-0.141c-0.1-0.076-0.197-0.152-0.305-0.224c-0.086-0.058-0.176-0.113-0.266-0.171
		c-0.088-0.056-0.18-0.113-0.271-0.169c-0.109-0.063-0.218-0.123-0.331-0.183c-0.083-0.044-0.164-0.086-0.247-0.13
		c-0.13-0.065-0.262-0.127-0.4-0.189c-0.07-0.033-0.143-0.067-0.215-0.097c-0.151-0.067-0.308-0.132-0.465-0.194
		c-0.058-0.023-0.116-0.046-0.176-0.069c-0.176-0.067-0.354-0.132-0.536-0.196c-0.04-0.014-0.083-0.026-0.123-0.041
		c-0.203-0.067-0.405-0.134-0.618-0.196c-1.288-0.384-2.711-0.664-4.188-0.84c-0.592-0.071-1.193-0.123-1.797-0.159
		c-0.002,0-0.002,0-0.003,0c-0.603-0.037-1.209-0.055-1.809-0.055h-0.002c-5.756,0-11.83,1.619-13.257,4.651
		c-0.203,0.433-0.312,0.895-0.312,1.385v0.712v2.459v4.226c0.002,3.92,6.991,6.036,13.571,6.036c6.578,0,13.571-2.116,13.571-6.034
		v-7.397C130.821,60.553,130.793,60.315,130.74,60.084z M128.518,68.196c0,1.509-4.491,3.687-11.268,3.726v0.007
		c-0.031,0-0.057-0.003-0.088-0.003c-0.031,0-0.057,0.003-0.088,0.003v-0.007c-6.773-0.039-11.09-2.218-11.09-3.726v-3.938
		c2.579,1.674,6.953,2.561,11.178,2.573c4.228-0.012,8.777-0.899,11.356-2.573V68.196z M117.25,64.535
		c-0.509,0-0.999-0.016-1.48-0.039c-0.144-0.005-0.284-0.016-0.424-0.025c-0.344-0.021-0.682-0.048-1.009-0.079
		c-0.136-0.014-0.27-0.027-0.404-0.041c-0.384-0.044-0.761-0.095-1.122-0.151c-0.048-0.007-0.1-0.014-0.148-0.021
		c-0.423-0.07-0.828-0.148-1.217-0.236c-0.056-0.011-0.109-0.026-0.166-0.039c-0.333-0.076-0.652-0.159-0.957-0.245
		c-0.06-0.018-0.12-0.035-0.18-0.053c-1.631-0.483-2.829-1.096-3.509-1.705c-0.028-0.023-0.051-0.046-0.076-0.071
		c-0.06-0.058-0.12-0.115-0.174-0.173c-0.067-0.076-0.129-0.153-0.181-0.229c-0.025-0.033-0.039-0.067-0.058-0.099
		c-0.035-0.062-0.065-0.123-0.09-0.183c-0.012-0.028-0.023-0.056-0.034-0.084c-0.025-0.086-0.042-0.174-0.042-0.257
		c0.002-0.1,0.019-0.197,0.053-0.299c0.03-0.088,0.076-0.18,0.13-0.27c0.021-0.032,0.048-0.063,0.07-0.095
		c0.042-0.06,0.086-0.12,0.139-0.181c0.034-0.039,0.076-0.079,0.113-0.118c0.053-0.053,0.107-0.108,0.167-0.159
		c0.051-0.044,0.107-0.09,0.164-0.134c0.058-0.048,0.12-0.095,0.185-0.143c0.067-0.049,0.141-0.099,0.217-0.146
		c0.062-0.041,0.127-0.081,0.192-0.122c0.09-0.055,0.181-0.109,0.28-0.16c0.058-0.034,0.12-0.065,0.183-0.097
		c0.116-0.06,0.233-0.118,0.358-0.176c0.042-0.021,0.09-0.041,0.134-0.06c1.246-0.56,2.944-1.043,5.009-1.321
		c0.007-0.002,0.016-0.002,0.021-0.004c0.298-0.039,0.599-0.074,0.911-0.106c0.012-0.002,0.025-0.002,0.037-0.003
		c0.314-0.032,0.631-0.056,0.958-0.078c0,0,0.002,0,0.003,0c0.624-0.04,1.272-0.067,1.947-0.067c0.708,0,1.394,0.025,2.049,0.069
		c1.096,0.074,2.107,0.206,3.034,0.379c0.063,0.012,0.129,0.025,0.192,0.037c0.731,0.143,1.406,0.312,2.017,0.5
		c0.062,0.019,0.123,0.039,0.183,0.058c0.298,0.095,0.581,0.194,0.846,0.296c0.005,0,0.009,0.002,0.012,0.004
		c0.257,0.1,0.492,0.204,0.717,0.31c0.053,0.026,0.109,0.053,0.164,0.078c0.218,0.109,0.426,0.218,0.613,0.329
		c0.005,0.003,0.011,0.007,0.018,0.011c0.18,0.107,0.336,0.217,0.483,0.328c0.039,0.03,0.076,0.058,0.113,0.088
		c0.141,0.113,0.271,0.226,0.377,0.338c0.298,0.315,0.451,0.624,0.451,0.909C128.519,62.322,124.13,64.535,117.25,64.535z"/>
</g>
<g>
	<g>
		<g>
			<g>
				<g>
					<path fill="#3D3D3D" stroke="#F7F8F8" stroke-width="0.2" stroke-miterlimit="10" d="M180.136,55.927
						c-0.002-0.104-0.018-0.207-0.047-0.306c-0.009-0.036-0.025-0.07-0.038-0.103c-0.027-0.069-0.054-0.132-0.094-0.193
						c-0.022-0.033-0.04-0.065-0.065-0.096c-0.043-0.058-0.096-0.112-0.15-0.16c-0.027-0.024-0.049-0.049-0.077-0.07
						c-0.013-0.009-0.022-0.022-0.036-0.031c-0.076-0.052-0.159-0.096-0.243-0.128c-0.002,0-0.004-0.002-0.005-0.002l-0.002-0.002
						c0,0-0.002,0-0.006-0.002L163.3,48.682v-1.02c0-0.25-0.029-0.494-0.083-0.729c-0.108-0.472-0.321-0.913-0.623-1.328
						c-0.151-0.207-0.324-0.405-0.517-0.598c-0.139-0.137-0.288-0.268-0.447-0.398c-0.061-0.05-0.128-0.095-0.191-0.144
						c-0.103-0.078-0.202-0.155-0.312-0.227c-0.088-0.061-0.18-0.117-0.272-0.175c-0.09-0.059-0.184-0.115-0.277-0.173
						c-0.112-0.063-0.223-0.124-0.339-0.187c-0.083-0.045-0.166-0.09-0.252-0.133c-0.133-0.067-0.268-0.13-0.409-0.193
						c-0.072-0.034-0.144-0.067-0.22-0.099c-0.155-0.069-0.315-0.135-0.476-0.198c-0.06-0.023-0.119-0.045-0.18-0.07
						c-0.18-0.069-0.36-0.135-0.548-0.2c-0.041-0.014-0.085-0.027-0.126-0.041c-0.207-0.07-0.414-0.137-0.632-0.2
						c-1.315-0.393-2.77-0.681-4.28-0.859c-0.605-0.072-1.22-0.126-1.837-0.162c0,0-0.002,0-0.004,0
						c-0.616-0.036-1.236-0.056-1.85-0.056h-0.002c-1.398,0-2.814,0.097-4.179,0.281l-11.765-4.504v-1.021
						c0-0.25-0.027-0.494-0.081-0.73c-0.108-0.472-0.321-0.913-0.622-1.328c-0.151-0.207-0.326-0.405-0.519-0.598
						c-0.139-0.137-0.288-0.268-0.447-0.398c-0.061-0.049-0.128-0.095-0.191-0.144c-0.103-0.078-0.202-0.155-0.312-0.229
						c-0.088-0.06-0.18-0.117-0.27-0.175c-0.092-0.06-0.184-0.115-0.279-0.173c-0.11-0.063-0.223-0.124-0.339-0.187
						c-0.083-0.045-0.168-0.09-0.254-0.133c-0.13-0.067-0.267-0.132-0.405-0.195c-0.072-0.034-0.148-0.067-0.222-0.099
						c-0.157-0.069-0.314-0.135-0.476-0.198c-0.06-0.023-0.119-0.045-0.18-0.07c-0.182-0.069-0.362-0.135-0.549-0.198
						c-0.042-0.014-0.085-0.029-0.126-0.041c-0.205-0.07-0.412-0.137-0.629-0.2c-1.319-0.393-2.774-0.679-4.282-0.859
						c-0.607-0.072-1.223-0.126-1.839-0.162c-0.002,0-0.002,0-0.002,0c-0.618-0.034-1.236-0.052-1.854-0.052h-0.002
						c-5.885,0-12.094,1.655-13.554,4.756c-0.207,0.441-0.319,0.915-0.319,1.416v0.726L93.879,41.44
						c0.101,0.011,0.198,0.029,0.297,0.042c-0.137-0.018-0.274-0.04-0.412-0.056c-0.607-0.072-1.223-0.126-1.839-0.162
						c-0.62-0.04-1.239-0.058-1.855-0.058c-5.885,0-12.093,1.655-13.554,4.756c-0.207,0.443-0.319,0.915-0.319,1.416v0.726
						l-11.851,4.465c-0.038-0.006-0.077-0.011-0.115-0.016c-0.607-0.072-1.221-0.126-1.839-0.162c-0.002,0-0.002,0-0.002,0
						c-0.618-0.036-1.238-0.054-1.852-0.054h-0.002c-5.885,0-12.094,1.655-13.555,4.756c-0.207,0.443-0.321,0.915-0.321,1.416v0.726
						L34.808,63.7c0.085,0.011,0.169,0.025,0.254,0.036c-0.123-0.016-0.245-0.036-0.369-0.05c-0.607-0.072-1.221-0.126-1.839-0.162
						c-0.002,0-0.002,0-0.002,0c-0.618-0.036-1.238-0.056-1.852-0.056h-0.002c-5.885,0-12.094,1.655-13.554,4.756
						c-0.209,0.443-0.321,0.915-0.321,1.416v0.726L0.762,76.529c-0.004,0.002-0.007,0.006-0.011,0.006
						c-0.085,0.032-0.166,0.074-0.241,0.126c-0.011,0.007-0.02,0.02-0.031,0.027c-0.031,0.024-0.056,0.049-0.083,0.074
						c-0.054,0.047-0.103,0.097-0.146,0.153c-0.025,0.032-0.047,0.063-0.069,0.097c-0.038,0.061-0.068,0.124-0.094,0.191
						c-0.013,0.034-0.029,0.065-0.038,0.101c-0.029,0.099-0.047,0.202-0.047,0.308C0.002,77.617,0,77.621,0,77.626v0.002v48.369
						c0,0.488,0.301,0.924,0.755,1.097l59.64,22.829c0.009,0.004,0.022,0.002,0.033,0.005c0.124,0.045,0.256,0.072,0.387,0.072
						c0.132,0,0.259-0.027,0.384-0.069c0.009-0.004,0.022-0.002,0.031-0.007l118.145-44.517c0.458-0.173,0.762-0.611,0.762-1.099
						V55.947c0.002-0.002,0.002-0.004,0.002-0.005C180.137,55.936,180.136,55.93,180.136,55.927z M145.457,44.106
						c0.011-0.002,0.02-0.002,0.025-0.002c0.304-0.04,0.614-0.078,0.931-0.108c0.013-0.002,0.025-0.002,0.038-0.004
						c0.321-0.032,0.645-0.059,0.98-0.079c0,0,0.002,0,0.003,0c0.64-0.041,1.301-0.067,1.991-0.067c0.726,0,1.425,0.024,2.095,0.07
						c1.122,0.076,2.154,0.211,3.102,0.387c0.065,0.013,0.132,0.025,0.196,0.038c0.748,0.146,1.438,0.319,2.064,0.512
						c0.061,0.02,0.124,0.04,0.187,0.06c0.304,0.097,0.596,0.198,0.865,0.303c0.005,0.002,0.009,0.004,0.013,0.004
						c0.263,0.103,0.503,0.209,0.733,0.317c0.054,0.027,0.112,0.052,0.168,0.079c0.223,0.11,0.436,0.222,0.627,0.335
						c0.005,0.004,0.011,0.007,0.018,0.011c0.184,0.11,0.344,0.223,0.494,0.335c0.04,0.031,0.078,0.059,0.115,0.088
						c0.144,0.115,0.277,0.231,0.386,0.346c0.304,0.322,0.461,0.638,0.461,0.931c0,1.556-4.487,3.817-11.522,3.817
						c-0.521,0-1.021-0.016-1.513-0.04c-0.148-0.007-0.29-0.018-0.434-0.027c-0.351-0.022-0.697-0.049-1.032-0.081
						c-0.139-0.013-0.276-0.027-0.412-0.041c-0.395-0.043-0.78-0.096-1.149-0.155c-0.049-0.007-0.103-0.013-0.15-0.022
						c-0.434-0.072-0.848-0.153-1.247-0.241c-0.058-0.013-0.112-0.027-0.169-0.04c-0.341-0.079-0.667-0.162-0.978-0.252
						c-0.061-0.018-0.122-0.036-0.184-0.054c-1.668-0.494-2.893-1.12-3.588-1.744c-0.029-0.025-0.052-0.049-0.077-0.072
						c-0.061-0.06-0.123-0.119-0.178-0.178c-0.068-0.078-0.132-0.157-0.186-0.232c-0.023-0.034-0.04-0.068-0.059-0.101
						c-0.036-0.063-0.067-0.126-0.092-0.187c-0.013-0.029-0.024-0.06-0.034-0.088c-0.025-0.088-0.043-0.177-0.043-0.263
						c0-0.097,0.018-0.196,0.05-0.299c0.033-0.09,0.078-0.184,0.135-0.277c0.022-0.033,0.047-0.065,0.07-0.097
						c0.043-0.061,0.088-0.123,0.142-0.186c0.034-0.04,0.077-0.081,0.117-0.121c0.052-0.054,0.108-0.108,0.169-0.162
						c0.052-0.045,0.11-0.09,0.168-0.137c0.059-0.049,0.123-0.096,0.189-0.146c0.068-0.05,0.144-0.101,0.222-0.15
						c0.063-0.041,0.13-0.083,0.198-0.124c0.09-0.056,0.186-0.11,0.285-0.164c0.059-0.034,0.124-0.067,0.187-0.099
						c0.119-0.061,0.238-0.121,0.366-0.18c0.043-0.022,0.092-0.041,0.137-0.061C141.61,44.884,143.346,44.391,145.457,44.106z
						 M137.947,55.226v-4.028c2.651,1.721,7.158,2.63,11.5,2.635c4.343-0.005,8.849-0.914,11.5-2.635v4.028
						c0,1.553-4.47,3.807-11.481,3.816v0.002c-0.007,0-0.013-0.001-0.02-0.001s-0.013,0.001-0.02,0.001v-0.002
						C142.417,59.033,137.947,56.779,137.947,55.226z M108.133,35.948c0.031-0.09,0.078-0.184,0.133-0.277
						c0.022-0.032,0.049-0.065,0.072-0.097c0.043-0.061,0.086-0.123,0.142-0.186c0.034-0.04,0.078-0.081,0.115-0.121
						c0.054-0.054,0.11-0.108,0.171-0.162c0.05-0.045,0.11-0.09,0.168-0.137c0.06-0.049,0.123-0.096,0.189-0.146
						c0.069-0.05,0.144-0.101,0.222-0.15c0.063-0.041,0.13-0.083,0.196-0.124c0.092-0.056,0.186-0.11,0.285-0.164
						c0.059-0.034,0.124-0.067,0.187-0.099c0.117-0.061,0.238-0.121,0.364-0.18c0.043-0.021,0.094-0.041,0.139-0.061
						c1.274-0.573,3.01-1.067,5.121-1.351c0.007,0,0.015-0.002,0.022-0.002c0.303-0.04,0.612-0.078,0.931-0.108
						c0.013-0.002,0.025-0.002,0.038-0.004c0.319-0.033,0.645-0.06,0.978-0.079c0.002,0,0.002,0,0.004,0
						c0.639-0.042,1.302-0.067,1.99-0.067c0.726,0,1.425,0.023,2.097,0.07c1.121,0.076,2.155,0.211,3.102,0.387
						c0.067,0.012,0.132,0.025,0.195,0.038c0.749,0.146,1.439,0.319,2.064,0.512c0.063,0.02,0.126,0.04,0.189,0.06
						c0.303,0.097,0.594,0.198,0.865,0.303c0.004,0.002,0.007,0.003,0.011,0.005c0.263,0.103,0.503,0.209,0.733,0.317
						c0.056,0.027,0.112,0.052,0.168,0.079c0.223,0.11,0.438,0.222,0.627,0.335c0.005,0.004,0.011,0.007,0.016,0.011
						c0.186,0.11,0.346,0.223,0.495,0.335c0.038,0.031,0.079,0.059,0.115,0.088c0.144,0.115,0.278,0.232,0.387,0.346
						c0.301,0.323,0.461,0.638,0.461,0.931c0,1.556-4.489,3.817-11.523,3.817c-0.519,0-1.019-0.016-1.511-0.04
						c-0.148-0.005-0.29-0.016-0.434-0.027c-0.351-0.022-0.697-0.049-1.032-0.081c-0.139-0.013-0.276-0.027-0.413-0.042
						c-0.394-0.045-0.778-0.097-1.148-0.155c-0.05-0.009-0.103-0.014-0.151-0.022c-0.434-0.072-0.848-0.151-1.245-0.241
						c-0.058-0.012-0.112-0.027-0.169-0.04c-0.341-0.079-0.668-0.162-0.978-0.252c-0.061-0.018-0.122-0.036-0.186-0.052
						c-1.668-0.494-2.891-1.12-3.587-1.744c-0.029-0.025-0.054-0.047-0.077-0.072c-0.061-0.06-0.123-0.119-0.178-0.178
						c-0.07-0.077-0.132-0.157-0.186-0.232c-0.025-0.034-0.04-0.068-0.06-0.101c-0.036-0.063-0.068-0.126-0.094-0.187
						c-0.011-0.029-0.022-0.058-0.032-0.087c-0.027-0.09-0.045-0.178-0.045-0.263C108.081,36.15,108.099,36.051,108.133,35.948z
						 M108.067,39.783c2.632,1.708,7.088,2.613,11.398,2.632c4.316-0.019,9.032-0.925,11.664-2.632v4.028
						c0,1.537-4.648,3.753-11.54,3.807v0.01c-0.043,0-0.081-0.005-0.124-0.005c-0.043,0-0.081,0.005-0.124,0.005v-0.01
						c-6.885-0.055-11.274-2.27-11.274-3.807V39.783z M78.599,47.079c0.031-0.09,0.078-0.184,0.135-0.277
						c0.02-0.033,0.049-0.065,0.072-0.097c0.043-0.061,0.086-0.123,0.142-0.186c0.034-0.04,0.077-0.081,0.115-0.121
						c0.054-0.054,0.11-0.11,0.171-0.162c0.052-0.045,0.108-0.09,0.168-0.137c0.059-0.049,0.123-0.097,0.189-0.146
						c0.07-0.051,0.144-0.101,0.223-0.15c0.063-0.042,0.13-0.083,0.196-0.124c0.092-0.056,0.186-0.112,0.286-0.164
						c0.06-0.034,0.124-0.067,0.187-0.099c0.119-0.061,0.238-0.121,0.366-0.18c0.043-0.022,0.092-0.042,0.139-0.061
						c1.274-0.573,3.008-1.066,5.119-1.351c0.007-0.002,0.014-0.002,0.022-0.004c0.303-0.04,0.612-0.076,0.931-0.108
						c0.012-0.002,0.025-0.002,0.038-0.004c0.319-0.033,0.645-0.058,0.978-0.079c0,0,0.002,0,0.004,0
						c0.636-0.043,1.295-0.07,1.987-0.07c0.726,0,1.425,0.025,2.095,0.07c1.122,0.076,2.156,0.211,3.102,0.387
						c0.067,0.013,0.132,0.025,0.195,0.038c0.749,0.146,1.439,0.321,2.064,0.512c0.063,0.02,0.126,0.04,0.189,0.059
						c0.303,0.097,0.594,0.198,0.865,0.303c0.003,0,0.007,0.002,0.011,0.004c0.263,0.103,0.503,0.209,0.733,0.317
						c0.056,0.027,0.112,0.054,0.168,0.081c0.223,0.11,0.436,0.222,0.627,0.335c0.005,0.004,0.011,0.007,0.016,0.011
						c0.184,0.11,0.346,0.222,0.494,0.335c0.04,0.031,0.081,0.059,0.117,0.09c0.144,0.115,0.277,0.231,0.387,0.346
						c0.301,0.322,0.461,0.638,0.461,0.931c0,1.556-4.489,3.817-11.523,3.817c-0.521,0-1.021-0.016-1.511-0.04
						c-0.148-0.007-0.29-0.018-0.434-0.027c-0.351-0.022-0.697-0.049-1.032-0.081c-0.139-0.014-0.276-0.027-0.413-0.041
						c-0.394-0.045-0.778-0.096-1.147-0.155c-0.051-0.007-0.103-0.013-0.15-0.022c-0.434-0.072-0.848-0.151-1.247-0.24
						c-0.058-0.012-0.112-0.027-0.169-0.04c-0.341-0.079-0.667-0.164-0.976-0.252c-0.061-0.018-0.123-0.036-0.184-0.054
						c-1.668-0.494-2.893-1.121-3.588-1.744c-0.029-0.025-0.054-0.049-0.078-0.072c-0.061-0.059-0.123-0.119-0.177-0.178
						c-0.07-0.078-0.133-0.157-0.186-0.232c-0.024-0.034-0.04-0.069-0.06-0.103c-0.036-0.063-0.068-0.124-0.092-0.187
						c-0.011-0.031-0.023-0.06-0.032-0.088c-0.025-0.088-0.045-0.178-0.045-0.263C78.547,47.28,78.565,47.181,78.599,47.079z
						 M78.547,50.912c2.628,1.706,7.078,2.611,11.387,2.632c4.314-0.02,9.031-0.926,11.659-2.632v4.028
						c0,1.536-4.644,3.747-11.523,3.806v0.011c-0.047,0-0.088-0.005-0.135-0.005c-0.047,0-0.089,0.005-0.136,0.005v-0.011
						c-6.872-0.06-11.251-2.271-11.251-3.806V50.912z M49.062,58.207c0.031-0.09,0.078-0.184,0.135-0.277
						c0.022-0.033,0.049-0.065,0.072-0.097c0.043-0.061,0.087-0.123,0.142-0.186c0.034-0.04,0.077-0.081,0.117-0.121
						c0.054-0.054,0.108-0.11,0.169-0.164c0.052-0.045,0.11-0.09,0.168-0.135c0.059-0.049,0.123-0.097,0.189-0.146
						c0.07-0.051,0.144-0.101,0.222-0.151c0.063-0.041,0.13-0.083,0.198-0.124c0.09-0.054,0.186-0.11,0.285-0.164
						c0.059-0.032,0.124-0.065,0.187-0.099c0.117-0.061,0.236-0.121,0.364-0.18c0.043-0.022,0.094-0.042,0.139-0.061
						c1.274-0.573,3.01-1.067,5.121-1.351c0.006-0.002,0.015-0.002,0.022-0.004c0.303-0.04,0.612-0.078,0.931-0.108
						c0.013-0.002,0.023-0.002,0.038-0.004c0.319-0.032,0.645-0.059,0.978-0.079h0.002c0.639-0.041,1.302-0.068,1.992-0.068
						c0.726,0,1.425,0.025,2.095,0.07c1.122,0.076,2.156,0.211,3.102,0.387c0.067,0.013,0.132,0.023,0.196,0.038
						c0.749,0.146,1.437,0.319,2.062,0.512c0.063,0.02,0.126,0.04,0.189,0.059c0.303,0.097,0.594,0.196,0.865,0.303
						c0.004,0.002,0.005,0.004,0.011,0.005c0.261,0.103,0.503,0.209,0.733,0.317c0.056,0.027,0.112,0.054,0.166,0.079
						c0.225,0.11,0.438,0.223,0.627,0.337c0.005,0.004,0.011,0.007,0.016,0.011c0.184,0.112,0.344,0.223,0.494,0.335
						c0.04,0.031,0.079,0.06,0.117,0.088c0.144,0.115,0.277,0.232,0.387,0.348c0.301,0.321,0.459,0.638,0.459,0.93
						c0,1.556-4.489,3.817-11.522,3.817c-0.521,0-1.021-0.016-1.511-0.04c-0.148-0.005-0.29-0.016-0.434-0.025
						c-0.351-0.022-0.697-0.049-1.032-0.081c-0.139-0.014-0.277-0.027-0.413-0.041c-0.393-0.045-0.778-0.097-1.148-0.155
						c-0.05-0.007-0.103-0.014-0.151-0.022c-0.434-0.072-0.847-0.151-1.245-0.241c-0.059-0.013-0.112-0.027-0.169-0.04
						c-0.342-0.078-0.668-0.162-0.978-0.25c-0.061-0.018-0.123-0.036-0.184-0.054c-1.668-0.494-2.891-1.12-3.588-1.744
						c-0.027-0.025-0.054-0.047-0.078-0.072c-0.061-0.06-0.122-0.117-0.177-0.178c-0.07-0.077-0.133-0.155-0.186-0.232
						c-0.025-0.034-0.04-0.068-0.059-0.101c-0.036-0.063-0.069-0.126-0.094-0.187c-0.011-0.029-0.022-0.058-0.032-0.087
						c-0.027-0.09-0.045-0.178-0.045-0.263C49.01,58.411,49.028,58.31,49.062,58.207z M49.031,66.069v-4.026
						c2.654,1.723,7.163,2.632,11.513,2.633c4.35-0.001,8.859-0.911,11.513-2.633v4.026c0,1.555-4.48,3.812-11.504,3.816v0.001
						c-0.003,0-0.006,0-0.009,0c-0.003,0-0.006,0-0.009,0v-0.001C53.512,69.881,49.031,67.624,49.031,66.069z M19.525,69.338
						c0.031-0.09,0.077-0.184,0.135-0.277c0.02-0.032,0.049-0.065,0.072-0.097c0.043-0.061,0.088-0.123,0.142-0.186
						c0.036-0.04,0.078-0.081,0.117-0.121c0.054-0.054,0.11-0.108,0.171-0.162c0.05-0.045,0.108-0.09,0.166-0.137
						c0.061-0.049,0.123-0.095,0.191-0.146c0.07-0.05,0.144-0.101,0.222-0.15c0.063-0.041,0.132-0.083,0.198-0.124
						c0.09-0.056,0.186-0.11,0.285-0.164c0.061-0.034,0.124-0.067,0.187-0.099c0.117-0.061,0.236-0.121,0.364-0.18
						c0.043-0.022,0.092-0.041,0.139-0.061c1.274-0.573,3.008-1.066,5.121-1.351c0.007-0.002,0.015-0.002,0.022-0.002
						c0.303-0.04,0.613-0.078,0.931-0.108c0.013-0.002,0.023-0.002,0.038-0.003c0.319-0.033,0.645-0.058,0.978-0.079
						c0.002,0,0.002,0,0.004,0c0.639-0.042,1.301-0.067,1.99-0.067c0.726,0,1.425,0.024,2.097,0.07
						c1.122,0.076,2.154,0.211,3.102,0.387c0.067,0.013,0.132,0.025,0.196,0.038c0.749,0.146,1.438,0.319,2.064,0.512
						c0.063,0.02,0.126,0.04,0.189,0.06c0.303,0.097,0.596,0.198,0.865,0.303c0.003,0.002,0.007,0.002,0.011,0.003
						c0.261,0.103,0.503,0.209,0.733,0.317c0.058,0.027,0.112,0.052,0.168,0.079c0.223,0.11,0.438,0.222,0.627,0.335
						c0.004,0.003,0.009,0.007,0.016,0.011c0.184,0.11,0.346,0.222,0.494,0.335c0.04,0.031,0.079,0.06,0.117,0.09
						c0.144,0.115,0.279,0.231,0.387,0.346c0.301,0.323,0.461,0.638,0.461,0.931c0,1.556-4.489,3.817-11.523,3.817
						c-0.521,0-1.021-0.016-1.511-0.04c-0.148-0.007-0.29-0.018-0.434-0.027c-0.351-0.022-0.697-0.049-1.032-0.081
						c-0.141-0.013-0.277-0.027-0.413-0.042c-0.394-0.043-0.778-0.095-1.147-0.155c-0.051-0.007-0.103-0.013-0.15-0.022
						c-0.434-0.072-0.848-0.153-1.247-0.241c-0.058-0.012-0.112-0.027-0.169-0.04c-0.342-0.079-0.668-0.162-0.978-0.252
						c-0.061-0.018-0.123-0.036-0.184-0.054c-1.668-0.494-2.893-1.121-3.588-1.744c-0.027-0.025-0.052-0.049-0.076-0.072
						c-0.063-0.059-0.124-0.119-0.177-0.178c-0.07-0.078-0.133-0.157-0.186-0.232c-0.023-0.034-0.04-0.069-0.06-0.101
						c-0.036-0.063-0.068-0.126-0.092-0.187c-0.013-0.029-0.024-0.058-0.033-0.088c-0.027-0.088-0.045-0.178-0.045-0.263
						C19.475,69.54,19.493,69.441,19.525,69.338z M19.514,77.199v-4.028c2.653,1.723,7.159,2.631,11.504,2.635
						c4.345-0.004,8.85-0.912,11.504-2.635v4.028c0,1.554-4.473,3.807-11.486,3.816v0.001c-0.006,0-0.012-0.001-0.018-0.001
						c-0.006,0-0.012,0.001-0.018,0.001v-0.001C23.987,81.007,19.514,78.753,19.514,77.199z M17.122,72.876v4.321
						c0,4.01,7.15,6.172,13.874,6.172c6.728,0,13.876-2.162,13.876-6.17v-7.562c0-0.25-0.027-0.494-0.081-0.73
						c-0.11-0.472-0.321-0.913-0.623-1.328c-0.15-0.207-0.324-0.405-0.519-0.598c-0.139-0.137-0.288-0.268-0.449-0.4
						c-0.06-0.049-0.128-0.096-0.191-0.144c-0.103-0.078-0.204-0.155-0.312-0.227c-0.087-0.061-0.18-0.117-0.27-0.175
						c-0.092-0.06-0.184-0.115-0.279-0.173c-0.11-0.065-0.225-0.126-0.339-0.187c-0.083-0.043-0.168-0.088-0.254-0.133
						c-0.132-0.067-0.267-0.13-0.405-0.193c-0.074-0.034-0.148-0.067-0.222-0.099c-0.155-0.068-0.313-0.135-0.476-0.198
						c-0.06-0.023-0.119-0.045-0.18-0.07c-0.18-0.068-0.362-0.135-0.548-0.2c-0.041-0.014-0.085-0.027-0.126-0.042
						c-0.159-0.052-0.321-0.104-0.485-0.153l7.54-2.841v4.321c0,4.008,7.15,6.17,13.876,6.17c6.726,0,13.876-2.163,13.876-6.17
						v-7.562c0-0.25-0.029-0.494-0.081-0.73c-0.11-0.472-0.321-0.913-0.623-1.328c-0.15-0.207-0.324-0.405-0.519-0.598
						c-0.137-0.137-0.288-0.268-0.447-0.398c-0.059-0.049-0.128-0.096-0.191-0.144c-0.103-0.078-0.204-0.155-0.312-0.229
						c-0.088-0.059-0.18-0.117-0.27-0.175c-0.092-0.058-0.184-0.115-0.281-0.173c-0.108-0.065-0.223-0.126-0.339-0.187
						c-0.083-0.045-0.168-0.088-0.252-0.133c-0.132-0.067-0.267-0.13-0.405-0.193c-0.074-0.034-0.148-0.068-0.222-0.101
						c-0.155-0.068-0.313-0.135-0.476-0.198c-0.059-0.023-0.121-0.047-0.18-0.07c-0.18-0.068-0.362-0.135-0.548-0.198
						c-0.042-0.014-0.083-0.029-0.126-0.041c-0.159-0.052-0.321-0.105-0.485-0.153l7.541-2.843v0.002v4.321
						c0,4.006,7.15,6.17,13.872,6.17c6.728,0,13.876-2.164,13.876-6.17v-7.56c0-0.25-0.027-0.494-0.081-0.731
						c-0.11-0.472-0.321-0.913-0.623-1.326c-0.15-0.207-0.324-0.405-0.517-0.598c-0.139-0.137-0.288-0.268-0.449-0.398
						c-0.06-0.049-0.126-0.096-0.189-0.144c-0.103-0.078-0.202-0.155-0.312-0.229c-0.088-0.06-0.18-0.115-0.27-0.175
						c-0.094-0.058-0.184-0.115-0.279-0.173c-0.11-0.065-0.225-0.126-0.339-0.187c-0.083-0.043-0.168-0.088-0.254-0.133
						c-0.13-0.067-0.267-0.13-0.405-0.193c-0.072-0.034-0.148-0.067-0.222-0.099c-0.157-0.069-0.313-0.135-0.476-0.198
						c-0.059-0.024-0.119-0.047-0.18-0.07c-0.182-0.069-0.362-0.135-0.549-0.2c-0.041-0.014-0.085-0.027-0.126-0.041
						c-0.157-0.052-0.321-0.105-0.483-0.153l7.54-2.841v4.321c0,4.008,7.148,6.17,13.872,6.17c6.728,0,13.876-2.164,13.876-6.17
						v-4.021l7.577,2.898c-2.5,0.802-4.446,1.996-5.184,3.56c-0.207,0.443-0.319,0.915-0.319,1.416v0.726v2.515v4.321
						c0,4.008,7.15,6.17,13.874,6.17c6.726,0,13.876-2.164,13.876-6.17v-4.022l12.346,4.727L60.82,99.199L5.835,78.152l-1.348-0.515
						L17.122,72.876z M177.785,103.494l-116.97,43.511l-57.681-22.29V79.527l57.687,22.686l63.677-24.495l53.288-20.08V103.494z"/>
				</g>
			</g>
		</g>
	</g>
	<path fill="#3D3D3D" stroke="#3D3D3D" stroke-width="0.65" stroke-miterlimit="10" d="M31,81.015c0.006,0,0.012,0.001,0.018,0.001
		c0.006,0,0.012-0.001,0.018-0.001"/>
	<path fill="#3D3D3D" stroke="#3D3D3D" stroke-width="0.65" stroke-miterlimit="10" d="M31.035,75.807c-0.006,0-0.012,0-0.018,0
		c-0.006,0-0.012,0-0.018,0"/>
</g>
</svg>
