<?xml version="1.0" encoding="utf-8"?>
<!-- Generator: Adobe Illustrator 17.0.2, SVG Export Plug-In . SVG Version: 6.00 Build 0)  -->
<!DOCTYPE svg PUBLIC "-//W3C//DTD SVG 1.1//EN" "http://www.w3.org/Graphics/SVG/1.1/DTD/svg11.dtd">
<svg version="1.1" id="Calque_1" xmlns="http://www.w3.org/2000/svg" xmlns:xlink="http://www.w3.org/1999/xlink" x="0px" y="0px"
	 width="500px" height="500px" viewBox="0 0 500 500" enable-background="new 0 0 500 500" xml:space="preserve">
<g>
	<g>
		<path fill="#FFFFFF" d="M379.432,463.451c-0.201-0.357-24.951-42.316-57.651-75.129l-0.609-0.611l-0.856-0.105
			c-18.666-2.29-36.413-9.274-51.322-20.198l-1.3-0.952l-1.403,0.79c-13.496,7.593-28.417,11.442-44.346,11.442
			c-25.318,0-49.371-10.438-65.992-28.64l-1.289-1.411l-1.7,0.873c-12.725,6.536-26.646,9.85-41.377,9.85
			c-22.86,0-45.26-8.745-61.457-23.994l-0.262-0.246l-0.32-0.162c-28.16-14.306-45.654-41.92-45.654-72.065
			c0-10.329,2.169-20.886,6.271-30.53l0.417-0.979l-0.417-0.979c-4.103-9.625-6.271-20.183-6.271-30.533
			c0-34.828,23.35-65.872,58.104-77.248l1.244-0.407l0.374-1.255c5.13-17.216,15.807-32.026,30.875-42.829
			c15.206-10.9,33.44-16.662,52.732-16.662c3.613,0,7.283,0.218,10.909,0.649l1.358,0.162l0.868-1.057
			c16.402-19.956,42.12-31.87,68.793-31.87c23.239,0,45.029,8.492,61.358,23.912l1.083,1.022l1.414-0.465
			c13.172-4.328,26.992-6.522,41.077-6.522c58.52,0,108.514,37.307,121.576,90.724l0.242,0.989l0.863,0.539
			c24.381,15.213,38.937,40.732,38.937,68.262c0,19.409-7.384,38.268-20.79,53.103l-0.903,0.999l0.338,1.304
			c1.643,6.345,2.476,12.899,2.476,19.481c0,29.516-16.994,56.869-44.35,71.387l-0.657,0.349l-0.359,0.651
			c-6.364,11.535-16.657,21.031-28.983,26.74l-2.057,0.952l22.874,65.561l-37.108,26.604L379.432,463.451z M335.055,367.235
			c20.781,20.035,38.609,43.696,49.906,60.018l10.485,15.148l-26.8-76.815l13.79-2.687c13.198-2.582,24.09-10.977,29.137-22.457
			l1.869-4.255l4.222-1.931c21.47-9.793,34.814-29.549,34.826-51.556c0-6.759-1.268-13.382-3.767-19.686l-0.747-1.847
			l-15.478-15.484c-0.588-0.586-0.52-0.824-0.494-0.913c0.839-2.933,12.075-7.414,22.547-9.99l5.708,5.708l1.697-2.509
			c6.134-9.071,9.376-19.502,9.376-30.166c0-20.693-12.209-39.896-31.862-50.115l-5.292-2.752l-1.062-5.877
			c-8.128-44.868-49.786-77.433-99.054-77.433c-13.963,0-27.566,2.66-40.433,7.905l-0.426,0.173l-21.729,20.274
			c-2.539-3.365-8.012-12.439-12.962-21.201l11.735-10.949l-2.446-1.783c-11.103-8.09-24.47-12.366-38.657-12.366
			c-22.09,0-42.774,10.909-53.979,28.47l-4.603,7.209l-8.343-1.885c-4.927-1.117-9.978-1.684-15.009-1.684
			c-30.903,0-56.873,20.339-61.75,48.363l-1.399,8.037l-7.966,1.762c-28.19,6.226-47.878,29.214-47.878,55.902
			c0,9.012,2.219,17.653,6.595,25.684l3.168,5.818l-3.178,5.825c-4.395,8.07-6.622,16.712-6.622,25.69
			c0,21.625,12.993,41.224,33.907,51.147l1.75,0.858l1.39,1.527c11.825,11.819,28.477,18.598,45.685,18.598
			c12.438,0,21.732-3.379,31.86-8.453l18.404-8.958l10.538,11.539c11.276,15.787,30.284,25.206,50.88,25.206
			c14.229,0,27.228-4.312,38.636-12.813l8.03-5.973l0.147,0.139l23.636-18.399c1.986-1.569,4.004-2.359,6.01-2.359
			c5.063,0,9.046,4.823,10.604,9.304c0.619,1.781,2.296,7.863-2.122,11.358l-19.675,15.261l3.239,1.856
			c11.072,6.347,23.66,10.2,36.402,11.143l4.383,0.323L335.055,367.235z"/>
	</g>
	<g>
		<path fill="#FFD334" d="M229.151,31.853c22.598,0,43.779,8.25,59.642,23.229l2.165,2.044l2.829-0.929
			c12.92-4.245,26.478-6.397,40.297-6.397c27.76,0,54.912,8.891,76.453,25.036c21.395,16.035,36.558,38.687,42.695,63.782
			l0.483,1.977l1.727,1.077c23.644,14.754,37.76,39.479,37.76,66.142c0,18.788-7.154,37.052-20.145,51.426l-1.806,1.998l0.675,2.607
			c1.59,6.139,2.396,12.482,2.396,18.854c0,13.965-4.018,27.802-11.619,40.015c-7.599,12.209-18.457,22.293-31.403,29.163
			l-1.315,0.698l-0.719,1.303c-6.109,11.073-15.998,20.192-27.844,25.679l-4.113,1.905l1.493,4.279l21.511,61.656l-33.364,23.918
			l-5.362-9.132l-0.001,0c-1.262-2.151-25.698-43.179-58.034-75.628l-1.219-1.223l-1.714-0.21
			c-18.242-2.238-35.583-9.061-50.149-19.733l-2.599-1.904l-2.808,1.58c-13.118,7.38-27.625,11.121-43.119,11.121
			c-24.617,0-47.998-10.142-64.147-27.826l-2.577-2.822l-3.399,1.746c-12.369,6.352-25.906,9.573-40.235,9.573
			c-22.23,0-44.006-8.498-59.743-23.314l-0.523-0.492l-0.64-0.325c-13.475-6.845-24.697-16.933-32.453-29.174
			c-7.741-12.218-11.833-26.278-11.833-40.663c0-9.995,2.1-20.213,6.072-29.551l0.834-1.959l-0.835-1.959
			c-3.972-9.319-6.071-19.538-6.071-29.553c0-16.68,5.37-32.607,15.531-46.059c10.135-13.419,24.261-23.382,40.85-28.813
			l2.488-0.815l0.748-2.509c4.97-16.68,15.322-31.034,29.936-41.511c14.778-10.594,32.509-16.194,51.276-16.194
			c3.516,0,7.087,0.213,10.613,0.632l2.716,0.323l1.737-2.113C178.222,43.426,203.217,31.853,229.151,31.853 M169.402,86.544
			l-6.627-1.498c-5.109-1.158-10.345-1.746-15.563-1.746c-32.122,0-59.127,21.21-64.213,50.434l-1.111,6.387l-6.33,1.4
			c-29.345,6.481-49.839,30.472-49.839,58.344c0,9.435,2.321,18.479,6.899,26.878l2.517,4.622l-2.527,4.632
			c-4.595,8.439-6.925,17.484-6.925,26.884c0,22.59,13.525,43.044,35.302,53.391l1.326,0.65l0.985,1.085l0.082,0.09l0.086,0.086
			c12.29,12.285,29.586,19.33,47.452,19.33c9.344,0,18.525-1.481,32.953-8.706l16.724-8.14l9.178,10.051
			c11.756,16.368,31.478,26.129,52.826,26.129c14.779,0,28.28-4.478,40.125-13.306l6.339-4.714l0.181,0.172l3.4-2.647l21.967-17.101
			c1.52-1.201,3.016-1.81,4.447-1.81c3.671,0,6.925,3.836,8.242,7.624c0.482,1.387,1.813,6.105-1.274,8.547l-16.743,12.987
			l-5.899,4.576l6.477,3.713c11.394,6.532,24.348,10.498,37.463,11.468l3.482,0.257l2.517,2.422
			c20.635,19.893,38.355,43.414,49.587,59.642l20.97,30.298l-12.137-34.791l-19.78-56.696l10.961-2.135
			c13.999-2.738,25.566-11.674,30.944-23.906l1.485-3.382l3.353-1.532c22.372-10.206,36.278-30.832,36.289-53.833
			c0-7.074-1.326-14.007-3.954-20.635l-0.549-1.36l-0.381-0.943l-0.719-0.719l-14.199-14.204c2.752-2.121,10.536-5.18,18.602-7.284
			l2.561,2.561l4.284,4.284l3.394-5.019c6.414-9.486,9.805-20.401,9.805-31.567c0-21.629-12.725-41.682-33.209-52.333l-4.204-2.186
			l-0.844-4.672c-8.343-46.057-51.036-79.486-101.514-79.486c-14.288,0-28.21,2.722-41.377,8.09l-0.851,0.347l-0.672,0.627
			l-19.288,17.996c-2.569-3.864-6.535-10.484-10.212-16.928l8.078-7.537l4.428-4.131l-4.894-3.566
			c-11.533-8.403-25.41-12.845-40.129-12.845c-22.936,0-44.427,11.352-56.086,29.624L169.402,86.544 M229.151,26.853
			c-27.678,0-53.931,12.35-70.725,32.783c-3.724-0.443-7.469-0.667-11.203-0.667c-40.567,0-75.27,25.255-86.004,61.277
			C25.56,131.919,1.393,163.502,1.393,199.87c0,10.782,2.219,21.537,6.471,31.513c-4.247,9.982-6.471,20.737-6.471,31.508
			c0,31.279,17.952,59.527,47.022,74.294c16.688,15.711,39.558,24.674,63.171,24.674c15.082,0,29.545-3.462,42.519-10.126
			c16.837,18.437,41.698,29.454,67.839,29.454c16.298,0,31.839-4.039,45.571-11.764c15.205,11.139,33.359,18.315,52.496,20.662
			c32.26,32.372,57.02,74.193,57.265,74.63l8.136,13.855l40.855-29.289l-22.743-65.187c12.809-5.932,23.41-15.637,30.121-27.8
			c27.907-14.81,45.677-43.159,45.677-73.595c0-6.823-0.859-13.556-2.555-20.107c13.721-15.183,21.436-34.677,21.436-54.779
			c0-28.451-15.199-54.838-40.113-70.384C444.863,83.35,393.84,44.8,334.083,44.8c-14.378,0-28.414,2.23-41.858,6.647
			C275.554,35.704,253.11,26.853,229.151,26.853L229.151,26.853z M171.726,92.195l5.548-8.691
			c10.75-16.848,30.628-27.315,51.871-27.315c13.764,0,26.707,4.252,37.184,11.886l-10.91,10.179l-0.187-0.203
			c0,0,14.16,25.336,16.185,25.336c0.051,0,0.094-0.016,0.129-0.048l23.025-21.484c12.51-5.1,25.789-7.72,39.489-7.72
			c48.062,0,88.682,31.7,96.594,75.377l1.28,7.085l6.381,3.318c18.816,9.784,30.516,28.136,30.516,47.897
			c0,10.35-3.153,20.198-8.947,28.766l-4.555-4.555c-0.427,0.099-32.481,7.558-24.6,15.427l15.119,15.124l0.549,1.36
			c2.379,6.002,3.59,12.324,3.59,18.763c-0.011,21.014-12.793,39.9-33.365,49.284l-5.09,2.326l-2.251,5.127
			c-4.721,10.739-14.943,18.587-27.325,21.009l-16.624,3.238l21.681,62.146c-11.849-17.12-29.593-40.503-50.228-60.397l-3.82-3.676
			l-5.282-0.389c-12.617-0.934-24.717-4.727-35.344-10.819l16.743-12.987c9.025-7.139,1.018-25.122-10.032-25.122
			c-2.419,0-4.983,0.861-7.546,2.887l-21.939,17.079l-0.112-0.107l-9.72,7.229c-10.809,8.056-23.218,12.318-37.142,12.318
			c-19.883,0-38.262-9.256-48.932-24.279l-11.9-13.032l-20.11,9.788c-10.67,5.346-19.462,8.189-30.74,8.189
			c-16.762,0-32.564-6.519-43.917-17.867l-1.627-1.793l-2.209-1.083c-20.059-9.517-32.479-28.254-32.479-48.889
			c0-8.584,2.139-16.821,6.317-24.493l3.83-7.021l-3.82-7.015c-4.172-7.656-6.29-15.893-6.29-24.487
			c0-25.506,18.886-47.491,45.918-53.461l9.603-2.123l1.686-9.688c4.668-26.824,29.598-46.291,59.287-46.291
			c4.839,0,9.704,0.544,14.458,1.622L171.726,92.195L171.726,92.195z M455.335,232.024h-0.005l0.001,0.001
			C455.334,232.024,455.335,232.024,455.335,232.024L455.335,232.024z"/>
	</g>
</g>
<path fill="none" stroke="#FFFFFF" stroke-width="7" stroke-miterlimit="10" d="M361.078,165.236l-10.246-2.015
	c-1.162-4.781-3.046-9.327-5.626-13.553l5.826-8.679c0.629-0.928,0.504-2.173-0.288-2.965l-9.915-9.915
	c-0.453-0.453-1.053-0.685-1.659-0.685c-0.453,0-0.906,0.132-1.306,0.397l-8.679,5.826c-4.22-2.578-8.769-4.464-13.55-5.624
	l-2.015-10.246c-0.217-1.101-1.182-1.893-2.3-1.893h-14.025c-1.121,0-2.086,0.792-2.3,1.893l-2.018,10.246
	c-4.778,1.16-9.323,3.046-13.545,5.624l-8.684-5.826c-0.395-0.266-0.853-0.397-1.304-0.397c-0.604,0-1.209,0.234-1.662,0.685
	l-9.912,9.915c-0.794,0.792-0.914,2.037-0.29,2.965l5.826,8.679c-2.576,4.225-4.464,8.772-5.621,13.553l-10.246,2.015
	c-1.099,0.214-1.893,1.179-1.893,2.3v14.023c0,1.121,0.794,2.083,1.893,2.3l10.246,2.015c1.157,4.778,3.046,9.325,5.621,13.55
	l-5.826,8.679c-0.624,0.933-0.504,2.176,0.29,2.968l9.912,9.917c0.453,0.453,1.057,0.685,1.662,0.685c0.453,0,0.909-0.129,1.304-0.4
	l8.684-5.826c4.22,2.58,8.767,4.464,13.545,5.626l2.018,10.241c0.214,1.104,1.179,1.893,2.3,1.893h14.023
	c1.118,0,2.083-0.789,2.3-1.893l2.015-10.241c4.778-1.162,9.327-3.046,13.55-5.626l8.679,5.826c0.4,0.266,0.855,0.4,1.306,0.4
	c0.607,0,1.206-0.234,1.659-0.685l9.915-9.917c0.792-0.792,0.916-2.035,0.288-2.968l-5.826-8.679
	c2.58-4.225,4.464-8.772,5.626-13.55l10.246-2.015c1.099-0.217,1.891-1.179,1.891-2.3v-14.023
	C362.969,166.416,362.177,165.451,361.078,165.236z M304.307,207.393c-18.114,0-32.843-14.734-32.843-32.843
	s14.732-32.843,32.843-32.843c18.109,0,32.843,14.734,32.843,32.843S322.416,207.393,304.307,207.393z"/>
<path fill="none" stroke="#FFFFFF" stroke-width="7" stroke-miterlimit="10" d="M270.635,266.578l-6.827-4.539
	c0.434-3.421,0.436-6.871,0.002-10.285l6.825-4.539c0.931-0.624,1.296-1.818,0.867-2.851l-5.368-12.953
	c-0.366-0.889-1.233-1.452-2.166-1.452c-0.151,0-0.309,0.019-0.461,0.049l-8.034,1.618c-2.113-2.727-4.554-5.163-7.276-7.276
	l1.613-8.038c0.224-1.094-0.365-2.198-1.404-2.627l-12.948-5.368c-0.295-0.119-0.595-0.178-0.899-0.178
	c-0.765,0-1.508,0.375-1.954,1.048l-4.542,6.825c-1.706-0.214-3.431-0.324-5.149-0.324c-1.708,0-3.431,0.11-5.134,0.324
	l-4.539-6.825c-0.446-0.668-1.184-1.048-1.952-1.048c-0.305,0-0.607,0.058-0.899,0.178l-12.953,5.368
	c-1.038,0.429-1.623,1.533-1.403,2.627l1.618,8.038c-2.722,2.108-5.158,4.549-7.276,7.276l-8.034-1.618
	c-0.156-0.029-0.309-0.049-0.465-0.049c-0.931,0-1.793,0.56-2.166,1.452l-5.363,12.953c-0.429,1.033-0.066,2.227,0.865,2.851
	l6.825,4.539c-0.431,3.416-0.434,6.866,0,10.285l-6.825,4.539c-0.933,0.624-1.294,1.818-0.865,2.851l5.363,12.953
	c0.37,0.889,1.235,1.452,2.166,1.452c0.156,0,0.309-0.02,0.465-0.049l8.034-1.618c2.113,2.722,4.549,5.163,7.276,7.276l-1.618,8.034
	c-0.219,1.099,0.365,2.203,1.404,2.632l12.953,5.368c0.292,0.119,0.595,0.175,0.899,0.175c0.765,0,1.506-0.375,1.952-1.048
	l4.539-6.825c1.708,0.214,3.436,0.324,5.149,0.324s3.436-0.11,5.139-0.324l4.537,6.825c0.446,0.67,1.187,1.048,1.954,1.048
	c0.305,0,0.604-0.056,0.899-0.175l12.953-5.368c1.033-0.429,1.623-1.533,1.399-2.632l-1.613-8.034
	c2.722-2.108,5.158-4.549,7.271-7.276l8.038,1.618c0.151,0.029,0.309,0.049,0.461,0.049c0.933,0,1.798-0.56,2.166-1.452
	l5.368-12.953C271.931,268.396,271.564,267.202,270.635,266.578z M222.914,218.031c0.334,0,0.665,0.01,0.999,0.019
	c-0.339-0.01-0.68-0.019-1.019-0.019H222.914z M222.928,295.762c-0.344,0-0.685-0.01-1.033-0.02c0.353,0.01,0.704,0.02,1.057,0.02
	H222.928z M247.409,267.041c-4.118,9.941-13.735,16.367-24.498,16.367c-3.484,0-6.891-0.675-10.136-2.022
	c-13.501-5.592-19.937-21.126-14.344-34.632c4.12-9.941,13.735-16.367,24.5-16.367c3.48,0,6.891,0.68,10.132,2.022
	c6.545,2.707,11.635,7.805,14.349,14.344C250.121,253.296,250.121,260.497,247.409,267.041z"/>
</svg>
