<?xml version="1.0" encoding="utf-8"?>
<!-- Generator: Adobe Illustrator 17.0.2, SVG Export Plug-In . SVG Version: 6.00 Build 0)  -->
<!DOCTYPE svg PUBLIC "-//W3C//DTD SVG 1.1//EN" "http://www.w3.org/Graphics/SVG/1.1/DTD/svg11.dtd">
<svg version="1.1" id="Calque_1" xmlns="http://www.w3.org/2000/svg" xmlns:xlink="http://www.w3.org/1999/xlink" x="0px" y="0px"
	 width="160px" height="290px" viewBox="0 0 160 290" enable-background="new 0 0 160 290" xml:space="preserve">
<g>
	<path fill="#6FAADA" stroke="#3C3C3C" stroke-miterlimit="10" d="M123.29,229.974"/>
	<path fill="#FFFFFF" stroke="#3C3C3C" stroke-width="2" stroke-miterlimit="10" d="M150.002,253.211
		c0-19.535-38.369-33.285-58.528-39.161L79.53,230.655L65.305,214.06c-20.541,5.38-56.247,17.803-56.247,39.152
		c0,6.909,0,6.949,0,6.949c0,14.753,11.959,26.712,26.712,26.712h85.783c14.753,0,28.449-11.959,28.449-26.712
		C150.002,260.161,150.002,260.989,150.002,253.211z"/>
	<path fill="#F9E4E6" stroke="#3C3C3C" stroke-width="2" stroke-miterlimit="10" d="M93.321,215.749
		c0,7.736-14.008,41.805-14.008,41.805s-14.008-34.069-14.008-41.805v-19.98c0-7.736,6.271-14.008,14.008-14.008l0,0
		c7.736,0,14.008,6.271,14.008,14.008V215.749z"/>
	<path fill="#F9E4E6" stroke="#3C3C3C" stroke-width="2" stroke-miterlimit="10" d="M23.027,143.88L23.027,143.88
		c-7.83,0-16.021-6.347-16.021-14.177v-16.29c0-7.83,8.191-14.177,16.021-14.177"/>
	<path fill="#F9E4E6" stroke="#3C3C3C" stroke-width="2" stroke-miterlimit="10" d="M135.599,99.236L135.599,99.236
		c7.83,0,16.021,6.347,16.021,14.177v16.29c0,7.83-8.191,14.177-16.021,14.177"/>
	<g id="face_2_">
		<path fill="#F9E4E6" d="M79.659,204.361c-34.867,0-61.42-39.563-61.42-59.362c0-26.44-2.801-84.218-3.136-91.028l55.107-27.326
			l74.31,23.964c-0.368,7.91-3.44,74.558-3.44,94.39C141.079,164.798,114.525,204.361,79.659,204.361z"/>
		<g>
			<path fill="#3C3C3C" d="M70.29,27.722l73.195,23.604c-0.496,10.705-3.406,74.354-3.406,93.673
				c0,9.797-7.034,24.678-17.106,36.188c-7.247,8.281-22.51,22.174-43.314,22.174c-20.805,0-36.068-13.893-43.314-22.174
				c-10.072-11.51-17.106-26.391-17.106-36.188c0-25.756-2.655-81.196-3.105-90.423L70.29,27.722 M70.13,25.569L14.071,53.366
				c0,0,3.167,63.355,3.167,91.632c0,19.53,26.128,60.362,62.42,60.362s62.42-40.832,62.42-60.362
				c0-21.208,3.475-95.107,3.475-95.107L70.13,25.569L70.13,25.569z"/>
		</g>
	</g>
	<circle fill="#3D3D3D" cx="44.901" cy="111.543" r="6.224"/>
	<circle fill="#3D3D3D" cx="112.572" cy="111.543" r="6.224"/>
	<path fill="none" stroke="#3C3C3C" stroke-width="3" stroke-miterlimit="10" d="M31.885,86.54
		c5.718-1.989,4.818-1.844,11.295-1.844c6.24,0,5.757-0.004,13.033,0.107"/>
	<path fill="none" stroke="#3C3C3C" stroke-width="3" stroke-miterlimit="10" d="M98.033,86.54c0,0,7.039-0.107,13.033-0.107
		s11.295,1.844,11.295,1.844"/>
	<path fill="#F3CED3" d="M55.652,138.561c0,4.798-3.889,8.687-8.687,8.687h-7.875c-4.798,0-8.687-3.889-8.687-8.687l0,0
		c0-4.798,3.889-8.687,8.687-8.687h7.875C51.763,129.874,55.652,133.764,55.652,138.561L55.652,138.561z"/>
	<path fill="#F3CED3" d="M127.659,138.561c0,4.798-3.889,8.687-8.687,8.687h-7.875c-4.798,0-8.687-3.889-8.687-8.687l0,0
		c0-4.798,3.889-8.687,8.687-8.687h7.875C123.77,129.874,127.659,133.764,127.659,138.561L127.659,138.561z"/>
	<path fill="none" stroke="#3C3C3C" stroke-width="2" stroke-miterlimit="10" d="M63.556,171.479c0,0,0.364,3.768,7.487,3.108
		c2.107-0.195,4.806-2.059,8.261-2.059c3.045,0,5.475,1.836,7.414,1.992c7.7,0.623,7.659-3.042,7.659-3.042"/>
	<path fill="none" stroke="#3C3C3C" stroke-width="2" stroke-miterlimit="10" d="M69.96,147.675c0,0,1.829-2.165,9.345-2.165
		s9.345,2.165,9.345,2.165"/>
	<path fill="#5E3516" stroke="#3C3C3C" stroke-width="2" stroke-miterlimit="10" d="M20.068,107.853c0,0-5.14-30.231,13.375-46.629
		S72.06,38.477,72.06,38.477s2.266,10.43,19.723,14.132c17.457,3.703,24.712-0.379,24.712-0.379s12.696,5.819,19.044,20.631
		c6.348,14.812,6.498,34.084,6.498,34.084l8.314,1.136c0,0,3.174-48.974-5.819-63.256c-8.993-14.283-14.812-12.696-14.812-12.696
		s0.529-18.515-7.935-24.334s-13.754-5.819-13.754-5.819s1.587,3.703-3.174,7.406S50.9,7.795,38.204,17.846
		S24.451,40.064,24.451,40.064s-7.406,1.587-10.58,14.283s0,48.522,0,48.522L20.068,107.853z"/>
	<path fill="none" stroke="#3C3C3C" stroke-width="3" stroke-miterlimit="10" d="M19.753,116.458
		c0,11.349,10.732,20.549,22.081,20.549h9.445c20.804,0,23.602-41.098,12.253-41.098H38.771
		C27.422,95.909,19.753,105.109,19.753,116.458L19.753,116.458z"/>
	<path fill="none" stroke="#3C3C3C" stroke-width="3" stroke-miterlimit="10" d="M142.264,117.209c0,11.764-11.124,21.3-22.888,21.3
		h-9.79c-21.565,0-27.64-42.6-15.876-42.6h28.841C134.315,95.909,142.264,105.445,142.264,117.209L142.264,117.209z"/>
	<path fill="none" stroke="#3C3C3C" stroke-width="3" stroke-miterlimit="10" d="M69.18,105.116c0,0,4.005-1.737,9.669-1.737
		c5.665,0,9.669,1.737,9.669,1.737"/>
</g>
</svg>
