<?xml version="1.0" encoding="utf-8"?>
<!-- Generator: Adobe Illustrator 17.0.2, SVG Export Plug-In . SVG Version: 6.00 Build 0)  -->
<!DOCTYPE svg PUBLIC "-//W3C//DTD SVG 1.1//EN" "http://www.w3.org/Graphics/SVG/1.1/DTD/svg11.dtd">
<svg version="1.1" id="Calque_1" xmlns="http://www.w3.org/2000/svg" xmlns:xlink="http://www.w3.org/1999/xlink" x="0px" y="0px"
	 width="160px" height="290px" viewBox="0 0 160 290" enable-background="new 0 0 160 290" xml:space="preserve">
<g>
	<path fill="#6FAADA" stroke="#3C3C3C" stroke-miterlimit="10" d="M117.117,229.504"/>
	<path fill="#36AFCC" stroke="#3C3C3C" stroke-width="2" stroke-miterlimit="10" d="M143.579,252.525
		c0-19.352-38.011-32.974-57.981-38.795l-11.832,16.449l-14.092-16.44c-20.349,5.33-55.721,17.636-55.721,38.786
		c0,6.845,0,6.885,0,6.885c0,14.615,11.848,26.462,26.462,26.462h84.981c14.615,0,28.184-11.848,28.184-26.462
		C143.579,259.409,143.579,260.23,143.579,252.525z"/>
	<path fill="#F4D7DB" stroke="#3C3C3C" stroke-width="2" stroke-miterlimit="10" d="M87.427,215.413
		c0,7.664-13.877,27.646-13.877,27.646s-13.877-19.982-13.877-27.646v-19.793c0-7.664,6.213-13.877,13.877-13.877l0,0
		c7.664,0,13.877,6.213,13.877,13.877V215.413z"/>
	<path fill="#F4D7DB" stroke="#3C3C3C" stroke-width="2" stroke-miterlimit="10" d="M17.79,144.215L17.79,144.215
		c-7.757,0-15.871-6.288-15.871-14.045v-16.138c0-7.757,8.115-14.045,15.871-14.045"/>
	<path fill="#F4D7DB" stroke="#3C3C3C" stroke-width="2" stroke-miterlimit="10" d="M129.31,99.988L129.31,99.988
		c7.757,0,15.871,6.288,15.871,14.045v16.138c0,7.757-8.115,14.045-15.871,14.045"/>
	<g id="face_16_">
		<path fill="#F4D7DB" d="M73.893,204.121c-32.676,0-60.837-39.437-60.837-58.798c0-26.232-2.783-83.602-3.108-90.208l51.168-28.74
			l77.022,25.441c-0.365,7.843-3.408,73.861-3.408,93.507C134.729,164.685,106.569,204.121,73.893,204.121z"/>
		<g>
			<path fill="#3C3C3C" d="M61.221,27.463l75.883,25.064c-0.492,10.611-3.374,73.658-3.374,92.795
				c0,9.405-7.343,24.133-17.857,35.817c-17.211,19.126-33.689,21.982-41.979,21.982s-24.768-2.856-41.979-21.982
				c-10.514-11.684-17.857-26.412-17.857-35.817c0-25.571-2.641-80.679-3.079-89.638L61.221,27.463 M61.011,25.288L8.918,54.547
				c0,0,3.138,62.763,3.138,90.776c0,19.348,28.377,59.798,61.837,59.798s61.837-40.45,61.837-59.798
				c0-21.01,3.442-94.218,3.442-94.218L61.011,25.288L61.011,25.288z"/>
		</g>
	</g>
	<path fill="none" stroke="#3C3C3C" stroke-width="2" stroke-miterlimit="10" d="M92.095,116.67c0,0,6.974-5.269,12.911-5.269
		c5.938,0,11.19,5.269,11.19,5.269"/>
	<path fill="none" stroke="#3C3C3C" stroke-width="2" stroke-miterlimit="10" d="M54.235,116.67c0,0-6.974-5.269-12.911-5.269
		s-11.19,5.269-11.19,5.269"/>
	<path fill="none" stroke="#3C3C3C" stroke-width="3" stroke-miterlimit="10" d="M26.566,90.853c5.665-1.97,4.773-1.827,11.19-1.827
		c6.182,0,5.703,3.439,12.911,3.548"/>
	<path fill="none" stroke="#3C3C3C" stroke-width="3" stroke-miterlimit="10" d="M92.095,92.575c0,0,6.974-3.548,12.911-3.548
		c5.938,0,11.19,1.827,11.19,1.827"/>
	<path fill="#F1C9D1" d="M50.111,138.946c0,4.753-3.853,8.606-8.606,8.606h-7.801c-4.753,0-8.606-3.853-8.606-8.606l0,0
		c0-4.753,3.853-8.606,8.606-8.606h7.801C46.258,130.34,50.111,134.193,50.111,138.946L50.111,138.946z"/>
	<path fill="#F1C9D1" d="M121.445,138.946c0,4.753-3.853,8.606-8.606,8.606h-7.801c-4.753,0-8.606-3.853-8.606-8.606l0,0
		c0-4.753,3.853-8.606,8.606-8.606h7.801C117.592,130.34,121.445,134.193,121.445,138.946L121.445,138.946z"/>
	<path fill="none" stroke="#3C3C3C" stroke-width="2" stroke-miterlimit="10" d="M56.22,168.113c0,0,4.595,4.482,17.322,4.482
		s16.654-4.482,16.654-4.482"/>
	<path fill="none" stroke="#3C3C3C" stroke-width="2" stroke-miterlimit="10" d="M66.006,149.696c0,0,0.09-5.587,7.536-5.587
		c7.446,0,7.536,5.587,7.536,5.587"/>
	<path fill="#DEAC46" stroke="#3D3D3D" stroke-width="2" stroke-miterlimit="10" d="M15.057,70.546l-2.151,41.634
		c0,0-8.62-7.841-9.212-4.264c-0.592,3.578-1.775-12.844-1.775-12.844s-2.313-28.109,3.868-41.576S20.225,33.96,30,25.657
		C46.972,11.241,80.857,9.52,80.857,9.52l-12.448,3.677c0,0-0.417,0.111,14.622-1.483s22.759-0.525,22.759-0.525l-4.697,5.378
		c0,0-6.315,1.251,7.231-0.072s20.468,4.781,20.468,4.781l-5.127,0.448c0,0-4.118-0.598,7.9,6.424s21.165,23.287,21.165,23.287
		l-11.569-7.795c0,0-2.726-2.387,6.561,6.448c5.114,4.866,10.06,15.936,10.06,15.936s0,0-7.171-4.781s3.831,18.214,3.831,18.214
		l-4.13-2.527c0,0-4.673,30.957-5.13,32.919c-0.457,1.962-10.216,3.976-10.216,3.976l-2.01-31.877c0,0-21.385-27.257-39.236-28.452
		s-15.717,0.577-27.271,1.373S15.057,70.546,15.057,70.546z"/>
</g>
</svg>
