<?xml version="1.0" encoding="utf-8"?>
<!-- Generator: Adobe Illustrator 17.0.2, SVG Export Plug-In . SVG Version: 6.00 Build 0)  -->
<!DOCTYPE svg PUBLIC "-//W3C//DTD SVG 1.1//EN" "http://www.w3.org/Graphics/SVG/1.1/DTD/svg11.dtd">
<svg version="1.1" id="Calque_1" xmlns="http://www.w3.org/2000/svg" xmlns:xlink="http://www.w3.org/1999/xlink" x="0px" y="0px"
	 width="180px" height="180px" viewBox="0 0 180 180" enable-background="new 0 0 180 180" xml:space="preserve">
<g>
	<g>
		<path fill="none" stroke="#FFD233" stroke-width="3" d="M89.826,46.035c-53.82,0-88.965,44.483-88.965,44.483
			S26.976,135,89.826,135s88.965-44.483,88.965-44.483S143.646,46.035,89.826,46.035z M89.826,126.103
			c-19.654,0-35.586-15.932-35.586-35.586s15.932-35.586,35.586-35.586s35.586,15.932,35.586,35.586
			C125.412,110.171,109.48,126.103,89.826,126.103z M89.826,72.725c-9.827,0-17.793,7.966-17.793,17.793s7.966,17.793,17.793,17.793
			s17.793-7.966,17.793-17.793C107.619,80.691,99.653,72.725,89.826,72.725z"/>
	</g>
</g>
</svg>
