<?xml version="1.0" encoding="utf-8"?>
<!-- Generator: Adobe Illustrator 17.0.2, SVG Export Plug-In . SVG Version: 6.00 Build 0)  -->
<!DOCTYPE svg PUBLIC "-//W3C//DTD SVG 1.1//EN" "http://www.w3.org/Graphics/SVG/1.1/DTD/svg11.dtd">
<svg version="1.1" id="Calque_1" xmlns="http://www.w3.org/2000/svg" xmlns:xlink="http://www.w3.org/1999/xlink" x="0px" y="0px"
	 width="160px" height="290px" viewBox="0 0 160 290" enable-background="new 0 0 160 290" xml:space="preserve">
<g>
	<path fill="#6FAADA" stroke="#3C3C3C" stroke-miterlimit="10" d="M120.398,231.896"/>
	<path fill="#D82331" stroke="#3C3C3C" stroke-width="2" stroke-miterlimit="10" d="M122.713,223.003
		c0,12.912-17.304,23.379-30.216,23.379H58.354c-12.912,0-28.507-10.467-28.507-23.379l0,0c0-12.912,15.595-23.379,28.507-23.379
		h34.143C105.409,199.624,122.713,210.091,122.713,223.003L122.713,223.003z"/>
	<path fill="#D82331" stroke="#3C3C3C" stroke-width="2" stroke-miterlimit="10" d="M146.677,254.756
		c0-19.218-37.747-32.745-57.579-38.526l-11.75,16.335l-13.994-16.326c-20.208,5.293-55.335,17.514-55.335,38.517
		c0,6.797,0,6.837,0,6.837c0,14.513,11.765,26.279,26.279,26.279h84.391c14.513,0,27.988-11.765,27.988-26.279
		C146.677,261.593,146.677,262.408,146.677,254.756z"/>
	<path fill="#D82331" stroke="#3C3C3C" stroke-width="2" stroke-miterlimit="10" d="M109.759,213.161
		c0,7.964,8.516,41.767-32.133,41.767S44.24,221.125,44.24,213.161"/>
	
		<line fill="#FFFFFF" stroke="#FFFFFF" stroke-width="2" stroke-miterlimit="10" x1="59.188" y1="242.075" x2="59.188" y2="274.198"/>
	
		<line fill="#FFFFFF" stroke="#FFFFFF" stroke-width="2" stroke-miterlimit="10" x1="93.372" y1="242.075" x2="93.372" y2="274.198"/>
	<path fill="#F9E4E6" stroke="#3C3C3C" stroke-width="2" stroke-miterlimit="10" d="M90.915,217.902
		c0,7.611,1.167,20.617-13.78,20.617s-13.78-13.006-13.78-20.617v-19.656c0-7.611,6.17-13.78,13.78-13.78l0,0
		c7.611,0,13.78,6.17,13.78,13.78V217.902z"/>
	<path fill="#F9E4E6" stroke="#3C3C3C" stroke-width="2" stroke-miterlimit="10" d="M21.761,147.198L21.761,147.198
		C14.059,147.198,6,140.954,6,133.251v-16.026c0-7.703,8.059-13.947,15.761-13.947"/>
	<path fill="#F9E4E6" stroke="#3C3C3C" stroke-width="2" stroke-miterlimit="10" d="M132.507,103.278L132.507,103.278
		c7.703,0,15.761,6.244,15.761,13.947v16.026c0,7.703-8.059,13.947-15.761,13.947"/>
	<g id="face_18_">
		<path fill="#F9E4E6" d="M77.475,206.682c-25.304,0-60.408-40.533-60.408-58.383c0-25.605-2.671-84.017-3.068-92.564h127.254
			c-0.418,9.012-3.371,73.282-3.371,92.564C137.882,166.148,102.778,206.682,77.475,206.682z"/>
		<g>
			<path fill="#3C3C3C" d="M140.205,56.734c-0.558,12.083-3.323,72.885-3.323,91.564c0,8.598-8.338,22.862-20.748,35.495
				c-13.464,13.706-27.916,21.888-38.66,21.888s-25.196-8.182-38.66-21.888c-12.41-12.633-20.748-26.898-20.748-35.495
				c0-24.751-2.492-80.105-3.021-91.564H140.205 M142.301,54.734H12.951c0,0,3.116,65.746,3.116,93.564
				c0,19.214,36.387,59.383,61.408,59.383s61.408-40.17,61.408-59.383C138.882,127.435,142.301,54.734,142.301,54.734
				L142.301,54.734z"/>
		</g>
	</g>
	<circle fill="#3D3D3D" cx="43.281" cy="115.386" r="6.123"/>
	<circle fill="#3D3D3D" cx="109.854" cy="115.386" r="6.123"/>
	<path fill="none" stroke="#3C3C3C" stroke-width="3" stroke-miterlimit="10" d="M30.476,95.916c0,0,5.216-1.814,11.112-1.814
		s12.821,0.105,12.821,0.105"/>
	<path fill="none" stroke="#3C3C3C" stroke-width="3" stroke-miterlimit="10" d="M95.55,94.207c0,0,6.925-0.105,12.821-0.105
		s11.112,1.814,11.112,1.814"/>
	<path fill="#F3CED3" d="M53.857,145.384c0,4.72-3.826,8.546-8.546,8.546h-7.747c-4.72,0-8.546-3.826-8.546-8.546l0,0
		c0-4.72,3.826-8.546,8.546-8.546h7.747C50.031,136.838,53.857,140.664,53.857,145.384L53.857,145.384z"/>
	<path fill="#F3CED3" d="M124.696,145.384c0,4.72-3.826,8.546-8.546,8.546h-7.747c-4.72,0-8.546-3.826-8.546-8.546l0,0
		c0-4.72,3.826-8.546,8.546-8.546h7.747C120.87,136.838,124.696,140.664,124.696,145.384L124.696,145.384z"/>
	<path fill="none" stroke="#3C3C3C" stroke-width="2" stroke-miterlimit="10" d="M58.215,172.64c0,0,3.687,3.839,18.579,3.839
		s20.289-8.966,20.289-8.966"/>
	<path fill="none" stroke="#3C3C3C" stroke-width="2" stroke-miterlimit="10" d="M66.224,150.932c0,0,3.508,4.707,10.902,4.707
		s10.902-4.707,10.902-4.707"/>
	<path fill="#CF9337" stroke="#3D3D3D" stroke-width="2" stroke-miterlimit="10" d="M21.779,111.576l-3.758,1.105
		c0,0-5.305-9.505-5.305-21.22s-4.642-30.283,0-40.008s17.02-20.557,17.02-20.557l-4.863-10.389h7.736l1.768-14.368l10.831,10.61
		L93.175,2.824l-5.526,7.294l44.208,10.389l-13.705,2.652c0,0,8.621,12.599,15.031,16.136c6.41,3.537,17.683,11.273,17.683,11.273
		l-10.389,1.989c0,0,4.421,4.863,4.421,9.726s-5.747,48.187-5.747,48.187l-5.968,0.663c0,0,4.421-22.988,1.105-38.461
		c-3.316-15.473-9.505-13.484-9.505-13.484s-12.599,8.621-40.229,8.621s-46.64-11.052-53.492-8.4
		c-6.852,2.652-9.063,9.947-9.726,17.683C20.674,84.83,21.779,111.576,21.779,111.576z"/>
</g>
</svg>
