<?xml version="1.0" encoding="utf-8"?>
<!-- Generator: Adobe Illustrator 17.0.2, SVG Export Plug-In . SVG Version: 6.00 Build 0)  -->
<!DOCTYPE svg PUBLIC "-//W3C//DTD SVG 1.1//EN" "http://www.w3.org/Graphics/SVG/1.1/DTD/svg11.dtd">
<svg version="1.1" id="Calque_1" xmlns="http://www.w3.org/2000/svg" xmlns:xlink="http://www.w3.org/1999/xlink" x="0px" y="0px"
	 width="168.667px" height="210px" viewBox="0 0 168.667 210" enable-background="new 0 0 168.667 210" xml:space="preserve">
<line fill="none" stroke="#FFFFFF" stroke-width="3" stroke-miterlimit="10" x1="50" y1="30" x2="50" y2="65.35"/>
<path fill="none" stroke="#FFFFFF" stroke-width="3" stroke-miterlimit="10" d="M21.146,102.293C11.944,103.71,5,110.104,5,117.778
	v15.778c0,7.865,7.295,14.386,16.837,15.582"/>
<path fill="none" stroke="#FFFFFF" stroke-width="3" stroke-miterlimit="10" d="M148.886,149.036
	c9.186-1.427,16.114-7.815,16.114-15.48v-15.778c0-7.625-6.856-13.986-15.969-15.457"/>
<polygon fill="none" stroke="#FFFFFF" stroke-width="3" stroke-miterlimit="10" points="148.886,164.419 85.016,204.181 
	21.147,164.419 21.147,84.895 85.016,45.134 148.886,84.895 "/>
<path fill="none" stroke="#FFFFFF" stroke-width="3" stroke-miterlimit="10" d="M130.016,118.667
	c0,6.996-5.671,12.667-12.667,12.667H52.683c-6.996,0-12.667-5.671-12.667-12.667l0,0c0-6.996,5.671-12.667,12.667-12.667h64.667
	C124.345,106,130.016,111.671,130.016,118.667L130.016,118.667z"/>
<circle fill="none" stroke="#FFFFFF" stroke-width="3" stroke-miterlimit="10" cx="50" cy="17.333" r="12.667"/>
<path fill="none" stroke="#FFFFFF" stroke-width="3" stroke-miterlimit="10" d="M112.333,168.333c0,3.498-2.836,4.333-6.333,4.333
	H64.667c-3.498,0-6.333-0.836-6.333-4.333l0,0c0-3.498,2.836-5.333,6.333-5.333H106C109.498,163,112.333,164.836,112.333,168.333
	L112.333,168.333z"/>
</svg>
