<?xml version="1.0" encoding="utf-8"?>
<!-- Generator: Adobe Illustrator 17.0.2, SVG Export Plug-In . SVG Version: 6.00 Build 0)  -->
<!DOCTYPE svg PUBLIC "-//W3C//DTD SVG 1.1//EN" "http://www.w3.org/Graphics/SVG/1.1/DTD/svg11.dtd">
<svg version="1.1" id="Calque_1" xmlns="http://www.w3.org/2000/svg" xmlns:xlink="http://www.w3.org/1999/xlink" x="0px" y="0px"
	 width="500px" height="500px" viewBox="0 0 500 500" enable-background="new 0 0 500 500" xml:space="preserve">
<g>
	<path fill="#FFFFFF" d="M203.634,117.819l-0.688,37.953l-0.001,0.054v0.054v39.259v0.235l0.018,0.234
		c1.396,17.774-4.351,33.78-17.081,47.573c-10.097,10.94-24.384,20.099-41.318,26.485c-13.869,5.23-29.196,8.409-43.777,9.125
		v-92.561C109.128,176.24,156.241,122.253,203.634,117.819 M209.749,111.529c-57.481,0-114.962,72.556-114.962,72.556
		c0,75.721,0,25.128,0,100.862c52.685-0.094,118.695-32.032,114.158-89.807c0-25.426,0-39.259,0-39.259L209.749,111.529
		L209.749,111.529z"/>
</g>
<g>
	<path fill="#FFFFFF" d="M400.794,6.551c-1.107,24.707-8.665,48.895-21.102,67.153c-10.709,15.721-30.265,34.55-62.605,34.988
		l-76.17,0c-0.621-0.005-1.232-0.007-1.847-0.007c-67.083,0-97.005,28.452-128.683,58.574c-3.141,2.987-6.337,6.026-9.599,9.062
		v-74.75c0-32.679,4.864-54.861,15.307-69.809c5.493-7.863,12.52-13.68,21.48-17.783c9.522-4.36,20.974-6.703,35.006-7.16
		c37.846,0,78.155-0.068,117.139-0.134C326.629,6.622,364.729,6.558,400.794,6.551 M406.935,0.55
		c-75.737,0-158.715,0.269-234.452,0.269c-59.893,1.914-77.696,37.854-77.696,100.752v88.272
		c40.576-35.476,66.352-75.158,144.282-75.158c0.599,0,1.195,0.002,1.8,0.007c25.423,0,50.833,0,76.255,0
		C377.556,113.902,406.825,53.235,406.935,0.55L406.935,0.55z"/>
</g>
<g>
	<path fill="#FFFFFF" d="M494,113.686v93.045c-50.621,57.692-90.522,67.031-106.248,68.251c2.677-11.165,4.23-22.45,4.107-38.384
		v-39.243v-0.235l-0.018-0.234c-1.396-17.778,4.349-33.786,17.074-47.579c10.093-10.94,24.379-20.1,41.311-26.488
		C464.09,117.588,479.417,114.407,494,113.686 M500,107.529c-52.685,0.113-118.678,32.035-114.142,89.826
		c0,25.407,0,13.833,0,39.243c0.145,18.68-2.012,30.519-5.861,44.352c0,0,1.305,0.194,3.782,0.194
		c13.006,0,58.29-5.346,116.22-72.165C500,133.259,500,183.266,500,107.529L500,107.529z"/>
</g>
<g>
	<path fill="#FFFFFF" d="M494,216.17v74.739c0,32.685-4.864,54.869-15.307,69.816c-5.493,7.862-12.519,13.679-21.481,17.783
		c-9.521,4.361-20.973,6.705-35.006,7.165c-36.439,0-75.222,0.067-112.727,0.132c-11.859,0.02-23.723,0.041-35.544,0.059
		l-2.892,0.005l-1.798,2.265l-75.154,94.659v-90.851v-6h-0.077c0.021-0.44,0.043-0.886,0.068-1.337l0.009-0.204
		c2.701-47.985,30.002-99.881,83.625-100.601l76.158,0c0.626,0.005,1.235,0.007,1.855,0.007c67.065,0,96.978-28.441,128.646-58.553
		C487.525,222.26,490.729,219.214,494,216.17 M500,202.65c-40.574,35.461-66.34,75.158-144.271,75.158
		c-0.604,0-1.198-0.002-1.808-0.007c-25.426,0-50.836,0-76.243,0c-57.506,0.745-86.789,55.719-89.587,106.428v0.045
		c-0.142,2.578-0.223,5.123-0.223,7.668h0.223V500l85.853-108.135c49.903-0.078,100.577-0.191,148.359-0.191
		C482.197,389.747,500,353.823,500,290.909V202.65L500,202.65z"/>
</g>
</svg>
