<?xml version="1.0" encoding="utf-8"?>
<!-- Generator: Adobe Illustrator 17.0.2, SVG Export Plug-In . SVG Version: 6.00 Build 0)  -->
<!DOCTYPE svg PUBLIC "-//W3C//DTD SVG 1.1//EN" "http://www.w3.org/Graphics/SVG/1.1/DTD/svg11.dtd">
<svg version="1.1" id="Calque_1" xmlns="http://www.w3.org/2000/svg" xmlns:xlink="http://www.w3.org/1999/xlink" x="0px" y="0px"
	 width="180px" height="180px" viewBox="0 0 180 180" enable-background="new 0 0 180 180" xml:space="preserve">
<g>
	<g>
		<path fill="none" stroke="#FFD233" stroke-width="3" stroke-miterlimit="10" d="M152.584,64.085C152.584,29.52,124.564,1.5,90,1.5
			c-34.564,0-62.584,28.02-62.584,62.585c0,23.161,12.591,43.368,31.292,54.191v43.857c0,0,4.347,2.317,10.747,4.51
			c-0.193,0.57-0.316,1.152-0.316,1.749c0,5.761,9.34,10.43,20.862,10.43s20.862-4.67,20.862-10.43c0-0.598-0.123-1.18-0.316-1.75
			c6.4-2.192,10.747-4.509,10.747-4.509v-43.857C139.993,107.453,152.584,87.246,152.584,64.085z"/>
	</g>
</g>
<polyline fill-rule="evenodd" clip-rule="evenodd" fill="none" stroke="#FFD233" stroke-width="3" stroke-miterlimit="10" points="
	79.569,109.98 69.139,64.085 83.742,74.516 90,64.085 96.258,74.516 110.861,64.085 100.431,109.98 "/>
<path fill="none" stroke="#FFD233" stroke-width="3" stroke-miterlimit="10" d="M58.708,118.295c0,0,15.292,6,31.292,6
	s31.292-6,31.292-6"/>
<path fill="none" stroke="#FFD233" stroke-width="3" stroke-miterlimit="10" d="M58.708,139.295c0,0,15.292,6,31.292,6
	s31.292-6,31.292-6"/>
<path fill="none" stroke="#FFD233" stroke-width="3" stroke-miterlimit="10" d="M58.708,160.295c0,0,15.292,6,31.292,6
	s31.292-6,31.292-6"/>
</svg>
